<svg width="327" height="135" fill="none" xmlns="http://www.w3.org/2000/svg"><path d="m133.48 22.512 2.496-13.869 5.007.901c4.114.74 6.07 3.712 5.286 8.066l-.003.02c-.792 4.401-3.646 6.527-7.779 5.784l-5.007-.902Zm2.487-1.467 2.614.47c2.903.523 4.909-1.031 5.488-4.251l.004-.02c.574-3.19-.79-5.37-3.664-5.888l-2.614-.47-1.828 10.159Zm14.106 4.662c-3.056-.55-4.526-2.968-3.931-6.274l.001-.01c.587-3.258 2.863-5.1 5.775-4.577 2.912.524 4.321 2.95 3.758 6.084l-.132.73-7.401-1.331c-.321 2.006.566 3.366 2.286 3.675 1.336.24 2.253-.279 2.6-.772l.052-.07 2.011.352-.035.083c-.594 1.312-2.312 2.59-4.984 2.11Zm1.547-9.148c-1.423-.256-2.674.52-3.18 2.285l5.306.955c.172-1.894-.713-2.986-2.126-3.24Zm7.355 10.75c-2.518-.454-3.901-1.923-3.788-3.709l.002-.01 2.085.376.008.011c.118.835.782 1.5 2.022 1.724 1.288.231 2.287-.194 2.441-1.05l.004-.019c.117-.653-.293-1.184-1.454-1.68l-1.594-.684c-1.889-.806-2.641-1.864-2.366-3.393l.002-.01c.327-1.816 2.253-2.818 4.618-2.393 2.383.429 3.697 1.896 3.574 3.63l-.002.01-1.99-.359.004-.019c-.071-.767-.712-1.448-1.885-1.659-1.143-.205-2.072.213-2.223 1.05l-.003.018c-.118.654.29 1.144 1.413 1.634l1.585.672c1.924.832 2.732 1.86 2.46 3.37l-.003.019c-.348 1.932-2.43 2.917-4.91 2.47Zm8.182-11.438a1.328 1.328 0 0 1-1.074-1.532 1.33 1.33 0 0 1 1.543-1.072 1.337 1.337 0 0 1 1.072 1.542 1.334 1.334 0 0 1-1.541 1.063Zm-3.261 12.114 1.878-10.437 2.076.373-1.878 10.438-2.076-.374Zm6.894 5.041c-2.653-.477-4.077-1.934-4.014-3.719l.022-.015 2.105.378.006.021c.044.752.798 1.414 2.211 1.668 1.72.31 2.884-.314 3.14-1.737l.37-2.057-.154-.027c-.838 1.02-2.106 1.446-3.538 1.189-2.681-.483-3.962-2.847-3.433-5.788l.003-.019c.536-2.98 2.578-4.785 5.288-4.297 1.461.262 2.466 1.187 2.86 2.469l.125.022.308-1.71 2.076.373-1.84 10.227c-.427 2.373-2.575 3.555-5.535 3.022Zm1.035-5.916c1.768.318 3.077-.835 3.428-2.786l.004-.02c.349-1.941-.482-3.5-2.241-3.816-1.778-.32-3.023.865-3.372 2.806l-.004.02c-.349 1.941.407 3.476 2.185 3.796Zm5.492 3.29 1.878-10.437 2.086.375-.286 1.586.154.027c.71-1.023 1.831-1.516 3.349-1.243 2.336.42 3.373 2.046 2.925 4.535L186.207 32l-2.076-.373 1.128-6.267c.311-1.73-.256-2.715-1.784-2.99-1.528-.275-2.668.601-2.971 2.283l-1.101 6.123-2.086-.376Zm14.181 2.76c-3.057-.55-4.527-2.967-3.932-6.273l.002-.01c.586-3.258 2.863-5.101 5.775-4.577 2.912.524 4.321 2.95 3.757 6.084l-.131.73-7.401-1.332c-.321 2.006.565 3.367 2.286 3.676 1.336.24 2.253-.279 2.599-.772l.053-.07 2.01.352-.035.083c-.593 1.312-2.311 2.59-4.983 2.11Zm1.547-9.148c-1.423-.256-2.674.521-3.18 2.286l5.305.955c.172-1.894-.713-2.986-2.125-3.24Zm7.369 10.723c-2.623-.472-3.946-2.883-3.356-6.16l.003-.02c.595-3.306 2.643-5.09 5.296-4.613 1.432.257 2.524 1.188 2.879 2.413l.164.03 1.034-5.748 2.076.373-2.615 14.533-2.076-.374.296-1.643-.164-.03c-.811 1.035-2.076 1.502-3.537 1.24Zm.916-1.67c1.74.312 3.054-.87 3.455-3.1l.004-.02c.401-2.23-.428-3.797-2.158-4.108-1.749-.315-3.043.861-3.446 3.1l-.003.02c-.403 2.24.399 3.792 2.148 4.107Zm11.948 3.985c-1.989-.358-3.242-1.834-2.901-3.727l.003-.02c.336-1.864 1.934-2.698 4.451-2.404l2.855.345.167-.922c.205-1.144-.401-1.908-1.814-2.162-1.154-.208-1.989.078-2.372.774l-.017.036-2.008-.361.021-.066c.558-1.665 2.407-2.514 4.781-2.086 2.624.472 3.869 2.045 3.475 4.237l-1.285 7.14-2.066-.371.266-1.48-.164-.03c-.805.947-2.008 1.346-3.392 1.097Zm-.81-3.44c-.173.96.542 1.675 1.667 1.877 1.557.28 2.884-.533 3.126-1.878l.161-.894-2.577-.295c-1.457-.173-2.204.229-2.373 1.17l-.004.02Zm7.139 4.4 1.878-10.438 2.085.375-.285 1.586.154.028c.71-1.023 1.83-1.516 3.349-1.243 2.336.42 3.373 2.045 2.925 4.535l-1.216 6.756-2.076-.373 1.128-6.267c.311-1.73-.256-2.715-1.784-2.99-1.528-.275-2.668.602-2.971 2.284l-1.102 6.122-2.085-.375Zm13.609 2.627c-2.624-.472-3.947-2.883-3.357-6.16l.004-.02c.595-3.306 2.642-5.09 5.295-4.613 1.432.257 2.525 1.188 2.88 2.413l.163.03 1.034-5.748 2.076.373-2.614 14.533-2.076-.374.295-1.643-.163-.03c-.811 1.035-2.076 1.502-3.537 1.24Zm.916-1.67c1.739.312 3.053-.87 3.455-3.1l.003-.02c.401-2.229-.428-3.797-2.158-4.108-1.749-.315-3.042.861-3.445 3.1l-.004.02c-.403 2.24.399 3.793 2.149 4.107Zm-102.02-4a1.327 1.327 0 0 1-1.073-1.533 1.329 1.329 0 0 1 1.542-1.072 1.337 1.337 0 0 1 1.072 1.543 1.334 1.334 0 0 1-1.541 1.062Zm-3.261 12.114 1.878-10.438 2.076.374-1.878 10.438-2.076-.374Zm3.145.566 1.878-10.438 2.085.375-.288 1.605.153.028c.668-1.06 1.806-1.54 3.171-1.295 1.422.256 2.298 1.178 2.557 2.385l.163.03c.731-1.03 2.066-1.554 3.517-1.293 2.105.38 3.107 1.87 2.716 4.042l-1.295 7.198-2.076-.373 1.205-6.7c.26-1.441-.266-2.27-1.631-2.515-1.326-.24-2.379.593-2.605 1.853l-1.188 6.602-2.077-.373 1.244-6.91c.214-1.192-.429-2.082-1.659-2.303-1.26-.227-2.386.682-2.631 2.047l-1.154 6.41-2.085-.375Zm14.975 6.286 2.504-13.917 2.086.376-.296 1.643.154.028c.811-1.035 2.077-1.512 3.538-1.249 2.634.474 3.947 2.883 3.355 6.17l-.003.02c-.595 3.306-2.641 5.081-5.294 4.604-1.432-.258-2.526-1.18-2.881-2.404l-.154-.028-.924 5.133-2.085-.376Zm5.778-4.209c1.739.313 3.033-.863 3.436-3.103l.003-.019c.405-2.249-.399-3.792-2.139-4.106-1.739-.313-3.063.868-3.464 3.098l-.004.02c-.401 2.229.428 3.797 2.168 4.11Zm5.259 2.603 2.615-14.532 2.085.375-2.615 14.533-2.085-.376Zm7.568 1.57c-3.057-.55-4.527-2.967-3.932-6.273l.002-.01c.586-3.258 2.863-5.101 5.775-4.577 2.912.524 4.321 2.95 3.757 6.084l-.131.73-7.401-1.331c-.321 2.006.565 3.366 2.286 3.675 1.336.24 2.253-.279 2.599-.772l.053-.07 2.01.352-.035.083c-.593 1.312-2.311 2.59-4.983 2.11Zm1.547-9.147c-1.423-.256-2.674.52-3.18 2.285l5.305.955c.173-1.894-.713-2.986-2.125-3.24Zm3.595 9.864 1.878-10.437 2.085.375-.288 1.605.153.028c.667-1.061 1.806-1.541 3.17-1.295 1.423.255 2.299 1.177 2.558 2.385l.163.03c.731-1.03 2.066-1.554 3.517-1.293 2.105.379 3.107 1.869 2.716 4.04l-1.295 7.2-2.076-.374 1.205-6.699c.26-1.442-.266-2.27-1.631-2.516-1.326-.239-2.379.594-2.605 1.853l-1.189 6.603-2.076-.374 1.244-6.91c.214-1.192-.429-2.082-1.66-2.303-1.259-.226-2.385.682-2.63 2.047l-1.154 6.41-2.085-.375Zm19.947 3.798c-3.056-.55-4.526-2.968-3.932-6.274l.002-.01c.586-3.258 2.863-5.1 5.775-4.577 2.912.524 4.321 2.951 3.757 6.084l-.131.73-7.401-1.33c-.321 2.005.566 3.365 2.286 3.675 1.336.24 2.253-.28 2.6-.773l.052-.07 2.01.352-.034.083c-.594 1.312-2.312 2.59-4.984 2.11Zm1.547-9.148c-1.423-.256-2.674.521-3.18 2.286l5.306.954c.172-1.894-.713-2.986-2.126-3.24Zm3.595 9.865 1.878-10.438 2.086.375-.286 1.586.154.028c.71-1.023 1.831-1.516 3.349-1.243 2.336.42 3.373 2.046 2.925 4.535l-1.216 6.757-2.076-.374 1.128-6.266c.311-1.73-.256-2.716-1.784-2.99-1.528-.276-2.668.6-2.971 2.283l-1.102 6.122-2.085-.375Zm13.763 2.546c-2.297-.414-3.094-1.39-2.733-3.4l1.088-6.045-1.634-.294.296-1.643 1.634.294.474-2.634 2.124.383-.474 2.633 2.239.403-.295 1.644-2.24-.404-.998 5.546c-.202 1.125.138 1.662 1.166 1.847.317.057.502.08.795.104l-.299 1.662a6.767 6.767 0 0 1-1.143-.096Zm5.831 1.188c-3.057-.55-4.527-2.968-3.932-6.274l.002-.01c.586-3.258 2.862-5.1 5.775-4.577 2.912.524 4.321 2.95 3.757 6.084l-.131.73-7.401-1.331c-.321 2.006.565 3.366 2.285 3.676 1.336.24 2.254-.28 2.6-.773l.053-.07 2.01.352-.035.083c-.593 1.312-2.311 2.59-4.983 2.11Zm1.546-9.148c-1.422-.256-2.673.521-3.179 2.285l5.305.955c.172-1.894-.713-2.986-2.126-3.24Zm7.37 10.722c-2.624-.472-3.946-2.883-3.356-6.16l.003-.02c.595-3.305 2.643-5.09 5.295-4.613 1.433.258 2.525 1.189 2.88 2.413l.164.03 1.034-5.748 2.076.374-2.615 14.532-2.076-.373.296-1.644-.164-.03c-.811 1.035-2.076 1.502-3.537 1.24Zm.916-1.67c1.74.313 3.054-.87 3.455-3.1l.004-.019c.401-2.23-.428-3.798-2.158-4.109-1.75-.315-3.043.861-3.446 3.101l-.003.02c-.403 2.239.399 3.792 2.148 4.107Zm14.63 4.468c-1.461-.263-2.484-1.142-2.884-2.394l-.153-.028-.296 1.643-2.086-.375 2.615-14.532 2.086.375-1.035 5.748.154.027c.76-1.024 2.109-1.515 3.541-1.258 2.652.478 3.95 2.864 3.355 6.17l-.004.02c-.59 3.277-2.66 5.078-5.293 4.604Zm-.267-1.884c1.74.313 3.033-.863 3.436-3.103l.004-.019c.402-2.24-.4-3.792-2.139-4.106-1.74-.313-3.064.868-3.465 3.098l-.003.02c-.402 2.229.428 3.797 2.167 4.11Zm5.098 6.365a8.44 8.44 0 0 1-.827-.199l.295-1.643c.197.065.455.121.695.165.971.174 1.622-.135 2.129-1.136l.251-.51-1.907-11.129 2.249.405 1.113 8.813.183.033 4.106-7.874 2.191.394-5.834 10.143c-1.334 2.34-2.529 2.918-4.644 2.538Zm12.16-1.603 1.878-10.437 2.086.375-.289 1.605.154.028c.667-1.061 1.805-1.541 3.17-1.295 1.422.256 2.298 1.177 2.557 2.385l.164.03c.73-1.03 2.065-1.554 3.516-1.293 2.105.379 3.107 1.869 2.716 4.04l-1.295 7.2-2.076-.374 1.205-6.699c.26-1.441-.266-2.27-1.631-2.516-1.326-.239-2.379.594-2.605 1.853l-1.188 6.603-2.076-.373 1.243-6.911c.214-1.192-.429-2.082-1.659-2.303-1.259-.227-2.385.682-2.631 2.047l-1.154 6.41-2.085-.375Zm19.947 3.798c-3.056-.55-4.526-2.968-3.931-6.274l.001-.01c.587-3.258 2.863-5.1 5.775-4.576 2.913.523 4.321 2.95 3.758 6.083l-.132.73-7.4-1.33c-.322 2.005.565 3.365 2.285 3.675 1.336.24 2.253-.28 2.6-.773l.052-.07 2.011.352-.035.083c-.593 1.312-2.312 2.59-4.984 2.11Zm1.547-9.148c-1.422-.256-2.674.521-3.18 2.286l5.306.954c.172-1.894-.713-2.986-2.126-3.24Zm-150.663-5.191a1.328 1.328 0 0 1-1.074-1.533 1.33 1.33 0 0 1 1.543-1.072 1.335 1.335 0 0 1 1.071 1.543 1.333 1.333 0 0 1-1.54 1.062Zm-3.261 12.114 1.878-10.438 2.076.374L126.5 72.06l-2.076-.374Zm3.144.566 1.879-10.438 2.085.375-.285 1.586.154.028c.71-1.023 1.83-1.516 3.349-1.243 2.335.42 3.373 2.046 2.925 4.535l-1.216 6.757-2.076-.374 1.127-6.267c.312-1.73-.255-2.715-1.783-2.99-1.529-.275-2.669.602-2.971 2.284l-1.102 6.122-2.086-.375Zm19.118 3.787c-3.854-.693-5.755-3.913-4.951-8.382l.003-.02c.806-4.478 3.701-6.835 7.555-6.142 3.057.55 5.054 2.904 4.923 5.728l-.018.047-2.134-.384.005-.029c-.097-1.774-1.292-3.13-3.118-3.459-2.49-.447-4.418 1.339-5.012 4.636l-.003.019c-.592 3.287.594 5.633 3.093 6.083 1.835.33 3.386-.403 4.062-1.898l.026-.035 2.134.383-.01.058c-.883 2.59-3.46 3.952-6.555 3.395Zm6.445.812 1.878-10.438 2.085.376-.283 1.576.153.028c.574-1.038 1.663-1.517 3.056-1.266.337.06.693.174.896.26l-.346 1.922a5.538 5.538 0 0 0-1.102-.327c-1.595-.287-2.858.498-3.129 2.007l-1.123 6.238-2.085-.376Zm8.669 1.739c-1.99-.358-3.243-1.834-2.902-3.727l.004-.02c.335-1.864 1.934-2.698 4.451-2.404l2.855.346.166-.923c.206-1.144-.401-1.908-1.814-2.162-1.153-.208-1.989.079-2.372.774l-.016.036-2.009-.361.022-.066c.557-1.665 2.407-2.513 4.781-2.086 2.624.472 3.869 2.045 3.474 4.237l-1.285 7.14-2.066-.37.266-1.481-.163-.03c-.806.947-2.008 1.346-3.392 1.097Zm-.81-3.44c-.173.961.542 1.675 1.666 1.877 1.557.28 2.884-.532 3.126-1.878l.161-.894-2.576-.295c-1.457-.173-2.204.229-2.374 1.17l-.003.02Zm11.494 5.392c-3.047-.548-4.538-2.96-3.931-6.333l.004-.02c.595-3.306 2.821-5.038 5.868-4.49 2.624.472 3.924 2.234 3.848 4.314l-.009.048-2.001-.35-.004-.03c-.046-1.07-.753-1.992-2.137-2.24-1.74-.314-3.037.882-3.441 3.13l-.004.02c-.415 2.307.4 3.902 2.12 4.212 1.307.235 2.222-.216 2.76-1.28l.028-.044 1.999.36-.034.082c-.74 1.96-2.481 3.086-5.066 2.621Zm9.286 1.671c-3.066-.552-4.571-2.936-3.966-6.3l.003-.02c.604-3.354 2.858-5.071 5.914-4.521 3.047.548 4.562 2.934 3.957 6.298l-.003.02c-.606 3.363-2.848 5.073-5.905 4.523Zm.313-1.74c1.788.322 3.052-.86 3.468-3.166l.003-.02c.417-2.316-.358-3.854-2.146-4.176-1.797-.323-3.05.85-3.467 3.167l-.003.019c-.417 2.316.348 3.853 2.145 4.176Zm6.78 2.808-1.005-10.957 2.095.377.425 8.392.154.028 3.602-7.667 1.98.356.704 8.441.163.03 3.314-7.719 2.066.372-4.751 9.92-2.144-.385-.761-8.174-.164-.03-3.554 7.398-2.124-.382Zm9.369 5.407 1.861-5.49 2.22.4-2.611 5.354-1.47-.264Zm8.668-2.162.263-1.46 5.473-4.007c2.18-1.582 2.837-2.198 3.039-3.323l.005-.028c.244-1.356-.508-2.523-2.027-2.796-1.557-.28-2.778.552-3.051 2.07l-.015.027-2.019-.363-.015-.022c.466-2.536 2.748-3.971 5.536-3.47 2.585.466 4.192 2.452 3.781 4.74l-.006.028c-.283 1.576-1.232 2.656-4.199 4.702l-3.469 2.402-.034.192 6.41 1.154-.33 1.835-9.342-1.68Zm15.031 3.052c-3.201-.576-4.62-3.718-3.815-8.188l.003-.019c.804-4.47 3.228-6.91 6.429-6.334 3.19.574 4.621 3.709 3.817 8.178l-.004.019c-.804 4.47-3.239 6.919-6.43 6.344Zm.322-1.787c1.855.333 3.326-1.555 3.936-4.948l.003-.02c.611-3.392-.113-5.655-1.968-5.99-1.864-.335-3.322 1.536-3.933 4.929l-.003.02c-.611 3.392.1 5.673 1.965 6.009Zm5.661 2.517.263-1.461 5.473-4.006c2.18-1.583 2.837-2.199 3.039-3.323l.006-.03c.243-1.354-.509-2.522-2.028-2.795-1.557-.28-2.778.552-3.051 2.07l-.015.028-2.018-.364-.016-.022c.466-2.536 2.748-3.97 5.536-3.47 2.585.466 4.192 2.452 3.781 4.74l-.005.028c-.284 1.576-1.232 2.656-4.2 4.702l-3.469 2.402-.034.192 6.41 1.154-.33 1.836-9.342-1.681Zm16.312 2.935.497-2.759-6.767-1.217.329-1.826a192.28 192.28 0 0 1 7.447-8.246l3.066.552-1.671 9.285 1.913.344-.329 1.826-1.912-.344-.497 2.758-2.076-.373Zm-3.882-5.392 4.729.85 1.351-7.506-.125-.022a160.836 160.836 0 0 0-5.931 6.543l-.024.135Z" fill="#fff"/><path d="M23.163 39.228c.08.152.11.241.122.278a1.586 1.586 0 0 1-.122.278c-.123.231-.322.527-.601.87-.557.683-1.385 1.49-2.424 2.262-2.088 1.55-4.92 2.878-7.992 2.878-3.066 0-5.896-1.36-7.988-2.931-1.04-.782-1.871-1.596-2.431-2.277a5.958 5.958 0 0 1-.605-.858c-.06-.108-.09-.18-.107-.222.016-.042.048-.114.107-.221.124-.225.324-.517.605-.859.56-.68 1.39-1.495 2.431-2.276 2.092-1.572 4.922-2.931 7.988-2.931 3.073 0 5.904 1.327 7.992 2.877 1.04.772 1.867 1.579 2.424 2.263.28.343.477.638.6.87Z" stroke="#fff" stroke-width="2"/><path d="m3.853 35.592-2.408-8.668m11.076 5.297v-7.705m9.15 11.076 4.816-8.668" stroke="#fff" stroke-width="2" stroke-linecap="square"/><circle cx="18.213" cy="39.685" r="4.372" fill="#fff"/><path d="M56.391 39.228c.081.152.111.241.123.278a1.586 1.586 0 0 1-.123.278c-.123.231-.321.527-.6.87-.558.683-1.385 1.49-2.424 2.262-2.088 1.55-4.92 2.878-7.993 2.878-3.066 0-5.895-1.36-7.988-2.931-1.04-.782-1.87-1.596-2.43-2.277a5.96 5.96 0 0 1-.606-.858c-.059-.108-.09-.18-.106-.222.016-.042.047-.114.106-.221a5.96 5.96 0 0 1 .605-.859c.56-.68 1.39-1.495 2.431-2.276 2.093-1.572 4.922-2.931 7.988-2.931 3.073 0 5.905 1.327 7.992 2.877 1.04.772 1.867 1.579 2.424 2.263.28.343.478.638.601.87Z" stroke="#fff" stroke-width="2"/><path d="m37.082 35.592-2.408-8.668M45.75 32.22v-7.705m9.15 11.076 4.815-8.668" stroke="#fff" stroke-width="2" stroke-linecap="square"/><circle cx="51.433" cy="39.685" r="4.372" fill="#fff"/><path d="m30.821 49.61-3.37 7.705 4.815.963M22.634 68.945c3.64 4.5 5.81 6.777 14.447 1.445" stroke="#fff" stroke-width="2" stroke-linecap="square"/><path d="m29 81.013 3 13.005m0 21-14.5 20m14.5-20c11.108 5.579 13.93 9.967 13 20m-13-20v-21m0 0c41.15 12.407 69.898 13.88 100.5-13.005M32 94.018C58.482 52.81 108-9.492 132.5 2.508" stroke="#fff" stroke-width="2"/></svg>