<svg width="47" height="45" fill="none" xmlns="http://www.w3.org/2000/svg"><rect y=".286" width="46.283" height="44.572" rx="8" fill="#fff" fill-opacity=".08"/><path d="M23.142 17.428a2.571 2.571 0 1 0 0-5.142 2.571 2.571 0 0 0 0 5.143ZM14.571 32.857a2.571 2.571 0 1 0 0-5.143 2.571 2.571 0 0 0 0 5.143ZM23.142 32.857a2.571 2.571 0 1 0 0-5.143 2.571 2.571 0 0 0 0 5.143ZM31.712 32.857a2.571 2.571 0 1 0 0-5.143 2.571 2.571 0 0 0 0 5.143Z" stroke="#fff" stroke-width="1.714" stroke-linecap="round" stroke-linejoin="round"/><path d="M14.57 27.714v-3.429a1.714 1.714 0 0 1 1.715-1.714h13.714a1.714 1.714 0 0 1 1.714 1.714v3.429m-8.571-10.286v10.286" stroke="#fff" stroke-width="1.714" stroke-linecap="round" stroke-linejoin="round"/></svg>