<svg width="46" height="47" fill="none" xmlns="http://www.w3.org/2000/svg"><rect width="45.844" height="46.286" rx="8" fill="#fff" fill-opacity=".08"/><path d="M25.484 19.714a1.714 1.714 0 1 0 0-3.428 1.714 1.714 0 0 0 0 3.428ZM18.627 28.286a.857.857 0 1 0 0-1.715.857.857 0 0 0 0 1.715ZM18.632 22.286a1.714 1.714 0 1 0 0-3.429 1.714 1.714 0 0 0 0 3.429Z" stroke="#fff" stroke-width="1.714" stroke-linecap="round" stroke-linejoin="round"/><path d="M27.235 32.194a1.714 1.714 0 0 0-1.114-1.508A3.428 3.428 0 0 1 27.2 24h3.205a3.43 3.43 0 0 0 3.24-4.577 11.143 11.143 0 1 0-10.508 14.863 10.802 10.802 0 0 0 2.983-.412 1.543 1.543 0 0 0 1.114-1.68Z" stroke="#fff" stroke-width="1.714" stroke-linecap="round" stroke-linejoin="round"/></svg>