<svg width="692" height="359" fill="none" xmlns="http://www.w3.org/2000/svg"><rect width="692" height="359" rx="8" fill="#173778"/><path fill-rule="evenodd" clip-rule="evenodd" d="M143.167 150.632a47.46 47.46 0 0 0-9.355 28.367c0 26.33 21.345 47.675 47.675 47.675s47.675-21.345 47.675-47.675-21.345-47.675-47.675-47.675a47.534 47.534 0 0 0-17.593 3.352 55.043 55.043 0 0 1 8.54 7.704 37.782 37.782 0 0 1 9.053-1.094c20.829 0 37.713 16.885 37.713 37.713s-16.884 37.713-37.713 37.713c-20.828 0-37.713-16.885-37.713-37.713 0-8.719 2.96-16.748 7.928-23.135a30.608 30.608 0 0 0-8.535-5.232Z" fill="#fff"/><path fill-rule="evenodd" clip-rule="evenodd" d="M93.962 178.999c0-20.828 16.885-37.713 37.713-37.713s37.713 16.885 37.713 37.713a37.547 37.547 0 0 1-7.928 23.135 30.576 30.576 0 0 0 8.536 5.232 47.466 47.466 0 0 0 9.354-28.367c0-26.33-21.345-47.675-47.675-47.675S84 152.669 84 178.999s21.345 47.675 47.675 47.675c6.214 0 12.15-1.189 17.594-3.352a55.005 55.005 0 0 1-8.541-7.704 37.776 37.776 0 0 1-9.053 1.094c-20.828 0-37.713-16.885-37.713-37.713Z" fill="#fff"/><path d="M258.83 212v-70.431h27.097c3.785 0 7.239.399 10.36 1.196 3.121.73 5.844 1.959 8.169 3.686 2.324 1.66 4.117 3.918 5.379 6.774 1.262 2.856 1.893 6.375 1.893 10.559 0 3.786-.664 7.04-1.992 9.763-1.329 2.723-3.155 4.981-5.479 6.774-2.325 1.793-4.948 3.155-7.87 4.085L311.429 212h-11.655l-13.947-25.901H269.39V212h-10.56Zm10.56-35.365h14.345c2.391 0 4.616-.166 6.674-.498 2.126-.398 3.985-1.062 5.579-1.992a10.132 10.132 0 0 0 3.686-3.985c.93-1.727 1.395-3.918 1.395-6.575.066-3.055-.532-5.479-1.793-7.272-1.196-1.86-2.989-3.155-5.38-3.885-2.391-.797-5.28-1.196-8.667-1.196H269.39v25.403ZM321.388 212v-52.499h10.261V212h-10.261Zm5.08-59.473c-1.992 0-3.619-.597-4.881-1.793-1.195-1.262-1.793-2.855-1.793-4.781 0-1.926.631-3.487 1.893-4.683 1.262-1.261 2.856-1.892 4.781-1.892 1.794 0 3.354.631 4.683 1.892 1.394 1.196 2.092 2.757 2.092 4.683 0 1.926-.665 3.519-1.993 4.781-1.262 1.196-2.856 1.793-4.782 1.793Zm37.105 60.071c-5.246 0-9.596-1.163-13.05-3.487-3.387-2.391-5.944-5.612-7.67-9.663-1.661-4.051-2.491-8.6-2.491-13.648 0-5.114.864-9.696 2.59-13.747 1.727-4.118 4.35-7.339 7.87-9.663 3.52-2.391 7.97-3.587 13.349-3.587 1.993 0 3.985.233 5.977.698 2.059.465 3.952 1.195 5.679 2.191 1.793.93 3.32 2.192 4.582 3.786v-23.909h10.261V212h-9.862l-.399-7.173a15.988 15.988 0 0 1-4.483 4.483c-1.727 1.129-3.652 1.959-5.778 2.491a27.021 27.021 0 0 1-6.575.797Zm1.694-9.165c3.387 0 6.176-.83 8.368-2.491 2.258-1.66 3.952-3.852 5.081-6.575 1.129-2.722 1.693-5.678 1.693-8.866 0-3.254-.564-6.176-1.693-8.766-1.063-2.657-2.723-4.749-4.981-6.276-2.192-1.594-5.015-2.391-8.468-2.391-3.586 0-6.442.83-8.567 2.49-2.125 1.594-3.686 3.753-4.682 6.476-.93 2.723-1.395 5.711-1.395 8.965 0 2.391.266 4.649.797 6.775.531 2.058 1.361 3.918 2.49 5.578 1.196 1.594 2.723 2.856 4.583 3.786 1.859.863 4.117 1.295 6.774 1.295ZM401.262 212v-52.499h10.261V212h-10.261Zm5.081-59.473c-1.993 0-3.62-.597-4.882-1.793-1.195-1.262-1.793-2.855-1.793-4.781 0-1.926.631-3.487 1.893-4.683 1.262-1.261 2.856-1.892 4.782-1.892 1.793 0 3.354.631 4.682 1.892 1.394 1.196 2.092 2.757 2.092 4.683 0 1.926-.664 3.519-1.993 4.781-1.261 1.196-2.855 1.793-4.781 1.793ZM436.076 212l-19.625-52.499h11.456l15.142 43.234 15.043-43.234h11.556L450.023 212h-13.947Zm38.25 0v-52.499h10.261V212h-10.261Zm5.081-59.473c-1.992 0-3.619-.597-4.881-1.793-1.196-1.262-1.793-2.855-1.793-4.781 0-1.926.631-3.487 1.892-4.683 1.262-1.261 2.856-1.892 4.782-1.892 1.793 0 3.354.631 4.682 1.892 1.395 1.196 2.092 2.757 2.092 4.683 0 1.926-.664 3.519-1.992 4.781-1.262 1.196-2.856 1.793-4.782 1.793Zm35.511 60.071c-2.457 0-4.914-.233-7.372-.698a22.43 22.43 0 0 1-6.873-2.49 16.84 16.84 0 0 1-5.38-4.782c-1.461-2.059-2.391-4.582-2.789-7.571h10.46c.531 1.594 1.461 2.889 2.789 3.885a14.6 14.6 0 0 0 4.583 2.192 19.48 19.48 0 0 0 5.08.697c.996 0 2.092-.066 3.288-.199a12.919 12.919 0 0 0 3.586-.897c1.129-.464 2.059-1.129 2.789-1.992.731-.93 1.096-2.158 1.096-3.686 0-1.195-.332-2.191-.996-2.988-.598-.797-1.461-1.428-2.59-1.893-1.063-.531-2.358-.93-3.885-1.196a208.416 208.416 0 0 0-9.663-1.892c-3.387-.665-6.376-1.794-8.966-3.387a14.906 14.906 0 0 1-2.491-1.993 13.027 13.027 0 0 1-1.892-2.69 13.114 13.114 0 0 1-1.196-3.187c-.265-1.129-.398-2.358-.398-3.686 0-2.723.531-5.048 1.594-6.974a13.445 13.445 0 0 1 4.582-4.682c1.926-1.262 4.118-2.191 6.575-2.789 2.457-.598 5.047-.897 7.77-.897 3.52 0 6.708.565 9.564 1.694 2.855 1.129 5.213 2.789 7.073 4.981 1.859 2.192 2.955 4.948 3.287 8.268h-9.663c-.398-1.793-1.561-3.221-3.487-4.283-1.859-1.129-4.217-1.694-7.073-1.694-.996 0-2.092.067-3.287.199a11.514 11.514 0 0 0-3.287.897c-1.063.465-1.926 1.129-2.591 1.992-.664.797-.996 1.86-.996 3.188 0 1.262.299 2.325.897 3.188.664.863 1.594 1.561 2.789 2.092 1.262.531 2.69.963 4.284 1.295 2.258.531 4.682 1.029 7.272 1.494 2.657.465 4.815.963 6.475 1.495 2.192.597 4.051 1.461 5.579 2.59 1.594 1.129 2.789 2.557 3.586 4.283.864 1.727 1.295 3.819 1.295 6.276 0 3.188-.631 5.811-1.893 7.87-1.261 1.993-2.955 3.586-5.08 4.782-2.059 1.195-4.383 2.025-6.973 2.49a41.181 41.181 0 0 1-7.472.698Zm45.901 0a27.12 27.12 0 0 1-6.973-.897c-2.192-.664-4.151-1.627-5.878-2.889a15.602 15.602 0 0 1-4.184-4.881c-.996-1.993-1.494-4.317-1.494-6.973 0-3.188.598-5.812 1.793-7.87 1.262-2.126 2.922-3.753 4.981-4.882 2.059-1.195 4.417-2.025 7.073-2.49a44.154 44.154 0 0 1 8.468-.797h12.851c0-2.59-.399-4.848-1.196-6.774-.797-1.993-2.059-3.52-3.785-4.583-1.661-1.129-3.886-1.693-6.675-1.693-1.66 0-3.254.199-4.782.597-1.461.333-2.722.897-3.785 1.694-1.063.797-1.793 1.86-2.192 3.188h-10.759c.399-2.524 1.295-4.682 2.69-6.475a17.2 17.2 0 0 1 5.18-4.583 23.418 23.418 0 0 1 6.575-2.59 29.86 29.86 0 0 1 7.272-.897c7.571 0 13.017 2.225 16.338 6.675 3.387 4.383 5.08 10.427 5.08 18.131V212h-8.866l-.398-6.674c-1.528 2.058-3.354 3.619-5.479 4.682-2.059 1.062-4.118 1.76-6.177 2.092-2.058.332-3.951.498-5.678.498Zm1.594-8.667c2.989 0 5.612-.498 7.87-1.494 2.258-1.063 4.018-2.557 5.28-4.483 1.262-1.993 1.893-4.317 1.893-6.974v-2.191h-9.365c-1.926 0-3.818.066-5.678.199-1.793.066-3.453.332-4.981.797-1.461.398-2.656 1.096-3.586 2.092-.864.996-1.295 2.424-1.295 4.284 0 1.793.465 3.254 1.394 4.383.93 1.129 2.159 1.992 3.686 2.59 1.528.531 3.122.797 4.782.797Z" fill="#fff"/></svg>