<svg width="680" height="19" fill="none" xmlns="http://www.w3.org/2000/svg"><path d="M0 2.88A2.833 2.833 0 0 1 2.833.046h674.334A2.833 2.833 0 0 1 680 2.88v16.055H0V2.88Z" fill="#343434"/><path d="M15.111 9.489a3.778 3.778 0 1 1-7.555 0 3.778 3.778 0 0 1 7.555 0ZM26.444 9.489a3.778 3.778 0 1 1-7.555 0 3.778 3.778 0 0 1 7.555 0ZM37.778 9.489a3.778 3.778 0 1 1-7.556 0 3.778 3.778 0 0 1 7.556 0Z" fill="#686866"/><path opacity=".5" d="M332.136 7.636a.892.892 0 0 0-.414-.67c-.243-.16-.54-.239-.892-.239-.258 0-.483.042-.677.125a1.08 1.08 0 0 0-.448.344.819.819 0 0 0-.16.497c0 .155.037.289.111.4.076.11.173.202.29.276.117.072.241.132.369.18.129.045.247.082.355.11l.591.16c.152.039.32.094.506.164.188.07.367.166.537.287.172.12.314.273.426.46.112.188.168.418.168.69 0 .315-.083.599-.247.853a1.685 1.685 0 0 1-.716.605c-.313.15-.693.224-1.14.224-.416 0-.777-.067-1.082-.201a1.724 1.724 0 0 1-.716-.563c-.172-.24-.27-.52-.292-.838h.727c.019.22.093.402.221.546.131.142.296.248.495.318.2.068.416.102.647.102.269 0 .511-.044.725-.13.214-.09.383-.213.508-.37a.876.876 0 0 0 .188-.557.682.682 0 0 0-.162-.472 1.19 1.19 0 0 0-.426-.295 4.5 4.5 0 0 0-.571-.199l-.716-.204c-.455-.131-.814-.318-1.08-.56-.265-.242-.397-.56-.397-.952 0-.325.088-.61.264-.852.178-.244.417-.434.716-.568a2.415 2.415 0 0 1 1.008-.205c.375 0 .709.068 1 .202.292.133.523.314.693.545.173.231.264.494.273.787h-.682Zm1.602-.83v-.624h4.364v.625h-1.83V12h-.705V6.807h-1.829Zm5.01 5.194h-.739l2.137-5.818h.727L343.009 12h-.738l-1.739-4.898h-.045L338.748 12Zm.273-2.273h2.977v.625h-2.977v-.625Zm3.801-3.545h.807l1.613 2.716h.068l1.614-2.716h.807l-2.102 3.42V12h-.705V9.602l-2.102-3.42ZM348.287 12h-.739l2.137-5.818h.727L352.548 12h-.738l-1.739-4.898h-.045L348.287 12Zm.273-2.273h2.977v.625h-2.977v-.625Z" fill="#fff"/></svg>