<svg width="680" height="20" fill="none" xmlns="http://www.w3.org/2000/svg"><path transform="translate(0 .344)" fill="url('#paint0_linear_542_10460')" d="M0 0h680v18.901H0z"/><path d="M15.123 9.794a3.78 3.78 0 1 1-7.56 0 3.78 3.78 0 0 1 7.56 0ZM26.459 9.794a3.78 3.78 0 1 1-7.56 0 3.78 3.78 0 0 1 7.56 0ZM37.802 9.794a3.78 3.78 0 1 1-7.56 0 3.78 3.78 0 0 1 7.56 0Z" fill="#CBCBCD"/><path opacity=".5" d="M315.353 8.472v.537h-2.137v-.537h2.137Zm-1.514-.988h.634v3.93c0 .18.026.314.077.404a.406.406 0 0 0 .204.177.826.826 0 0 0 .266.043 1.12 1.12 0 0 0 .279-.033l.129.57a1.319 1.319 0 0 1-.472.075c-.179 0-.355-.039-.526-.116a1.049 1.049 0 0 1-.425-.351 1.01 1.01 0 0 1-.166-.596V7.484Zm2.467 5.112V8.472h.634v4.124h-.634Zm.322-4.81a.45.45 0 0 1-.319-.127.405.405 0 0 1-.132-.303c0-.119.044-.22.132-.304a.45.45 0 0 1 .319-.126.44.44 0 0 1 .317.126.4.4 0 0 1 .134.304.4.4 0 0 1-.134.303.44.44 0 0 1-.317.126Zm1.558 4.81V7.098h.634v2.03h.054c.046-.072.111-.163.193-.274a1.13 1.13 0 0 1 .36-.301c.157-.09.37-.134.639-.134.347 0 .653.087.918.26.265.174.471.42.62.738.148.319.223.695.223 1.128 0 .437-.075.815-.223 1.136a1.756 1.756 0 0 1-.618.74c-.263.174-.566.261-.91.261-.265 0-.477-.044-.636-.131a1.186 1.186 0 0 1-.368-.304 3.824 3.824 0 0 1-.198-.284h-.076v.633h-.612Zm.623-2.062c0 .312.046.586.137.824.091.237.225.422.4.556.175.133.39.199.644.199.265 0 .486-.07.664-.21.179-.14.313-.33.402-.569.092-.24.137-.506.137-.8 0-.29-.045-.551-.134-.784a1.213 1.213 0 0 0-.4-.555c-.177-.138-.4-.207-.669-.207-.257 0-.474.065-.649.196-.176.129-.308.31-.398.542-.089.231-.134.5-.134.808Zm3.987 2.062V8.472h.634v4.124h-.634Zm.322-4.81a.45.45 0 0 1-.319-.127.405.405 0 0 1-.132-.303c0-.119.044-.22.132-.304a.45.45 0 0 1 .319-.126c.124 0 .229.042.317.126a.403.403 0 0 1 .134.304c0 .118-.045.219-.134.303a.441.441 0 0 1-.317.126Zm4.393 1.61-.569.161a1.06 1.06 0 0 0-.159-.276.769.769 0 0 0-.279-.226 1.011 1.011 0 0 0-.453-.089c-.253 0-.463.059-.631.175-.167.114-.25.26-.25.438a.45.45 0 0 0 .172.373c.114.091.293.167.537.228l.612.15c.369.09.643.227.824.411.181.183.271.418.271.706 0 .236-.068.448-.204.634a1.35 1.35 0 0 1-.564.44 2.055 2.055 0 0 1-.843.161c-.42 0-.768-.091-1.044-.274a1.216 1.216 0 0 1-.524-.8l.602-.15a.831.831 0 0 0 .325.5c.161.11.371.166.631.166.295 0 .529-.063.703-.188.175-.127.263-.28.263-.457a.48.48 0 0 0-.15-.36c-.1-.098-.254-.171-.462-.22l-.687-.16c-.378-.09-.655-.229-.833-.417a1.01 1.01 0 0 1-.263-.711c0-.233.066-.439.196-.618.133-.179.313-.32.54-.421.229-.102.489-.153.779-.153.408 0 .728.09.961.268.234.18.401.415.499.709Zm1.029 3.2V8.472h.634v4.124h-.634Zm.322-4.81a.45.45 0 0 1-.319-.127.405.405 0 0 1-.132-.303c0-.119.044-.22.132-.304a.45.45 0 0 1 .319-.126c.124 0 .229.042.317.126a.403.403 0 0 1 .134.304c0 .118-.045.219-.134.303a.441.441 0 0 1-.317.126Zm3.147 4.896c-.386 0-.719-.091-.998-.274a1.785 1.785 0 0 1-.645-.754 2.56 2.56 0 0 1-.225-1.098c0-.419.077-.789.231-1.109.155-.322.372-.574.649-.754.28-.183.605-.274.978-.274.29 0 .551.053.784.16a1.5 1.5 0 0 1 .571.452c.149.193.241.419.277.676h-.634a.976.976 0 0 0-.322-.499c-.165-.147-.386-.22-.666-.22a1.11 1.11 0 0 0-.649.193 1.257 1.257 0 0 0-.433.54 2 2 0 0 0-.153.813c0 .319.05.596.151.833.102.236.245.42.429.55.186.13.405.196.655.196.165 0 .314-.029.449-.086a.925.925 0 0 0 .539-.634h.634a1.464 1.464 0 0 1-.822 1.12c-.229.113-.495.17-.8.17Zm3.182-5.584v5.498h-.634V7.098h.634Zm2.889 5.584c-.397 0-.74-.088-1.028-.263a1.77 1.77 0 0 1-.663-.741 2.526 2.526 0 0 1-.231-1.112c0-.422.077-.794.231-1.116a1.82 1.82 0 0 1 .65-.757c.279-.183.604-.274.977-.274.215 0 .427.036.636.107.209.072.4.188.572.35.172.158.309.37.411.633.102.263.153.587.153.972v.268h-3.179v-.548h2.534c0-.232-.046-.44-.139-.622a1.057 1.057 0 0 0-.988-.591c-.253 0-.471.063-.655.188a1.238 1.238 0 0 0-.422.483 1.425 1.425 0 0 0-.147.639v.365c0 .312.053.576.161.792.109.215.26.379.453.492.194.11.418.166.674.166.167 0 .317-.023.451-.07a.964.964 0 0 0 .352-.215.986.986 0 0 0 .228-.36l.612.172c-.064.208-.172.39-.325.548-.152.156-.34.277-.563.365a2.096 2.096 0 0 1-.755.13Zm3.885.01c-.261 0-.498-.048-.711-.147a1.22 1.22 0 0 1-.508-.432 1.221 1.221 0 0 1-.188-.687c0-.237.047-.428.14-.575a.983.983 0 0 1 .373-.349c.156-.084.328-.147.515-.188.19-.043.381-.077.572-.102.251-.032.454-.056.61-.072a.933.933 0 0 0 .343-.089c.074-.041.11-.113.11-.215v-.021c0-.265-.072-.47-.217-.618-.143-.146-.361-.22-.652-.22-.303 0-.54.066-.712.199a1.173 1.173 0 0 0-.362.424l-.602-.215a1.45 1.45 0 0 1 .43-.585c.181-.141.378-.24.591-.295.214-.058.426-.086.633-.086.133 0 .285.016.457.048.173.03.341.094.502.19.162.097.298.243.405.438.107.195.161.457.161.784v2.717h-.634v-.558h-.032c-.043.09-.114.185-.214.287a1.246 1.246 0 0 1-.401.26 1.539 1.539 0 0 1-.609.108Zm.097-.568c.25 0 .461-.05.633-.148a.998.998 0 0 0 .526-.873v-.58c-.026.033-.085.062-.177.09a2.977 2.977 0 0 1-.311.066 13.808 13.808 0 0 1-.607.08 2.435 2.435 0 0 0-.462.105.793.793 0 0 0-.343.213.54.54 0 0 0-.129.38c0 .221.081.387.244.5.165.111.373.167.626.167Zm3.583-2.008v2.48h-.633V8.472h.612v.645h.053a1.18 1.18 0 0 1 .441-.505c.197-.129.451-.193.762-.193.279 0 .524.057.733.172.209.112.372.284.489.515.116.23.174.52.174.87v2.62h-.633V10.02c0-.324-.085-.576-.253-.757-.168-.183-.399-.274-.692-.274-.203 0-.383.044-.543.131a.942.942 0 0 0-.373.384 1.271 1.271 0 0 0-.137.613Zm3.789 2.48V8.472h.634v4.124h-.634Zm.322-4.81a.45.45 0 0 1-.319-.127.405.405 0 0 1-.132-.303c0-.119.044-.22.132-.304a.45.45 0 0 1 .319-.126c.124 0 .229.042.317.126a.403.403 0 0 1 .134.304c0 .118-.045.219-.134.303a.441.441 0 0 1-.317.126Zm2.106 2.33v2.48h-.634V8.472h.612v.645h.054c.097-.21.243-.378.44-.505.197-.129.451-.193.763-.193.279 0 .523.057.733.172.209.112.372.284.488.515.117.23.175.52.175.87v2.62h-.634V10.02c0-.324-.084-.576-.252-.757-.168-.183-.399-.274-.693-.274-.202 0-.383.044-.542.131a.936.936 0 0 0-.373.384 1.26 1.26 0 0 0-.137.613Zm5.453 4.113c-.306 0-.569-.04-.789-.119a1.682 1.682 0 0 1-.551-.306 1.674 1.674 0 0 1-.346-.402l.505-.355c.057.075.13.161.217.258.088.098.208.183.36.255.154.073.355.11.604.11.333 0 .608-.08.824-.242.217-.16.325-.413.325-.757v-.837h-.054a3.22 3.22 0 0 1-.198.279c-.084.11-.206.207-.365.293-.158.084-.371.126-.639.126-.333 0-.632-.079-.897-.236a1.66 1.66 0 0 1-.626-.688c-.152-.3-.228-.666-.228-1.095 0-.423.075-.79.223-1.104.149-.315.355-.558.62-.73.265-.173.571-.26.918-.26.269 0 .482.044.639.134.16.088.281.188.366.3.085.112.152.203.198.274h.065v-.655h.612v4.242c0 .355-.081.643-.242.865a1.375 1.375 0 0 1-.644.491 2.436 2.436 0 0 1-.897.159Zm-.021-2.266c.254 0 .469-.059.644-.175.175-.116.309-.284.4-.502.091-.218.137-.48.137-.784 0-.297-.045-.56-.134-.787a1.18 1.18 0 0 0-.398-.534 1.066 1.066 0 0 0-.649-.193c-.269 0-.493.068-.672.204-.177.136-.31.319-.4.548-.087.229-.131.483-.131.762 0 .287.045.54.134.76.091.218.226.39.403.515.179.124.401.186.666.186Zm3.425.676a.466.466 0 0 1-.341-.142.468.468 0 0 1-.142-.341c0-.133.048-.246.142-.341a.466.466 0 0 1 .341-.142c.133 0 .246.047.341.142a.465.465 0 0 1 .143.34.454.454 0 0 1-.068.243.495.495 0 0 1-.174.177.461.461 0 0 1-.242.064Zm1.621 1.504v-5.67h.612v.654h.075c.046-.071.111-.162.193-.273a1.13 1.13 0 0 1 .36-.301c.157-.09.37-.134.639-.134.347 0 .653.087.918.26.265.174.472.42.62.738.149.319.223.695.223 1.128 0 .437-.074.815-.223 1.136a1.754 1.754 0 0 1-.617.74c-.263.174-.567.261-.91.261-.265 0-.477-.044-.637-.131a1.17 1.17 0 0 1-.367-.304 3.886 3.886 0 0 1-.199-.284h-.054v2.18h-.633Zm.622-3.609c0 .312.046.586.137.824.092.237.225.422.4.556.176.133.391.199.645.199.265 0 .486-.07.663-.21.179-.14.313-.33.403-.569a2.24 2.24 0 0 0 .136-.8c0-.29-.044-.551-.134-.784a1.206 1.206 0 0 0-.4-.555c-.177-.138-.4-.207-.668-.207-.258 0-.475.065-.65.196-.175.129-.308.31-.397.542-.09.231-.135.5-.135.808Zm4.618-3.436v5.498h-.633V7.098h.633Z" fill="#000"/><defs><linearGradient id="paint0_linear_542_10460" x1="340" y1="0" x2="340" y2="18.901" gradientUnits="userSpaceOnUse"><stop stop-color="#F4F4F4"/><stop offset="1" stop-color="#E7E7E7"/></linearGradient></defs></svg>