<svg xmlns="http://www.w3.org/2000/svg" width="423" height="309" fill="none"><path fill="#fff" d="M109.404 29.5V13.935h2.445v3.221h-.308c.303-.77.698-1.415 1.186-1.932a4.861 4.861 0 0 1 1.684-1.172 5.124 5.124 0 0 1 2.021-.41c1.201 0 2.216.347 3.046 1.04.839.693 1.361 1.518 1.566 2.474h-.498a5.058 5.058 0 0 1 1.055-1.771 5.271 5.271 0 0 1 1.786-1.274c.703-.313 1.489-.469 2.358-.469.937 0 1.796.205 2.577.615.781.41 1.4 1.03 1.859 1.86.469.83.703 1.879.703 3.148V29.5h-2.504V19.28c0-1.201-.337-2.055-1.01-2.563-.674-.517-1.455-.776-2.343-.776-.752 0-1.401.156-1.947.469a3.227 3.227 0 0 0-1.245 1.288c-.293.537-.439 1.162-.439 1.874V29.5h-2.504V19.016c0-.927-.313-1.67-.937-2.226-.615-.566-1.391-.849-2.328-.849a3.88 3.88 0 0 0-1.831.454 3.502 3.502 0 0 0-1.376 1.347c-.342.595-.513 1.337-.513 2.226V29.5h-2.503Zm25.272 0V13.935h2.504V29.5h-2.504Zm1.245-18.537c-.468 0-.874-.166-1.215-.498a1.685 1.685 0 0 1-.498-1.216c0-.468.166-.868.498-1.2a1.667 1.667 0 0 1 1.2-.498c.479 0 .884.166 1.216.498.341.332.512.737.512 1.215 0 .459-.171.86-.512 1.2a1.637 1.637 0 0 1-1.201.499Zm7.556 9.4V29.5h-2.504V13.935h2.43v3.778h-.659c.508-1.416 1.211-2.446 2.109-3.09.908-.644 1.977-.966 3.207-.966 1.044 0 1.996.23 2.855.688.859.45 1.537 1.127 2.035 2.035.508.908.762 2.05.762 3.427V29.5h-2.504v-9.518c0-1.327-.322-2.333-.967-3.016-.634-.683-1.532-1.025-2.694-1.025-.751 0-1.435.156-2.05.469-.615.302-1.108.78-1.479 1.435-.361.644-.541 1.483-.541 2.518Zm19.972 9.43c-1.337 0-2.514-.337-3.529-1.01-1.015-.684-1.801-1.63-2.357-2.841-.557-1.21-.835-2.616-.835-4.217 0-1.61.278-3.021.835-4.232.556-1.21 1.342-2.152 2.357-2.826 1.015-.673 2.192-1.01 3.529-1.01.722 0 1.386.102 1.991.307a5.13 5.13 0 0 1 1.64.893c.479.391.879.86 1.201 1.406h.044v-8.58h2.504V29.5h-2.445v-2.357h-.059a5.934 5.934 0 0 1-1.259 1.434 5.19 5.19 0 0 1-1.64.908 6.047 6.047 0 0 1-1.977.308Zm.381-2.24c.966 0 1.796-.24 2.489-.718.703-.488 1.245-1.171 1.625-2.05.381-.878.571-1.898.571-3.06 0-1.181-.19-2.206-.571-3.075-.38-.879-.922-1.557-1.625-2.035-.693-.479-1.523-.718-2.489-.718-.898 0-1.694.225-2.387.674-.683.449-1.22 1.108-1.611 1.976-.38.86-.571 1.919-.571 3.178 0 1.24.191 2.294.571 3.163.391.868.928 1.532 1.611 1.991.693.449 1.489.673 2.387.673Zm10.82 1.947V13.935h2.446v3.221h-.308c.303-.77.698-1.415 1.186-1.932a4.861 4.861 0 0 1 1.684-1.172 5.12 5.12 0 0 1 2.021-.41c1.201 0 2.216.347 3.046 1.04.839.693 1.361 1.518 1.566 2.474h-.498a5.058 5.058 0 0 1 1.055-1.771 5.271 5.271 0 0 1 1.786-1.274c.703-.313 1.489-.469 2.358-.469.937 0 1.796.205 2.577.615.781.41 1.4 1.03 1.859 1.86.469.83.703 1.879.703 3.148V29.5h-2.504V19.28c0-1.201-.337-2.055-1.01-2.563-.674-.517-1.455-.776-2.343-.776-.752 0-1.401.156-1.947.469a3.227 3.227 0 0 0-1.245 1.288c-.293.537-.439 1.162-.439 1.874V29.5h-2.504V19.016c0-.927-.313-1.67-.937-2.226-.615-.566-1.391-.849-2.328-.849a3.88 3.88 0 0 0-1.831.454 3.502 3.502 0 0 0-1.376 1.347c-.342.595-.513 1.337-.513 2.226V29.5h-2.504Zm29.974.249c-1.035 0-1.958-.176-2.768-.527a4.506 4.506 0 0 1-1.933-1.596c-.478-.703-.717-1.572-.717-2.607 0-.888.176-1.61.527-2.167a3.65 3.65 0 0 1 1.406-1.317 7.514 7.514 0 0 1 1.977-.733 24.39 24.39 0 0 1 2.269-.395c.986-.137 1.762-.24 2.328-.308.576-.068.986-.18 1.23-.336.244-.156.366-.43.366-.82v-.147c0-.576-.136-1.083-.41-1.523-.263-.439-.649-.78-1.156-1.024-.508-.254-1.128-.381-1.86-.381-.722 0-1.362.122-1.918.366-.547.234-.986.556-1.318.966-.322.4-.513.85-.571 1.347l-2.533-.087c.088-.957.41-1.792.966-2.504.566-.723 1.308-1.284 2.226-1.684.917-.41 1.967-.615 3.148-.615.859 0 1.65.117 2.372.351a5.26 5.26 0 0 1 1.874 1.01c.527.44.933.982 1.216 1.626.292.634.439 1.362.439 2.182V29.5h-2.475v-2.196h-.058c-.186.37-.464.746-.835 1.127-.371.38-.864.698-1.479.952-.615.244-1.386.366-2.313.366Zm.351-2.24c1.015 0 1.84-.181 2.475-.542.644-.371 1.113-.85 1.405-1.435a4.109 4.109 0 0 0 .454-1.889v-1.977c-.097.088-.283.176-.556.264-.264.078-.591.156-.981.234-.381.068-.791.137-1.23.205-.43.068-.854.127-1.274.176a7.995 7.995 0 0 0-1.713.41c-.527.185-.957.454-1.289.805-.332.352-.498.82-.498 1.406 0 .488.132.908.396 1.26.263.35.634.619 1.113.804.478.186 1.044.279 1.698.279Zm10.616 8.112V13.935h2.431v2.328h.058a5.096 5.096 0 0 1 1.215-1.406 5.292 5.292 0 0 1 1.67-.893 6.34 6.34 0 0 1 1.991-.307c1.357 0 2.538.337 3.544 1.01 1.005.674 1.786 1.616 2.342 2.826.567 1.21.85 2.621.85 4.232 0 1.6-.283 3.006-.85 4.217-.556 1.21-1.337 2.157-2.342 2.84-1.006.674-2.187 1.01-3.544 1.01a6.076 6.076 0 0 1-1.962-.307 5.062 5.062 0 0 1-1.611-.907 6.099 6.099 0 0 1-1.244-1.435h-.044v8.478h-2.504Zm6.984-8.069c.918 0 1.718-.224 2.402-.673.683-.459 1.215-1.123 1.596-1.991.39-.87.585-1.923.585-3.163 0-1.26-.195-2.319-.585-3.178-.381-.868-.913-1.527-1.596-1.976-.684-.45-1.484-.674-2.402-.674-.956 0-1.786.24-2.489.718-.703.478-1.244 1.156-1.625 2.035-.371.869-.557 1.894-.557 3.075 0 1.162.186 2.182.557 3.06.381.879.922 1.562 1.625 2.05.703.478 1.533.717 2.489.717Zm15.551 2.3c-1.103 0-2.104-.176-3.002-.528-.898-.36-1.625-.903-2.182-1.625-.556-.732-.873-1.65-.951-2.753l2.459-.073c.108.918.469 1.62 1.084 2.108.615.479 1.459.718 2.533.718 1.084 0 1.938-.225 2.563-.674.624-.458.937-1.03.937-1.713 0-.585-.215-1.054-.645-1.405-.419-.352-.981-.61-1.683-.776l-2.519-.586c-1.445-.342-2.533-.879-3.265-1.61-.732-.733-1.098-1.665-1.098-2.798 0-.878.239-1.66.717-2.342.478-.684 1.142-1.22 1.991-1.611.85-.39 1.831-.586 2.944-.586 1.083 0 2.045.2 2.884.6.849.4 1.523.962 2.021 1.684.507.723.786 1.582.834 2.578l-2.416.073a2.741 2.741 0 0 0-.937-1.977c-.585-.537-1.381-.805-2.386-.805-.947 0-1.709.23-2.285.688-.576.459-.864 1.02-.864 1.684 0 .585.215 1.059.645 1.42.429.352 1.03.62 1.801.805l2.489.586c1.484.352 2.572.879 3.265 1.581.693.703 1.04 1.611 1.04 2.724 0 .957-.264 1.781-.791 2.475-.517.683-1.225 1.21-2.123 1.581-.898.37-1.918.556-3.06.556Zm11.509-22.17V29.5h-2.504V7.683h2.504Zm8.492 22.067c-1.034 0-1.957-.176-2.767-.527a4.5 4.5 0 0 1-1.933-1.596c-.478-.703-.717-1.572-.717-2.607 0-.888.175-1.61.527-2.167a3.648 3.648 0 0 1 1.405-1.317 7.54 7.54 0 0 1 1.977-.733 24.47 24.47 0 0 1 2.27-.395c.986-.137 1.762-.24 2.328-.308.576-.068.986-.18 1.23-.336.244-.156.366-.43.366-.82v-.147c0-.576-.137-1.083-.41-1.523-.264-.439-.649-.78-1.157-1.024-.507-.254-1.127-.381-1.859-.381-.723 0-1.362.122-1.919.366-.546.234-.985.556-1.317.966-.323.4-.513.85-.571 1.347l-2.534-.087c.088-.957.41-1.792.967-2.504.566-.723 1.308-1.284 2.225-1.684.918-.41 1.967-.615 3.149-.615.859 0 1.649.117 2.372.351a5.26 5.26 0 0 1 1.874 1.01c.527.44.932.982 1.215 1.626.293.634.44 1.362.44 2.182V29.5h-2.475v-2.196h-.059c-.185.37-.463.746-.834 1.127-.371.38-.864.698-1.479.952-.615.244-1.386.366-2.314.366Zm.352-2.24c1.015 0 1.84-.181 2.474-.542.645-.371 1.113-.85 1.406-1.435a4.109 4.109 0 0 0 .454-1.889v-1.977c-.098.088-.283.176-.556.264-.264.078-.591.156-.981.234-.381.068-.791.137-1.23.205-.43.068-.855.127-1.274.176a7.99 7.99 0 0 0-1.714.41c-.527.185-.956.454-1.288.805-.332.352-.498.82-.498 1.406 0 .488.132.908.395 1.26.264.35.635.619 1.113.804.479.186 1.045.279 1.699.279Zm17.981 2.284a6.076 6.076 0 0 1-1.962-.308 5.364 5.364 0 0 1-1.655-.907 5.934 5.934 0 0 1-1.259-1.435h-.059V29.5h-2.43V7.683h2.503v8.58h.044a5.013 5.013 0 0 1 1.186-1.406 5.326 5.326 0 0 1 1.655-.893 6.213 6.213 0 0 1 1.977-.307c1.357 0 2.538.337 3.543 1.01 1.006.674 1.787 1.616 2.343 2.826.566 1.21.849 2.621.849 4.232 0 1.6-.283 3.006-.849 4.217-.556 1.21-1.337 2.157-2.343 2.84-1.005.674-2.186 1.01-3.543 1.01Zm-.381-2.24c.918 0 1.718-.225 2.401-.674.684-.459 1.216-1.123 1.596-1.991.391-.87.586-1.923.586-3.163 0-1.26-.195-2.319-.586-3.178-.38-.868-.912-1.527-1.596-1.976-.683-.45-1.483-.674-2.401-.674-.957 0-1.786.24-2.489.718-.703.478-1.245 1.156-1.625 2.035-.371.869-.557 1.894-.557 3.075 0 1.162.186 2.182.557 3.06.38.879.922 1.562 1.625 2.05.703.478 1.532.717 2.489.717Zm11.656 2.196a1.79 1.79 0 0 1-1.318-.542 1.817 1.817 0 0 1-.527-1.318c0-.517.175-.951.527-1.303.361-.361.8-.542 1.318-.542.517 0 .951.181 1.303.542.361.352.541.786.541 1.303 0 .518-.18.957-.541 1.318a1.747 1.747 0 0 1-1.303.542Zm5.315 5.872V13.935h2.43v2.328h.059a5.096 5.096 0 0 1 1.215-1.406 5.281 5.281 0 0 1 1.67-.893 6.34 6.34 0 0 1 1.991-.307c1.357 0 2.538.337 3.543 1.01 1.006.674 1.787 1.616 2.343 2.826.566 1.21.849 2.621.849 4.232 0 1.6-.283 3.006-.849 4.217-.556 1.21-1.337 2.157-2.343 2.84-1.005.674-2.186 1.01-3.543 1.01a6.076 6.076 0 0 1-1.962-.307 5.04 5.04 0 0 1-1.611-.907 6.099 6.099 0 0 1-1.244-1.435h-.044v8.478h-2.504Zm6.984-8.069c.918 0 1.718-.224 2.402-.673.683-.459 1.215-1.123 1.596-1.991.39-.87.585-1.923.585-3.163 0-1.26-.195-2.319-.585-3.178-.381-.868-.913-1.527-1.596-1.976-.684-.45-1.484-.674-2.402-.674-.956 0-1.786.24-2.489.718-.703.478-1.245 1.156-1.625 2.035-.371.869-.557 1.894-.557 3.075 0 1.162.186 2.182.557 3.06.38.879.922 1.562 1.625 2.05.703.478 1.533.717 2.489.717Zm12.651-19.87V29.5h-2.504V7.683h2.504Z"/><path fill="#fff" d="M118.297 50.313V55.5h-1.399V43.86h1.399v5.062h-.258c.266-.797.643-1.365 1.133-1.703.495-.344 1.07-.516 1.726-.516.589 0 1.105.122 1.547.367.448.24.797.605 1.047 1.094.25.484.375 1.096.375 1.836v5.5h-1.398v-5.383c0-.677-.177-1.203-.531-1.578-.349-.38-.829-.57-1.438-.57-.417 0-.792.09-1.125.273-.333.177-.596.44-.789.79-.193.348-.289.775-.289 1.28Zm10.961 5.304c-.584 0-1.099-.12-1.547-.36a2.58 2.58 0 0 1-1.047-1.1c-.25-.49-.375-1.102-.375-1.837v-5.5h1.399v5.383c0 .677.177 1.206.531 1.586.354.375.836.563 1.445.563.417 0 .789-.089 1.117-.266a1.96 1.96 0 0 0 .789-.797c.193-.354.289-.781.289-1.281V46.82h1.399v8.68h-1.352v-2.102h.211c-.271.808-.653 1.38-1.148 1.72-.495.332-1.065.5-1.711.5Zm10.469.07c-.532 0-.967-.09-1.305-.273a2.625 2.625 0 0 1-.797-.625 6.423 6.423 0 0 1-.445-.633h-.141V55.5h-1.359V43.86h1.398v4.335h.102a7.19 7.19 0 0 1 .437-.601c.188-.235.448-.44.781-.617.334-.183.774-.274 1.321-.274.724 0 1.362.182 1.914.547.557.365.992.883 1.305 1.555.312.672.468 1.463.468 2.375 0 .916-.156 1.713-.468 2.39-.308.672-.74 1.193-1.297 1.563-.552.37-1.19.554-1.914.554Zm-.211-1.257c.536 0 .987-.144 1.351-.43.37-.286.649-.675.836-1.164.188-.495.281-1.052.281-1.672 0-.61-.093-1.156-.281-1.64-.182-.485-.458-.868-.828-1.149-.365-.281-.818-.422-1.359-.422-.537 0-.987.136-1.352.406-.365.271-.641.646-.828 1.125-.188.48-.281 1.04-.281 1.68 0 .646.093 1.214.281 1.703.193.49.471.873.836 1.149.37.276.818.414 1.344.414Zm14.351-7.61v1.196h-5.07V46.82h5.07Zm-3.375 8.68v-9.875c0-.495.115-.909.344-1.242.229-.334.531-.584.906-.75a2.837 2.837 0 0 1 1.196-.258c.317 0 .583.023.796.07.214.047.37.091.469.133l-.351 1.203a1.97 1.97 0 0 0-.29-.078 1.865 1.865 0 0 0-.46-.047c-.422 0-.73.107-.922.32-.193.214-.289.53-.289.946V55.5h-1.399Zm8.274.188c-.787 0-1.477-.188-2.071-.563a3.817 3.817 0 0 1-1.39-1.57c-.334-.672-.5-1.453-.5-2.344 0-.906.166-1.695.5-2.367.333-.677.797-1.203 1.39-1.578.594-.375 1.284-.563 2.071-.563.796 0 1.492.188 2.086.563.599.375 1.062.9 1.39 1.578.334.672.5 1.46.5 2.367 0 .89-.166 1.672-.5 2.344a3.742 3.742 0 0 1-1.39 1.57c-.594.375-1.29.563-2.086.563Zm0-1.25c.583 0 1.062-.149 1.437-.446.38-.297.662-.69.844-1.18.187-.49.281-1.023.281-1.601a4.54 4.54 0 0 0-.281-1.617 2.614 2.614 0 0 0-.844-1.188c-.375-.302-.854-.453-1.437-.453-.573 0-1.047.151-1.422.453a2.698 2.698 0 0 0-.844 1.188 4.608 4.608 0 0 0-.273 1.617c0 .578.091 1.112.273 1.602.188.49.469.882.844 1.18.375.296.849.444 1.422.444Zm5.961 1.062v-8.68h1.351v1.336h.086c.162-.437.443-.789.844-1.054.406-.271.87-.407 1.39-.407a11.496 11.496 0 0 1 .696.023v1.407a3.743 3.743 0 0 0-.313-.047 4.1 4.1 0 0 0-.523-.031c-.406 0-.771.086-1.094.258a1.904 1.904 0 0 0-.766.71 2.02 2.02 0 0 0-.273 1.063V55.5h-1.398Zm10.39 3.266V46.82h1.36v1.375h.14a5.33 5.33 0 0 1 .438-.601c.187-.235.448-.44.781-.617.333-.183.773-.274 1.32-.274.724 0 1.362.182 1.914.547.558.365.992.883 1.305 1.555.313.672.469 1.463.469 2.375 0 .916-.156 1.713-.469 2.39-.307.672-.74 1.193-1.297 1.563-.552.37-1.19.554-1.914.554-.531 0-.966-.09-1.305-.273a2.66 2.66 0 0 1-.789-.625 6.015 6.015 0 0 1-.453-.633h-.101v4.61h-1.399Zm3.836-4.336c.537 0 .987-.144 1.352-.43.369-.286.648-.675.836-1.164a4.7 4.7 0 0 0 .281-1.672 4.52 4.52 0 0 0-.281-1.64c-.183-.485-.459-.868-.829-1.149-.364-.281-.817-.422-1.359-.422-.536 0-.987.136-1.351.406-.365.271-.641.646-.829 1.125-.187.48-.281 1.04-.281 1.68 0 .646.094 1.214.281 1.703.193.49.472.873.836 1.149.37.276.818.414 1.344.414Zm5.883 1.07v-8.68h1.352v1.336h.085c.162-.437.443-.789.844-1.054.406-.271.87-.407 1.391-.407a11.312 11.312 0 0 1 .695.023v1.407a3.765 3.765 0 0 0-.312-.047 4.116 4.116 0 0 0-.524-.031c-.406 0-.771.086-1.094.258a1.902 1.902 0 0 0-.765.71 2.02 2.02 0 0 0-.274 1.063V55.5h-1.398Zm9.226.188c-.786 0-1.476-.188-2.07-.563a3.81 3.81 0 0 1-1.39-1.57c-.334-.672-.5-1.453-.5-2.344 0-.906.166-1.695.5-2.367.333-.677.796-1.203 1.39-1.578.594-.375 1.284-.563 2.07-.563.797 0 1.493.188 2.086.563a3.735 3.735 0 0 1 1.391 1.578c.333.672.5 1.46.5 2.367 0 .89-.167 1.672-.5 2.344a3.744 3.744 0 0 1-1.391 1.57c-.593.375-1.289.563-2.086.563Zm0-1.25c.584 0 1.063-.149 1.438-.446.38-.297.661-.69.844-1.18.187-.49.281-1.023.281-1.601a4.54 4.54 0 0 0-.281-1.617 2.621 2.621 0 0 0-.844-1.188c-.375-.302-.854-.453-1.438-.453-.572 0-1.046.151-1.421.453a2.69 2.69 0 0 0-.844 1.188 4.608 4.608 0 0 0-.274 1.617c0 .578.092 1.112.274 1.602a2.7 2.7 0 0 0 .844 1.18c.375.296.849.444 1.421.444Zm9.227 1.25c-.724 0-1.365-.185-1.922-.555-.552-.37-.984-.89-1.297-1.563-.312-.677-.468-1.474-.468-2.39 0-.912.156-1.703.468-2.375.318-.672.753-1.19 1.305-1.555.557-.365 1.198-.547 1.922-.547.542 0 .979.091 1.312.274.334.177.594.382.782.617.192.229.338.43.437.601h.102V43.86h1.398V55.5h-1.351v-1.344h-.141a4.65 4.65 0 0 1-.453.633 2.66 2.66 0 0 1-.789.625c-.334.182-.768.273-1.305.273Zm.211-1.258c.526 0 .971-.138 1.336-.414.37-.276.648-.66.836-1.149.187-.49.281-1.057.281-1.703 0-.64-.094-1.2-.281-1.68-.182-.479-.458-.854-.828-1.125-.365-.27-.813-.406-1.344-.406-.547 0-1.005.14-1.375.422-.365.281-.641.664-.828 1.148a4.639 4.639 0 0 0-.274 1.641c0 .62.094 1.177.282 1.672.187.49.466.878.836 1.164.369.286.823.43 1.359.43Zm9.211 1.187c-.583 0-1.099-.12-1.547-.36a2.58 2.58 0 0 1-1.047-1.1c-.25-.49-.375-1.102-.375-1.837v-5.5h1.399v5.383c0 .677.177 1.206.531 1.586.354.375.836.563 1.445.563.417 0 .789-.089 1.117-.266a1.96 1.96 0 0 0 .789-.797c.193-.354.289-.781.289-1.281V46.82h1.399v8.68h-1.352v-2.102h.211c-.271.808-.653 1.38-1.148 1.72-.495.332-1.065.5-1.711.5Zm9.961.07c-.787 0-1.477-.187-2.07-.562a3.812 3.812 0 0 1-1.391-1.57c-.333-.672-.5-1.453-.5-2.344 0-.906.167-1.695.5-2.367.333-.677.797-1.203 1.391-1.578.593-.375 1.283-.563 2.07-.563.427 0 .828.057 1.203.172.38.11.724.27 1.031.484.313.209.578.466.797.774.224.307.391.65.5 1.031l-1.344.344a1.987 1.987 0 0 0-.289-.625 2.005 2.005 0 0 0-.468-.492 1.973 1.973 0 0 0-.633-.32 2.562 2.562 0 0 0-.797-.118c-.573 0-1.047.151-1.422.453a2.698 2.698 0 0 0-.844 1.188 4.608 4.608 0 0 0-.273 1.617c0 .578.091 1.112.273 1.602.188.49.469.882.844 1.18.375.296.849.444 1.422.444.297 0 .565-.039.805-.117a2.16 2.16 0 0 0 .648-.328c.187-.146.346-.317.477-.515a2.34 2.34 0 0 0 .289-.657l1.343.336a3.32 3.32 0 0 1-.5 1.063 3.396 3.396 0 0 1-.796.797 3.611 3.611 0 0 1-1.047.5 4.21 4.21 0 0 1-1.219.172Zm8.984-8.867v1.196h-4.515V46.82h4.515Zm-3.179-2.101h1.398v8.547c0 .38.076.659.227.836.156.171.419.257.789.257.088 0 .2-.007.336-.023.14-.02.268-.042.382-.063l.258 1.188c-.14.047-.302.08-.484.102a4.75 4.75 0 0 1-.539.03c-.75 0-1.334-.192-1.75-.577-.412-.391-.617-.938-.617-1.641v-8.656Zm7.726 10.968c-.599 0-1.133-.088-1.601-.265a2.817 2.817 0 0 1-1.149-.79c-.302-.348-.502-.778-.601-1.288l1.336-.282c.114.48.343.834.687 1.063.349.224.786.336 1.313.336.604 0 1.085-.128 1.445-.383.359-.26.539-.57.539-.93a.98.98 0 0 0-.32-.75c-.214-.203-.534-.351-.961-.445l-1.438-.344c-.786-.187-1.375-.476-1.765-.867-.386-.396-.579-.898-.579-1.508 0-.5.138-.94.414-1.32.282-.38.665-.677 1.149-.89.484-.214 1.034-.32 1.648-.32.594 0 1.102.09 1.524.273.427.182.771.437 1.031.765.266.323.458.698.578 1.125l-1.281.29c-.104-.329-.3-.62-.586-.876-.281-.26-.701-.39-1.258-.39-.521 0-.953.12-1.297.359-.338.24-.508.542-.508.906 0 .323.118.584.352.782.234.192.599.346 1.094.46l1.32.313c.792.187 1.378.477 1.758.867.38.39.57.886.57 1.484 0 .51-.143.964-.429 1.36-.287.396-.688.706-1.204.93-.515.224-1.109.336-1.781.336Zm12.305.008a3.623 3.623 0 0 1-1.5-.304 2.556 2.556 0 0 1-1.07-.907c-.261-.4-.391-.885-.391-1.453 0-.5.096-.903.289-1.21.198-.313.461-.558.789-.735a4.024 4.024 0 0 1 1.094-.406c.401-.089.804-.16 1.211-.211.521-.068.942-.12 1.265-.157.328-.036.571-.098.727-.187.156-.089.234-.24.234-.453v-.047c0-.36-.067-.664-.203-.914a1.357 1.357 0 0 0-.617-.578c-.271-.136-.607-.203-1.008-.203-.411 0-.766.065-1.062.195a2.21 2.21 0 0 0-.727.492 1.974 1.974 0 0 0-.398.617l-1.352-.398c.203-.526.49-.943.859-1.25.37-.313.784-.536 1.243-.672.463-.14.929-.21 1.398-.21.313 0 .656.038 1.031.116.375.078.732.224 1.071.438.338.208.617.513.836.914.218.4.328.927.328 1.578v5.75h-1.375v-1.188h-.094a2.377 2.377 0 0 1-.469.626 2.584 2.584 0 0 1-.844.539c-.343.145-.765.218-1.265.218Zm.242-1.234c.521 0 .958-.102 1.312-.305.36-.203.631-.466.813-.789.187-.323.281-.664.281-1.023v-1.188c-.057.068-.179.128-.367.18a6.565 6.565 0 0 1-.648.14c-.24.042-.477.079-.711.11-.229.026-.417.05-.563.07a4.557 4.557 0 0 0-.945.219 1.652 1.652 0 0 0-.703.438c-.177.192-.266.455-.266.789 0 .296.076.546.227.75.156.198.369.349.64.453.271.104.581.156.93.156Zm7.609-4.148V55.5h-1.398v-8.68h1.351l.008 2.102h-.218c.265-.797.643-1.365 1.132-1.703.495-.344 1.071-.516 1.727-.516.588 0 1.104.122 1.547.367.443.24.789.605 1.039 1.094.255.484.383 1.096.383 1.836v5.5h-1.399v-5.383c0-.677-.177-1.203-.531-1.578-.349-.38-.828-.57-1.438-.57-.416 0-.791.09-1.124.273a1.92 1.92 0 0 0-.79.79c-.192.348-.289.775-.289 1.28Zm11.243 5.374c-.724 0-1.365-.184-1.922-.554-.552-.37-.985-.89-1.297-1.563-.313-.677-.469-1.474-.469-2.39 0-.912.156-1.703.469-2.375.318-.672.752-1.19 1.305-1.555.557-.365 1.197-.547 1.921-.547.542 0 .98.091 1.313.274.333.177.594.382.781.617.193.229.339.43.438.601h.101V43.86h1.399V55.5h-1.352v-1.344h-.141a4.65 4.65 0 0 1-.453.633 2.635 2.635 0 0 1-.789.625c-.333.182-.768.273-1.304.273Zm.21-1.257c.527 0 .972-.138 1.336-.414.37-.276.649-.66.836-1.149.188-.49.282-1.057.282-1.703 0-.64-.094-1.2-.282-1.68-.182-.479-.458-.854-.828-1.125-.364-.27-.812-.406-1.344-.406-.546 0-1.005.14-1.374.422-.365.281-.641.664-.829 1.148a4.639 4.639 0 0 0-.273 1.641 4.7 4.7 0 0 0 .281 1.672c.188.49.466.878.836 1.164.37.286.823.43 1.359.43Zm14.711-7.61v1.196h-5.07V46.82h5.07Zm-3.375 8.68v-9.875c0-.495.115-.909.344-1.242.229-.334.531-.584.906-.75a2.837 2.837 0 0 1 1.196-.258 3.8 3.8 0 0 1 .797.07c.213.047.369.091.468.133l-.351 1.203a1.986 1.986 0 0 0-.289-.078 1.88 1.88 0 0 0-.461-.047c-.422 0-.729.107-.922.32-.193.214-.289.53-.289.946V55.5h-1.399Zm5.172 0v-8.68h1.352v1.336h.086c.161-.437.443-.789.844-1.054a2.446 2.446 0 0 1 1.39-.407 11.602 11.602 0 0 1 .696.023v1.407a3.743 3.743 0 0 0-.313-.047 4.1 4.1 0 0 0-.523-.031 2.29 2.29 0 0 0-1.094.258 1.904 1.904 0 0 0-.766.71 2.02 2.02 0 0 0-.273 1.063V55.5h-1.399Zm9.336.188c-.844 0-1.57-.188-2.179-.563a3.732 3.732 0 0 1-1.399-1.563c-.328-.671-.492-1.45-.492-2.335 0-.891.161-1.675.484-2.352.323-.682.779-1.214 1.368-1.594.588-.385 1.276-.578 2.062-.578.474 0 .935.08 1.383.242.453.157.862.41 1.226.758.365.344.654.794.868 1.352.213.552.32 1.221.32 2.008v.562h-6.781v-1.18h6.023l-.648.43c0-.573-.092-1.078-.274-1.516a2.307 2.307 0 0 0-.805-1.039c-.354-.25-.791-.375-1.312-.375-.526 0-.977.128-1.352.383a2.514 2.514 0 0 0-.851 1.008 3.04 3.04 0 0 0-.297 1.336v.766c0 .64.109 1.184.328 1.632.224.448.534.79.93 1.024.401.234.87.351 1.406.351.349 0 .664-.05.945-.148.282-.104.524-.258.727-.461a1.96 1.96 0 0 0 .461-.75l1.359.336a2.79 2.79 0 0 1-.687 1.18 3.378 3.378 0 0 1-1.203.796c-.474.193-1.011.29-1.61.29Zm9.25 0c-.844 0-1.57-.188-2.179-.563a3.732 3.732 0 0 1-1.399-1.563c-.328-.671-.492-1.45-.492-2.335 0-.891.161-1.675.484-2.352.323-.682.779-1.214 1.368-1.594.588-.385 1.276-.578 2.062-.578.474 0 .935.08 1.383.242.453.157.862.41 1.226.758.365.344.654.794.868 1.352.213.552.32 1.221.32 2.008v.562h-6.781v-1.18h6.023l-.648.43c0-.573-.092-1.078-.274-1.516a2.307 2.307 0 0 0-.805-1.039c-.354-.25-.791-.375-1.312-.375-.526 0-.977.128-1.352.383a2.514 2.514 0 0 0-.851 1.008 3.04 3.04 0 0 0-.297 1.336v.766c0 .64.109 1.184.328 1.632.224.448.534.79.93 1.024.401.234.87.351 1.406.351.349 0 .664-.05.945-.148.282-.104.524-.258.727-.461a1.96 1.96 0 0 0 .461-.75l1.359.336a2.79 2.79 0 0 1-.687 1.18 3.378 3.378 0 0 1-1.203.796c-.474.193-1.011.29-1.61.29ZM139.008 74.5v-8.68h1.359l.008 1.922h-.109c.119-.463.31-.849.57-1.156.26-.307.562-.537.906-.688a2.578 2.578 0 0 1 1.078-.234c.641 0 1.159.195 1.555.586.401.385.659.888.773 1.508h-.195c.104-.427.292-.797.563-1.11a2.842 2.842 0 0 1 1-.726 3.14 3.14 0 0 1 1.281-.258c.505 0 .966.11 1.383.328a2.4 2.4 0 0 1 .992.992c.25.443.375 1.003.375 1.68V74.5h-1.406v-5.805c0-.63-.177-1.08-.532-1.351a1.94 1.94 0 0 0-1.226-.406c-.391 0-.729.083-1.016.25a1.683 1.683 0 0 0-.664.671 2.08 2.08 0 0 0-.226.985V74.5h-1.399v-5.945c0-.485-.161-.875-.484-1.172-.323-.297-.732-.445-1.227-.445-.338 0-.659.08-.961.242-.297.156-.539.39-.726.703-.183.312-.274.703-.274 1.172V74.5h-1.398Zm16.406.195a3.623 3.623 0 0 1-1.5-.304 2.556 2.556 0 0 1-1.07-.907c-.261-.4-.391-.885-.391-1.453 0-.5.096-.903.289-1.21.198-.313.461-.558.789-.735a4.024 4.024 0 0 1 1.094-.406 13.65 13.65 0 0 1 1.211-.211c.521-.068.943-.12 1.266-.156.328-.037.57-.1.726-.188.156-.088.234-.24.234-.453v-.047c0-.36-.067-.664-.203-.914a1.357 1.357 0 0 0-.617-.578c-.271-.136-.607-.203-1.008-.203-.411 0-.765.065-1.062.195a2.21 2.21 0 0 0-.727.492 1.974 1.974 0 0 0-.398.617l-1.352-.398c.203-.526.49-.943.86-1.25a3.392 3.392 0 0 1 1.242-.672 4.79 4.79 0 0 1 1.398-.21c.313 0 .657.038 1.032.116a3.22 3.22 0 0 1 1.07.438c.338.208.617.513.836.914.219.4.328.927.328 1.578v5.75h-1.375v-1.188h-.094a2.377 2.377 0 0 1-.469.626 2.579 2.579 0 0 1-.843.539c-.344.145-.766.218-1.266.218Zm.242-1.234c.521 0 .959-.102 1.313-.305a2.08 2.08 0 0 0 .812-.789c.188-.323.281-.664.281-1.023v-1.188c-.057.068-.179.128-.367.18a6.502 6.502 0 0 1-.648.14c-.24.042-.477.079-.711.11-.229.026-.417.05-.563.07a4.557 4.557 0 0 0-.945.219 1.652 1.652 0 0 0-.703.438c-.177.192-.266.455-.266.789 0 .296.076.546.227.75.156.197.37.349.641.453.27.104.58.156.929.156Zm6.211 1.039v-8.68h1.352v1.336h.086c.161-.437.442-.789.843-1.054.407-.271.87-.407 1.391-.407a11.312 11.312 0 0 1 .695.023v1.407a3.62 3.62 0 0 0-.312-.047 4.116 4.116 0 0 0-.524-.031c-.406 0-.77.086-1.093.258a1.904 1.904 0 0 0-.766.71 2.02 2.02 0 0 0-.273 1.063V74.5h-1.399Zm7.453-3.125v-1.719h.242l3.75-3.836h1.735l-4.031 4.118h-.157l-1.539 1.437Zm-1.312 3.125V62.86h1.398V74.5h-1.398Zm5.523 0-3.343-4.25.992-.984 4.14 5.234h-1.789Zm6.485.188c-.844 0-1.571-.188-2.18-.563a3.736 3.736 0 0 1-1.398-1.563c-.329-.671-.493-1.45-.493-2.335 0-.891.162-1.675.485-2.352.323-.682.778-1.213 1.367-1.594.588-.385 1.276-.578 2.062-.578.474 0 .935.08 1.383.242.453.157.862.41 1.227.758.364.344.653.794.867 1.352.213.552.32 1.221.32 2.007v.563h-6.781v-1.18h6.023l-.648.43c0-.573-.091-1.078-.273-1.516a2.32 2.32 0 0 0-.805-1.039c-.354-.25-.792-.375-1.313-.375-.526 0-.976.128-1.351.383-.37.255-.654.591-.852 1.008a3.04 3.04 0 0 0-.297 1.336v.766c0 .64.11 1.184.329 1.632.223.448.533.79.929 1.024.401.234.87.351 1.406.351.349 0 .665-.05.946-.148a1.99 1.99 0 0 0 .726-.461 1.96 1.96 0 0 0 .461-.75l1.36.336c-.131.448-.36.841-.688 1.18a3.378 3.378 0 0 1-1.203.796c-.474.193-1.01.29-1.609.29Zm9.062-8.868v1.196h-4.516V65.82h4.516Zm-3.18-2.101h1.399v8.547c0 .38.075.658.226.836.157.171.42.257.789.257.089 0 .201-.007.336-.023a9.33 9.33 0 0 0 .383-.063l.258 1.188a2.4 2.4 0 0 1-.484.102 4.95 4.95 0 0 1-.539.03c-.75 0-1.334-.192-1.75-.577-.412-.391-.618-.938-.618-1.641v-8.656ZM190.82 74.5v-8.68h1.399v8.68h-1.399Zm.711-10.133a.98.98 0 0 1-.687-.265.882.882 0 0 1-.282-.657c0-.26.094-.479.282-.656a.965.965 0 0 1 .687-.273c.271 0 .5.09.688.273a.858.858 0 0 1 .289.656.874.874 0 0 1-.289.657.966.966 0 0 1-.688.265Zm4.5 4.945V74.5h-1.398v-8.68h1.351l.008 2.102h-.219c.266-.797.644-1.365 1.133-1.703.495-.344 1.071-.516 1.727-.516.588 0 1.104.123 1.547.367.442.24.789.605 1.039 1.094.255.484.383 1.096.383 1.836v5.5h-1.399v-5.383c0-.677-.177-1.203-.531-1.578-.349-.38-.828-.57-1.438-.57a2.31 2.31 0 0 0-1.125.273c-.333.177-.596.44-.789.79-.192.348-.289.775-.289 1.28Zm11.508 8.633c-.641 0-1.198-.083-1.672-.25a3.37 3.37 0 0 1-1.179-.68 3.196 3.196 0 0 1-.727-.93l1.164-.655c.12.182.273.375.461.578.187.203.437.372.75.508.312.14.713.21 1.203.21.703 0 1.276-.169 1.719-.507.448-.339.672-.867.672-1.586v-1.695h-.118a4.86 4.86 0 0 1-.453.617c-.187.224-.448.419-.781.586-.333.166-.771.25-1.312.25a3.596 3.596 0 0 1-1.883-.5c-.557-.334-.998-.818-1.321-1.454-.317-.635-.476-1.406-.476-2.312 0-.896.159-1.674.476-2.336.318-.661.756-1.174 1.313-1.539.557-.365 1.195-.547 1.914-.547.542 0 .979.089 1.313.266.338.177.604.383.796.617.193.234.342.44.446.617h.125V65.82h1.359v8.883c0 .755-.169 1.373-.508 1.852a2.94 2.94 0 0 1-1.367 1.054c-.573.224-1.211.336-1.914.336Zm-.047-4.797c.531 0 .979-.122 1.344-.367.365-.245.641-.594.828-1.047.193-.458.289-1.005.289-1.64 0-.62-.094-1.164-.281-1.633-.188-.469-.464-.836-.828-1.102-.365-.27-.815-.406-1.352-.406-.541 0-.997.14-1.367.422-.37.276-.648.651-.836 1.125-.187.469-.281 1-.281 1.594 0 .61.094 1.143.281 1.601.193.459.474.815.844 1.07.37.256.823.383 1.359.383Zm10.703 1.352v-8.68h1.36l.007 1.922h-.109c.12-.463.31-.849.57-1.156.261-.307.563-.537.907-.688a2.574 2.574 0 0 1 1.078-.234c.64 0 1.159.195 1.554.586.402.385.659.888.774 1.508h-.195a2.61 2.61 0 0 1 .562-1.11 2.842 2.842 0 0 1 1-.726 3.148 3.148 0 0 1 1.281-.258c.506 0 .967.11 1.383.328.417.219.748.55.992.992.25.443.375 1.003.375 1.68V74.5h-1.406v-5.805c0-.63-.177-1.08-.531-1.351a1.943 1.943 0 0 0-1.227-.406c-.39 0-.729.083-1.015.25a1.677 1.677 0 0 0-.664.671 2.08 2.08 0 0 0-.227.985V74.5h-1.398v-5.945c0-.485-.162-.875-.485-1.172-.323-.297-.732-.445-1.226-.445-.339 0-.659.08-.961.242-.297.156-.539.39-.727.703-.182.312-.273.703-.273 1.172V74.5h-1.399Zm16.407.195a3.623 3.623 0 0 1-1.5-.304 2.565 2.565 0 0 1-1.071-.907c-.26-.4-.39-.885-.39-1.453 0-.5.096-.903.289-1.21.198-.313.461-.558.789-.735a4.017 4.017 0 0 1 1.093-.406c.402-.089.805-.16 1.211-.211.521-.068.943-.12 1.266-.156.328-.037.57-.1.727-.188.156-.088.234-.24.234-.453v-.047c0-.36-.068-.664-.203-.914a1.362 1.362 0 0 0-.617-.578c-.271-.136-.607-.203-1.008-.203-.412 0-.766.065-1.063.195a2.19 2.19 0 0 0-.726.492 1.996 1.996 0 0 0-.399.617l-1.351-.398c.203-.526.489-.943.859-1.25a3.4 3.4 0 0 1 1.242-.672c.464-.14.93-.21 1.399-.21.312 0 .656.038 1.031.116.375.078.732.224 1.07.438.339.208.618.513.836.914.219.4.328.927.328 1.578v5.75h-1.375v-1.188h-.093a2.4 2.4 0 0 1-.469.626 2.595 2.595 0 0 1-.844.539c-.344.145-.765.218-1.265.218Zm.242-1.234c.521 0 .958-.102 1.312-.305.36-.203.63-.466.813-.789.187-.323.281-.664.281-1.023v-1.188c-.057.068-.18.128-.367.18a6.59 6.59 0 0 1-.649.14 16.82 16.82 0 0 1-.711.11c-.229.026-.416.05-.562.07a4.542 4.542 0 0 0-.945.219 1.662 1.662 0 0 0-.704.438c-.177.192-.265.455-.265.789 0 .296.075.546.226.75.157.197.37.349.641.453.271.104.581.156.93.156Zm9.672-7.64v1.195H240V65.82h4.516Zm-3.18-2.102h1.398v8.547c0 .38.076.658.227.836.156.171.419.257.789.257.089 0 .201-.007.336-.023.141-.02.268-.042.383-.063l.258 1.188a2.41 2.41 0 0 1-.485.102 4.75 4.75 0 0 1-.539.03c-.75 0-1.333-.192-1.75-.577-.411-.391-.617-.938-.617-1.641v-8.656Zm8.414 10.968c-.844 0-1.57-.187-2.18-.562a3.736 3.736 0 0 1-1.398-1.563c-.328-.671-.492-1.45-.492-2.335 0-.891.161-1.675.484-2.352.323-.682.779-1.213 1.367-1.594.589-.385 1.276-.578 2.063-.578.474 0 .935.08 1.383.242.453.157.862.41 1.226.758.365.344.654.794.867 1.352.214.552.321 1.221.321 2.007v.563h-6.782v-1.18h6.024l-.649.43c0-.573-.091-1.078-.273-1.516a2.314 2.314 0 0 0-.805-1.039c-.354-.25-.791-.375-1.312-.375-.526 0-.977.128-1.352.383-.37.255-.653.591-.851 1.008a3.04 3.04 0 0 0-.297 1.336v.766c0 .64.109 1.184.328 1.632.224.448.534.79.93 1.024.401.234.869.351 1.406.351.349 0 .664-.05.945-.148.281-.104.524-.258.727-.461a1.97 1.97 0 0 0 .461-.75l1.359.336c-.13.448-.359.841-.688 1.18a3.36 3.36 0 0 1-1.203.796c-.474.193-1.01.29-1.609.29Zm5.602-.187v-8.68h1.351v1.336h.086c.162-.437.443-.789.844-1.054.406-.271.87-.407 1.39-.407a11.496 11.496 0 0 1 .696.023v1.407a3.743 3.743 0 0 0-.313-.047 4.1 4.1 0 0 0-.523-.031c-.406 0-.771.086-1.094.258a1.904 1.904 0 0 0-.766.71 2.02 2.02 0 0 0-.273 1.063V74.5h-1.398Zm6.156 0v-8.68h1.398v8.68h-1.398Zm.711-10.133a.983.983 0 0 1-.688-.265.885.885 0 0 1-.281-.657c0-.26.094-.479.281-.656a.967.967 0 0 1 .688-.273c.271 0 .5.09.687.273a.855.855 0 0 1 .289.656.87.87 0 0 1-.289.657.962.962 0 0 1-.687.265Zm5.554 10.328a3.63 3.63 0 0 1-1.5-.304 2.569 2.569 0 0 1-1.07-.907c-.26-.4-.391-.885-.391-1.453 0-.5.097-.903.29-1.21.197-.313.46-.558.789-.735a4.017 4.017 0 0 1 1.093-.406 13.65 13.65 0 0 1 1.211-.211c.521-.068.943-.12 1.266-.156.328-.037.57-.1.727-.188.156-.088.234-.24.234-.453v-.047c0-.36-.068-.664-.203-.914a1.362 1.362 0 0 0-.617-.578c-.271-.136-.607-.203-1.008-.203-.412 0-.766.065-1.063.195a2.19 2.19 0 0 0-.726.492 1.978 1.978 0 0 0-.399.617l-1.351-.398c.203-.526.489-.943.859-1.25a3.4 3.4 0 0 1 1.242-.672c.464-.14.93-.21 1.399-.21.312 0 .656.038 1.031.116.375.078.732.224 1.07.438.339.208.617.513.836.914.219.4.328.927.328 1.578v5.75h-1.375v-1.188h-.093a2.4 2.4 0 0 1-.469.626 2.595 2.595 0 0 1-.844.539c-.344.145-.766.218-1.266.218Zm.243-1.234c.52 0 .958-.102 1.312-.305.36-.203.63-.466.813-.789.187-.323.281-.664.281-1.023v-1.188c-.057.068-.18.128-.367.18a6.59 6.59 0 0 1-.649.14 16.82 16.82 0 0 1-.711.11c-.229.026-.416.05-.562.07a4.527 4.527 0 0 0-.945.219 1.656 1.656 0 0 0-.704.438c-.177.192-.265.455-.265.789 0 .296.075.546.226.75.157.197.37.349.641.453.271.104.581.156.93.156Zm7.609-10.602V74.5h-1.398V62.86h1.398ZM281 74.687c-.599 0-1.133-.088-1.602-.265a2.82 2.82 0 0 1-1.148-.79c-.302-.348-.503-.778-.602-1.288l1.336-.281c.115.479.344.833.688 1.062.349.224.786.336 1.312.336.605 0 1.086-.128 1.446-.383.359-.26.539-.57.539-.93a.978.978 0 0 0-.321-.75c-.213-.203-.533-.351-.96-.445l-1.438-.344c-.786-.187-1.375-.476-1.766-.867-.385-.396-.578-.898-.578-1.508 0-.5.138-.94.414-1.32.282-.38.664-.677 1.149-.89.484-.214 1.034-.32 1.648-.32.594 0 1.102.09 1.524.273.427.182.77.437 1.031.765.266.323.458.698.578 1.125l-1.281.29c-.104-.329-.3-.62-.586-.876-.281-.26-.701-.39-1.258-.39-.521 0-.953.12-1.297.359-.338.24-.508.542-.508.906 0 .323.118.584.352.781.234.193.599.347 1.094.461l1.32.313c.792.187 1.378.477 1.758.867.38.39.57.885.57 1.484 0 .51-.143.964-.43 1.36-.286.396-.687.706-1.203.93-.515.224-1.109.335-1.781.335Z" opacity=".8"/><path stroke="url('#a')" stroke-width="12" d="M211.503 102.5v31.787c0 15.899-12.889 28.788-28.788 28.788H93.351c-15.9 0-28.788 12.889-28.788 28.789v14.994"/><path stroke="url('#b')" stroke-width="12" d="M211.497 102.5v31.787c0 15.899 12.889 28.788 28.788 28.788h89.364c15.9 0 28.789 12.889 28.789 28.789v14.994"/><path fill="#fff" d="m9.605 237.015-7.028 26.122H.264l7.028-26.122h2.313Zm6.868 23.091c-1.035 0-1.957-.175-2.768-.527a4.497 4.497 0 0 1-1.932-1.596c-.479-.703-.718-1.571-.718-2.606 0-.888.176-1.611.527-2.167a3.647 3.647 0 0 1 1.406-1.318 7.543 7.543 0 0 1 1.977-.732 24.578 24.578 0 0 1 2.27-.396 142.93 142.93 0 0 1 2.327-.307c.576-.068.986-.181 1.23-.337.244-.156.366-.429.366-.82v-.146c0-.576-.136-1.084-.41-1.523-.263-.439-.649-.781-1.156-1.025-.508-.254-1.128-.381-1.86-.381-.722 0-1.362.122-1.918.366-.547.235-.986.557-1.318.967-.322.4-.512.849-.571 1.347l-2.533-.088c.088-.957.41-1.791.966-2.504.566-.722 1.308-1.284 2.226-1.684.918-.41 1.967-.615 3.148-.615.86 0 1.65.117 2.372.352a5.25 5.25 0 0 1 1.874 1.01c.527.439.933.981 1.216 1.625.293.635.439 1.362.439 2.182v10.674h-2.475v-2.196H21.1c-.186.371-.464.747-.835 1.128-.37.38-.864.697-1.479.951-.615.244-1.386.366-2.313.366Zm.351-2.24c1.015 0 1.84-.181 2.475-.542.644-.371 1.113-.849 1.405-1.435a4.112 4.112 0 0 0 .454-1.889v-1.976c-.097.088-.283.175-.556.263-.264.078-.59.156-.981.235-.38.068-.79.136-1.23.205-.43.068-.854.126-1.274.175a7.998 7.998 0 0 0-1.713.41c-.527.186-.957.454-1.289.806-.332.351-.498.82-.498 1.405 0 .488.132.908.396 1.259.263.352.634.62 1.113.806.478.185 1.044.278 1.698.278Zm12.959-3.602v-2.987h.22l7.16-6.985h3.236l-7.541 7.38h-.234l-2.841 2.592Zm-2.343 5.593V238.04h2.504v21.817H27.44Zm10.264 0-6.296-7.628 1.772-1.743 7.717 9.371h-3.193Zm9.81.249c-1.034 0-1.956-.175-2.767-.527a4.497 4.497 0 0 1-1.932-1.596c-.479-.703-.718-1.571-.718-2.606 0-.888.176-1.611.527-2.167a3.647 3.647 0 0 1 1.406-1.318 7.543 7.543 0 0 1 1.977-.732 24.578 24.578 0 0 1 2.27-.396c.985-.136 1.761-.239 2.328-.307.575-.068.985-.181 1.23-.337.243-.156.365-.429.365-.82v-.146c0-.576-.136-1.084-.41-1.523-.263-.439-.649-.781-1.156-1.025-.508-.254-1.128-.381-1.86-.381-.722 0-1.362.122-1.918.366-.547.235-.986.557-1.318.967-.322.4-.512.849-.57 1.347l-2.534-.088c.088-.957.41-1.791.966-2.504.567-.722 1.308-1.284 2.226-1.684.918-.41 1.967-.615 3.148-.615.86 0 1.65.117 2.372.352a5.25 5.25 0 0 1 1.874 1.01c.528.439.933.981 1.216 1.625.293.635.44 1.362.44 2.182v10.674H52.2v-2.196h-.058c-.186.371-.464.747-.835 1.128-.37.38-.864.697-1.479.951-.615.244-1.386.366-2.313.366Zm.352-2.24c1.016 0 1.84-.181 2.475-.542.644-.371 1.113-.849 1.406-1.435A4.112 4.112 0 0 0 52.2 254v-1.976c-.097.088-.283.175-.556.263-.264.078-.59.156-.981.235-.38.068-.79.136-1.23.205-.43.068-.854.126-1.274.175a7.997 7.997 0 0 0-1.713.41c-.527.186-.957.454-1.288.806-.332.351-.498.82-.498 1.405 0 .488.131.908.395 1.259.264.352.635.62 1.113.806.478.185 1.044.278 1.698.278Zm16.546 2.284c-1.337 0-2.513-.337-3.529-1.01-1.015-.683-1.8-1.63-2.357-2.841-.556-1.21-.835-2.616-.835-4.217 0-1.61.279-3.021.835-4.231.556-1.211 1.342-2.153 2.357-2.826 1.016-.674 2.192-1.011 3.53-1.011.722 0 1.386.103 1.99.308a5.124 5.124 0 0 1 1.64.893c.479.39.88.859 1.201 1.406h.044v-8.581h2.504v21.817h-2.445V257.5h-.059a5.946 5.946 0 0 1-1.259 1.435c-.488.4-1.035.703-1.64.908a6.042 6.042 0 0 1-1.977.307Zm.381-2.24c.966 0 1.796-.239 2.49-.718.702-.488 1.244-1.171 1.625-2.049.38-.879.57-1.899.57-3.061 0-1.181-.19-2.206-.57-3.075-.381-.878-.923-1.557-1.626-2.035-.693-.478-1.522-.717-2.489-.717-.898 0-1.694.224-2.387.673-.683.449-1.22 1.108-1.61 1.977-.381.859-.571 1.918-.571 3.177 0 1.24.19 2.294.57 3.163.391.869.928 1.533 1.611 1.991.693.449 1.489.674 2.387.674Zm17.249 2.299c-1.513 0-2.811-.347-3.895-1.04-1.074-.693-1.899-1.649-2.475-2.87-.566-1.22-.849-2.616-.849-4.187 0-1.582.298-2.983.893-4.203.596-1.23 1.42-2.196 2.475-2.899 1.064-.703 2.284-1.054 3.66-1.054 1.055 0 2.011.19 2.87.571.87.38 1.611.927 2.226 1.64.625.712 1.103 1.566 1.435 2.562.342.996.513 2.114.513 3.353v.732h-12.71v-2.152h11.319l-1.084.761c0-1.054-.186-1.972-.556-2.752-.371-.791-.898-1.401-1.582-1.831-.683-.429-1.493-.644-2.43-.644-.918 0-1.719.215-2.402.644-.683.43-1.215 1.035-1.596 1.816-.37.771-.556 1.679-.556 2.723v1.099c0 1.073.185 2.025.556 2.855.371.82.913 1.459 1.626 1.918.712.459 1.566.688 2.562.688.722 0 1.362-.112 1.918-.337a3.653 3.653 0 0 0 1.377-.937c.37-.41.639-.883.805-1.42l2.489.073a5.857 5.857 0 0 1-1.23 2.563c-.605.732-1.371 1.303-2.299 1.713-.917.41-1.938.615-3.06.615Zm9.825-.352v-15.565h2.445v3.222h-.307c.302-.771.698-1.416 1.186-1.933a4.855 4.855 0 0 1 1.684-1.171 5.11 5.11 0 0 1 2.02-.41c1.201 0 2.216.346 3.046 1.039.84.693 1.362 1.518 1.567 2.475h-.498a5.056 5.056 0 0 1 1.054-1.772 5.283 5.283 0 0 1 1.787-1.274c.702-.312 1.488-.468 2.357-.468.937 0 1.796.205 2.577.615.781.41 1.401 1.029 1.86 1.859.468.83.703 1.879.703 3.148v10.235h-2.504v-10.22c0-1.201-.337-2.055-1.011-2.562-.673-.518-1.454-.777-2.342-.777-.752 0-1.401.157-1.948.469a3.215 3.215 0 0 0-1.244 1.289c-.293.536-.44 1.161-.44 1.874v9.927h-2.504v-10.484c0-.927-.312-1.669-.937-2.225-.615-.566-1.39-.85-2.328-.85-.644 0-1.254.152-1.83.454a3.51 3.51 0 0 0-1.377 1.347c-.341.596-.512 1.338-.512 2.226v9.532h-2.504Zm25.273 0v-15.565h2.504v15.565h-2.504Zm1.245-18.537c-.469 0-.874-.166-1.216-.498a1.684 1.684 0 0 1-.498-1.215c0-.469.166-.869.498-1.201a1.669 1.669 0 0 1 1.201-.498c.478 0 .883.166 1.215.498.342.332.513.737.513 1.215 0 .459-.171.86-.513 1.201a1.636 1.636 0 0 1-1.2.498Zm9.751 18.786c-1.034 0-1.957-.175-2.767-.527a4.503 4.503 0 0 1-1.933-1.596c-.478-.703-.717-1.571-.717-2.606 0-.888.175-1.611.527-2.167a3.643 3.643 0 0 1 1.406-1.318 7.53 7.53 0 0 1 1.976-.732 24.604 24.604 0 0 1 2.27-.396c.986-.136 1.762-.239 2.328-.307.576-.068.986-.181 1.23-.337.244-.156.366-.429.366-.82v-.146c0-.576-.137-1.084-.41-1.523-.263-.439-.649-.781-1.157-1.025-.507-.254-1.127-.381-1.859-.381-.723 0-1.362.122-1.918.366-.547.235-.986.557-1.318.967-.322.4-.513.849-.571 1.347l-2.533-.088c.087-.957.41-1.791.966-2.504.566-.722 1.308-1.284 2.226-1.684.917-.41 1.967-.615 3.148-.615.859 0 1.649.117 2.372.352a5.25 5.25 0 0 1 1.874 1.01c.527.439.932.981 1.215 1.625.293.635.44 1.362.44 2.182v10.674h-2.475v-2.196h-.058c-.186.371-.464.747-.835 1.128-.371.38-.864.697-1.479.951-.615.244-1.386.366-2.314.366Zm.352-2.24c1.015 0 1.84-.181 2.474-.542.645-.371 1.113-.849 1.406-1.435a4.107 4.107 0 0 0 .454-1.889v-1.976c-.098.088-.283.175-.556.263-.264.078-.591.156-.981.235a60.56 60.56 0 0 1-1.23.205c-.43.068-.854.126-1.274.175a7.986 7.986 0 0 0-1.713.41c-.528.186-.957.454-1.289.806-.332.351-.498.82-.498 1.405 0 .488.132.908.396 1.259.263.352.634.62 1.112.806.479.185 1.045.278 1.699.278Z"/><path fill="#fff" d="M8.031 274.217v11.64H6.555v-11.64H8.03Zm3.985 6.453v5.187h-1.399v-8.679h1.352l.008 2.101h-.22c.266-.797.644-1.364 1.134-1.703.494-.344 1.07-.515 1.726-.515.589 0 1.104.122 1.547.367.443.239.79.604 1.04 1.093.254.485.382 1.097.382 1.836v5.5h-1.398v-5.382c0-.677-.178-1.204-.532-1.579-.349-.38-.828-.57-1.437-.57-.417 0-.792.091-1.125.274-.334.177-.597.44-.79.789-.192.349-.288.776-.288 1.281Zm11.242 5.375c-.724 0-1.365-.185-1.922-.555-.552-.37-.984-.89-1.297-1.562-.312-.677-.469-1.474-.469-2.391 0-.911.157-1.703.47-2.375.317-.672.752-1.19 1.304-1.555.557-.364 1.198-.546 1.922-.546.541 0 .979.091 1.312.273.334.177.594.383.781.617.193.229.339.43.438.602h.101v-4.336h1.399v11.64h-1.352v-1.343h-.14a4.658 4.658 0 0 1-.453.632 2.637 2.637 0 0 1-.79.625c-.333.183-.768.274-1.304.274Zm.21-1.258c.527 0 .972-.138 1.337-.414.37-.276.648-.659.836-1.148.187-.49.28-1.058.28-1.704 0-.64-.093-1.2-.28-1.679-.183-.479-.459-.854-.828-1.125-.365-.271-.813-.406-1.344-.406-.547 0-1.006.14-1.375.421-.365.282-.64.664-.828 1.149-.183.484-.274 1.031-.274 1.64 0 .62.094 1.178.281 1.672.188.49.467.878.836 1.164.37.287.823.43 1.36.43Zm6.243 1.07v-8.679h1.398v8.679h-1.398Zm.71-10.132a.982.982 0 0 1-.687-.266.882.882 0 0 1-.28-.656.87.87 0 0 1 .28-.657.967.967 0 0 1 .688-.273c.27 0 .5.091.687.273a.858.858 0 0 1 .29.657.87.87 0 0 1-.29.656.965.965 0 0 1-.687.266Zm5.618 10.132-3.32-8.679h1.531l1.852 5.133c.192.52.356 1.041.492 1.562.14.516.284 1.018.43 1.508h-.493c.151-.49.294-.992.43-1.508.135-.521.297-1.042.484-1.562l1.852-5.133h1.523l-3.32 8.679h-1.46Zm6.39 0v-8.679h1.4v8.679h-1.4Zm.712-10.132a.982.982 0 0 1-.688-.266.882.882 0 0 1-.281-.656.87.87 0 0 1 .281-.657.967.967 0 0 1 .688-.273c.27 0 .5.091.687.273.193.178.29.396.29.657a.871.871 0 0 1-.29.656.965.965 0 0 1-.687.266Zm6.367 10.32c-.724 0-1.365-.185-1.922-.555-.552-.37-.984-.89-1.297-1.562-.312-.677-.469-1.474-.469-2.391 0-.911.157-1.703.47-2.375.317-.672.752-1.19 1.304-1.555.557-.364 1.198-.546 1.922-.546.541 0 .979.091 1.312.273.333.177.594.383.781.617.193.229.339.43.438.602h.101v-4.336h1.399v11.64h-1.352v-1.343h-.14a4.658 4.658 0 0 1-.453.632 2.637 2.637 0 0 1-.79.625c-.333.183-.768.274-1.304.274Zm.21-1.258c.527 0 .972-.138 1.337-.414.37-.276.648-.659.836-1.148.187-.49.28-1.058.28-1.704 0-.64-.093-1.2-.28-1.679-.183-.479-.459-.854-.828-1.125-.365-.271-.813-.406-1.344-.406-.547 0-1.005.14-1.375.421-.365.282-.64.664-.828 1.149-.183.484-.274 1.031-.274 1.64 0 .62.094 1.178.281 1.672.188.49.467.878.836 1.164.37.287.823.43 1.36.43Zm9.212 1.188c-.584 0-1.1-.12-1.547-.36a2.586 2.586 0 0 1-1.047-1.101c-.25-.49-.375-1.102-.375-1.836v-5.5h1.398v5.383c0 .677.177 1.205.532 1.585.354.375.836.563 1.445.563.417 0 .789-.089 1.117-.266.333-.182.596-.448.79-.797.192-.354.288-.781.288-1.281v-5.187h1.399v8.679h-1.352v-2.101h.211c-.27.807-.654 1.38-1.148 1.719-.495.333-1.066.5-1.711.5Zm8.875.078a3.627 3.627 0 0 1-1.5-.305 2.557 2.557 0 0 1-1.07-.906c-.261-.401-.391-.886-.391-1.453 0-.5.096-.904.289-1.211.198-.313.46-.558.789-.735a4.05 4.05 0 0 1 1.094-.406 13.86 13.86 0 0 1 1.21-.211c.521-.068.943-.12 1.266-.156.328-.037.57-.099.727-.188.156-.088.234-.239.234-.453v-.047c0-.359-.068-.664-.203-.914a1.362 1.362 0 0 0-.617-.578c-.271-.135-.607-.203-1.008-.203-.412 0-.766.065-1.063.195a2.218 2.218 0 0 0-.726.493 1.972 1.972 0 0 0-.398.617l-1.352-.399c.203-.526.49-.942.86-1.25.37-.312.783-.536 1.242-.672.463-.14.93-.21 1.398-.21.312 0 .656.039 1.031.117a3.23 3.23 0 0 1 1.07.437c.339.209.618.513.836.914.22.401.329.927.329 1.578v5.75h-1.375v-1.187h-.094a2.394 2.394 0 0 1-.469.625 2.599 2.599 0 0 1-.844.539c-.343.146-.765.219-1.265.219Zm.242-1.235c.52 0 .958-.101 1.312-.304.36-.203.63-.466.813-.789.187-.323.281-.664.281-1.024v-1.187c-.057.067-.18.127-.367.179a6.667 6.667 0 0 1-.648.141c-.24.042-.477.078-.711.109-.23.026-.417.05-.563.071a4.518 4.518 0 0 0-.945.218 1.653 1.653 0 0 0-.703.438c-.178.193-.266.456-.266.789 0 .297.076.547.227.75.156.198.37.349.64.453.271.104.58.156.93.156Zm7.61-10.601v11.64h-1.4v-11.64h1.4Zm10.406 11.828c-.787 0-1.477-.188-2.07-.563a3.813 3.813 0 0 1-1.391-1.57c-.334-.672-.5-1.453-.5-2.344 0-.906.166-1.695.5-2.367.333-.677.796-1.203 1.39-1.578.594-.375 1.284-.562 2.07-.562.428 0 .829.057 1.204.171.38.11.724.271 1.03.485.313.208.579.466.798.773.224.308.39.651.5 1.031l-1.344.344a2.024 2.024 0 0 0-.29-.625 2.014 2.014 0 0 0-.468-.492 1.952 1.952 0 0 0-.633-.32 2.564 2.564 0 0 0-.796-.117c-.573 0-1.047.151-1.422.453a2.69 2.69 0 0 0-.844 1.187 4.604 4.604 0 0 0-.274 1.617c0 .578.092 1.112.274 1.602.187.49.469.883.844 1.18.375.296.849.445 1.421.445.297 0 .566-.039.805-.117.245-.078.461-.188.649-.328a2.14 2.14 0 0 0 .765-1.172l1.344.336c-.11.396-.276.75-.5 1.062a3.412 3.412 0 0 1-.797.797 3.603 3.603 0 0 1-1.047.5c-.38.115-.786.172-1.219.172Zm9.062 0c-.787 0-1.477-.188-2.07-.563a3.813 3.813 0 0 1-1.39-1.57c-.334-.672-.5-1.453-.5-2.344 0-.906.166-1.695.5-2.367.332-.677.796-1.203 1.39-1.578.593-.375 1.283-.562 2.07-.562.797 0 1.492.187 2.086.562a3.735 3.735 0 0 1 1.39 1.578c.334.672.5 1.461.5 2.367 0 .891-.166 1.672-.5 2.344a3.743 3.743 0 0 1-1.39 1.57c-.594.375-1.29.563-2.086.563Zm0-1.25c.583 0 1.063-.149 1.438-.445.38-.297.661-.69.843-1.18.188-.49.281-1.024.281-1.602a4.54 4.54 0 0 0-.28-1.617 2.61 2.61 0 0 0-.844-1.187c-.376-.302-.855-.453-1.438-.453-.573 0-1.047.151-1.422.453a2.69 2.69 0 0 0-.844 1.187 4.604 4.604 0 0 0-.273 1.617c0 .578.091 1.112.273 1.602.188.49.47.883.844 1.18.375.296.85.445 1.422.445Zm8.93 1.18c-.584 0-1.099-.12-1.547-.36a2.584 2.584 0 0 1-1.047-1.101c-.25-.49-.375-1.102-.375-1.836v-5.5h1.398v5.383c0 .677.177 1.205.532 1.585.354.375.836.563 1.445.563.417 0 .789-.089 1.117-.266.333-.182.596-.448.789-.797.193-.354.289-.781.289-1.281v-5.187h1.399v8.679h-1.352v-2.101h.211c-.271.807-.654 1.38-1.148 1.719-.495.333-1.065.5-1.711.5Zm6.422-.118v-8.679h1.351v1.336h.086c.162-.438.443-.789.844-1.055.406-.271.87-.406 1.39-.406a12.434 12.434 0 0 1 .696.023v1.406a3.676 3.676 0 0 0-.313-.046 4.058 4.058 0 0 0-.523-.032c-.406 0-.771.086-1.094.258a1.909 1.909 0 0 0-.766.711 2.019 2.019 0 0 0-.273 1.063v5.421h-1.398Zm8.898.188c-.599 0-1.133-.089-1.602-.266a2.82 2.82 0 0 1-1.148-.789 2.717 2.717 0 0 1-.602-1.289l1.336-.281c.115.479.344.833.688 1.062.349.224.786.336 1.312.336.605 0 1.086-.127 1.446-.382.359-.261.539-.571.539-.93a.978.978 0 0 0-.321-.75c-.213-.203-.533-.352-.961-.445l-1.437-.344c-.786-.188-1.375-.477-1.766-.867-.385-.396-.578-.899-.578-1.508 0-.5.138-.94.414-1.321.282-.38.664-.677 1.149-.89.484-.214 1.034-.32 1.648-.32.594 0 1.102.091 1.524.273.427.182.77.437 1.031.766.265.323.458.698.578 1.125l-1.281.289c-.104-.328-.3-.62-.586-.875-.281-.261-.701-.391-1.258-.391-.521 0-.953.12-1.297.359-.338.24-.508.542-.508.907a.97.97 0 0 0 .352.781c.234.193.599.346 1.094.461l1.32.312c.792.188 1.378.477 1.758.868.38.39.57.885.57 1.484 0 .51-.143.963-.43 1.359-.286.396-.687.706-1.203.93-.515.224-1.109.336-1.781.336Zm9.047 0c-.844 0-1.57-.188-2.18-.563a3.733 3.733 0 0 1-1.398-1.562c-.328-.672-.492-1.451-.492-2.336 0-.891.161-1.674.484-2.352.323-.682.779-1.213 1.367-1.593.589-.386 1.276-.578 2.063-.578.474 0 .935.08 1.382.242.454.156.862.409 1.227.758.365.343.654.794.867 1.351.214.552.32 1.221.32 2.008v.562h-6.781v-1.179h6.024l-.649.429c0-.572-.091-1.078-.273-1.515a2.312 2.312 0 0 0-.805-1.039c-.354-.25-.792-.375-1.312-.375-.526 0-.977.127-1.352.383-.37.255-.654.591-.852 1.007a3.056 3.056 0 0 0-.296 1.336v.766c0 .641.109 1.185.328 1.633.224.448.534.789.929 1.023.401.235.87.352 1.407.352.349 0 .664-.05.945-.149.281-.104.523-.258.727-.461.203-.203.356-.453.46-.75l1.36.336c-.13.448-.36.841-.688 1.18a3.376 3.376 0 0 1-1.203.797c-.474.193-1.01.289-1.609.289Zm-85.344 18.812-2.633-8.679h1.477l1.062 3.789c.146.526.3 1.114.461 1.765.167.651.331 1.378.492 2.18h-.234a61.6 61.6 0 0 1 .469-2.133c.161-.656.32-1.26.476-1.812l1.047-3.789h1.477l1.031 3.789c.146.541.297 1.138.453 1.789a44.2 44.2 0 0 1 .477 2.156h-.25c.166-.781.33-1.497.492-2.148.167-.651.325-1.25.477-1.797l1.062-3.789h1.477l-2.633 8.679h-1.399l-1.132-3.929a148.8 148.8 0 0 1-.329-1.219 54.97 54.97 0 0 1-.32-1.266c-.104-.432-.21-.869-.32-1.312h.32c-.104.437-.21.875-.32 1.312a49.95 49.95 0 0 1-.656 2.485l-1.125 3.929h-1.399Zm14.39.188c-.843 0-1.57-.188-2.179-.563a3.734 3.734 0 0 1-1.398-1.562c-.328-.672-.493-1.451-.493-2.336 0-.891.162-1.674.485-2.352.323-.682.778-1.213 1.367-1.593.589-.386 1.276-.578 2.063-.578.473 0 .934.08 1.382.242.453.156.862.409 1.227.758.364.343.654.794.867 1.351.214.552.32 1.221.32 2.008v.562h-6.78v-1.179h6.023l-.649.429c0-.572-.091-1.078-.273-1.515a2.312 2.312 0 0 0-.805-1.039c-.354-.25-.792-.375-1.313-.375-.526 0-.976.127-1.351.383-.37.255-.654.591-.852 1.007a3.044 3.044 0 0 0-.297 1.336v.766c0 .641.11 1.185.329 1.633a2.4 2.4 0 0 0 .93 1.023c.4.235.87.352 1.406.352.349 0 .664-.05.945-.149a1.99 1.99 0 0 0 .726-.461c.204-.203.357-.453.461-.75l1.36.336c-.13.448-.36.841-.688 1.18a3.374 3.374 0 0 1-1.203.797c-.474.193-1.01.289-1.61.289Zm9.65 0c-.532 0-.967-.091-1.305-.274a2.612 2.612 0 0 1-.797-.625 6.38 6.38 0 0 1-.446-.632h-.14v1.343h-1.36v-11.64h1.399v4.336h.101a7.43 7.43 0 0 1 .438-.602c.187-.234.448-.44.781-.617.333-.182.773-.273 1.32-.273.724 0 1.362.182 1.914.546.558.365.993.883 1.305 1.555.313.672.469 1.464.469 2.375 0 .917-.156 1.714-.469 2.391-.307.672-.74 1.192-1.297 1.562-.552.37-1.19.555-1.914.555Zm-.212-1.258c.537 0 .987-.143 1.352-.43.37-.286.648-.674.836-1.164a4.698 4.698 0 0 0 .281-1.672c0-.609-.094-1.156-.281-1.64a2.521 2.521 0 0 0-.828-1.149c-.365-.281-.818-.421-1.36-.421-.536 0-.987.135-1.351.406-.365.271-.64.646-.828 1.125-.188.479-.282 1.039-.282 1.679 0 .646.094 1.214.282 1.704.192.489.47.872.835 1.148.37.276.818.414 1.344.414Zm8.844 1.258c-.599 0-1.133-.089-1.602-.266A2.818 2.818 0 0 1 73 303.99a2.717 2.717 0 0 1-.602-1.289l1.336-.281c.115.479.344.833.688 1.062.349.224.786.336 1.312.336.605 0 1.086-.127 1.446-.382.36-.261.539-.571.539-.93a.979.979 0 0 0-.32-.75c-.214-.203-.534-.352-.962-.445L75 300.967c-.787-.188-1.375-.477-1.766-.867-.385-.396-.578-.899-.578-1.508 0-.5.138-.94.414-1.321a2.79 2.79 0 0 1 1.149-.89c.484-.214 1.034-.32 1.648-.32.594 0 1.102.091 1.524.273.427.182.77.437 1.03.766.266.323.46.698.579 1.125l-1.281.289c-.104-.328-.3-.62-.586-.875-.281-.261-.7-.391-1.258-.391-.52 0-.953.12-1.297.359-.338.24-.508.542-.508.907 0 .323.118.583.352.781.234.193.599.346 1.094.461l1.32.312c.792.188 1.377.477 1.758.868.38.39.57.885.57 1.484 0 .51-.143.963-.43 1.359-.286.396-.687.706-1.203.93-.515.224-1.11.336-1.781.336Zm5.398-.188v-8.679h1.399v8.679h-1.399Zm.711-10.132a.982.982 0 0 1-.687-.266.882.882 0 0 1-.281-.656.87.87 0 0 1 .28-.657.967.967 0 0 1 .688-.273c.271 0 .5.091.688.273a.858.858 0 0 1 .289.657.87.87 0 0 1-.29.656.965.965 0 0 1-.687.266Zm6.579 1.453v1.195h-4.516v-1.195h4.516Zm-3.18-2.102h1.398v8.547c0 .38.076.659.227.836.156.172.42.258.789.258.088 0 .2-.008.336-.024.14-.02.268-.041.383-.062l.257 1.187a2.39 2.39 0 0 1-.484.102 4.707 4.707 0 0 1-.539.031c-.75 0-1.333-.193-1.75-.578-.412-.391-.617-.937-.617-1.641v-8.656Zm8.414 10.969c-.844 0-1.57-.188-2.18-.563a3.733 3.733 0 0 1-1.398-1.562c-.328-.672-.492-1.451-.492-2.336 0-.891.161-1.674.484-2.352.323-.682.779-1.213 1.367-1.593.589-.386 1.276-.578 2.063-.578.474 0 .934.08 1.382.242.454.156.862.409 1.227.758.365.343.654.794.867 1.351.214.552.32 1.221.32 2.008v.562h-6.78v-1.179h6.023l-.649.429c0-.572-.09-1.078-.273-1.515a2.312 2.312 0 0 0-.805-1.039c-.354-.25-.791-.375-1.312-.375-.526 0-.977.127-1.352.383-.37.255-.654.591-.852 1.007a3.044 3.044 0 0 0-.296 1.336v.766c0 .641.109 1.185.328 1.633.224.448.534.789.93 1.023.4.235.87.352 1.406.352.349 0 .664-.05.945-.149.281-.104.523-.258.727-.461a1.96 1.96 0 0 0 .46-.75l1.36.336c-.13.448-.36.841-.688 1.18a3.374 3.374 0 0 1-1.203.797c-.474.193-1.01.289-1.61.289Z" opacity=".8"/><path fill="#fff" d="m310.105 237.015-7.028 26.122h-2.313l7.028-26.122h2.313Zm8.098 23.135c-1.338 0-2.514-.337-3.529-1.01-1.015-.683-1.801-1.63-2.358-2.841-.556-1.21-.834-2.616-.834-4.217 0-1.61.278-3.021.834-4.231.557-1.211 1.343-2.153 2.358-2.826 1.015-.674 2.191-1.011 3.529-1.011.722 0 1.386.103 1.991.308a5.12 5.12 0 0 1 2.841 2.299h.044v-8.581h2.504v21.817h-2.446V257.5h-.058a5.943 5.943 0 0 1-1.26 1.435c-.488.4-1.034.703-1.639.908a6.047 6.047 0 0 1-1.977.307Zm.38-2.24c.967 0 1.797-.239 2.49-.718.703-.488 1.244-1.171 1.625-2.049.381-.879.571-1.899.571-3.061 0-1.181-.19-2.206-.571-3.075-.381-.878-.922-1.557-1.625-2.035-.693-.478-1.523-.717-2.49-.717-.898 0-1.693.224-2.386.673-.684.449-1.22 1.108-1.611 1.977-.381.859-.571 1.918-.571 3.177 0 1.24.19 2.294.571 3.163.391.869.927 1.533 1.611 1.991.693.449 1.488.674 2.386.674Zm13.325-19.87v21.817h-2.504V238.04h2.504Zm8.493 22.066c-1.035 0-1.957-.175-2.768-.527a4.494 4.494 0 0 1-1.932-1.596c-.479-.703-.718-1.571-.718-2.606 0-.888.176-1.611.527-2.167a3.65 3.65 0 0 1 1.406-1.318 7.551 7.551 0 0 1 1.977-.732 24.583 24.583 0 0 1 2.269-.396c.986-.136 1.762-.239 2.328-.307.576-.068.986-.181 1.23-.337.244-.156.366-.429.366-.82v-.146c0-.576-.136-1.084-.41-1.523-.263-.439-.649-.781-1.156-1.025-.508-.254-1.128-.381-1.86-.381-.722 0-1.362.122-1.918.366-.547.235-.986.557-1.318.967-.322.4-.512.849-.571 1.347l-2.533-.088c.088-.957.41-1.791.966-2.504.566-.722 1.308-1.284 2.226-1.684.918-.41 1.967-.615 3.148-.615.859 0 1.65.117 2.372.352a5.242 5.242 0 0 1 1.874 1.01c.528.439.933.981 1.216 1.625.293.635.439 1.362.439 2.182v10.674h-2.475v-2.196h-.058c-.186.371-.464.747-.835 1.128-.371.38-.864.697-1.479.951-.615.244-1.386.366-2.313.366Zm.351-2.24c1.015 0 1.84-.181 2.475-.542.644-.371 1.113-.849 1.405-1.435a4.107 4.107 0 0 0 .454-1.889v-1.976c-.097.088-.283.175-.556.263-.264.078-.591.156-.981.235a60.56 60.56 0 0 1-1.23.205c-.43.068-.854.126-1.274.175a8 8 0 0 0-1.713.41c-.527.186-.957.454-1.289.806-.332.351-.497.82-.497 1.405 0 .488.131.908.395 1.259.263.352.634.62 1.113.806.478.185 1.044.278 1.698.278Zm17.454-13.574v2.153h-8.507v-2.153h8.507Zm-5.71 15.565v-18.259c0-.761.17-1.415.512-1.962a3.437 3.437 0 0 1 1.45-1.259c.624-.303 1.352-.454 2.181-.454.371 0 .713.01 1.025.029.313.01.523.02.63.03l-.088 2.137h-.6a24.827 24.827 0 0 0-.732-.014c-.674 0-1.157.151-1.45.454-.283.292-.425.776-.425 1.449v17.849h-2.503Zm8.273 0v-15.565h2.503v15.565h-2.503Zm1.244-18.537c-.468 0-.874-.166-1.215-.498a1.684 1.684 0 0 1-.498-1.215c0-.469.166-.869.498-1.201a1.667 1.667 0 0 1 1.2-.498c.479 0 .884.166 1.216.498.341.332.512.737.512 1.215 0 .459-.171.86-.512 1.201a1.636 1.636 0 0 1-1.201.498Zm5.052 18.537v-15.565h2.387v2.446h.073c.283-.81.742-1.46 1.376-1.948.635-.488 1.435-.732 2.401-.732a6.508 6.508 0 0 1 1.084.088v2.504a4.608 4.608 0 0 0-.571-.103 5.714 5.714 0 0 0-.952-.073c-.595 0-1.147.137-1.654.41-.498.273-.898.688-1.201 1.245-.293.556-.439 1.264-.439 2.123v9.605h-2.504Zm9.898 0v-15.565h2.445v3.222h-.307c.303-.771.698-1.416 1.186-1.933a4.85 4.85 0 0 1 1.684-1.171 5.11 5.11 0 0 1 2.021-.41c1.2 0 2.215.346 3.045 1.039.84.693 1.362 1.518 1.567 2.475h-.498a5.07 5.07 0 0 1 1.054-1.772 5.283 5.283 0 0 1 1.787-1.274c.703-.312 1.488-.468 2.357-.468.937 0 1.796.205 2.577.615.781.41 1.401 1.029 1.86 1.859.468.83.703 1.879.703 3.148v10.235h-2.504v-10.22c0-1.201-.337-2.055-1.011-2.562-.673-.518-1.454-.777-2.342-.777-.752 0-1.401.157-1.948.469a3.215 3.215 0 0 0-1.244 1.289c-.293.536-.44 1.161-.44 1.874v9.927h-2.504v-10.484c0-.927-.312-1.669-.937-2.225-.615-.566-1.391-.85-2.328-.85-.644 0-1.254.152-1.83.454a3.517 3.517 0 0 0-1.377 1.347c-.341.596-.512 1.338-.512 2.226v9.532h-2.504Z"/><path fill="#fff" d="M284.32 286.014c-1.005 0-1.898-.243-2.679-.727-.782-.484-1.396-1.172-1.844-2.062-.448-.896-.672-1.956-.672-3.18 0-1.229.224-2.289.672-3.18.448-.896 1.062-1.586 1.844-2.07.781-.49 1.674-.734 2.679-.734.589 0 1.144.085 1.664.257.526.172.998.425 1.414.758.422.334.771.737 1.047 1.211.282.469.474 1.003.578 1.602h-1.476a3.06 3.06 0 0 0-.438-1.055 2.804 2.804 0 0 0-.734-.773 3.004 3.004 0 0 0-.961-.477 3.807 3.807 0 0 0-1.094-.156c-.713 0-1.354.179-1.922.539-.562.359-1.007.883-1.336 1.57-.328.682-.492 1.518-.492 2.508 0 .984.164 1.82.492 2.508.334.682.782 1.203 1.344 1.562a3.544 3.544 0 0 0 1.914.531c.381 0 .745-.052 1.094-.156.354-.109.675-.268.961-.476.292-.209.536-.466.734-.774.203-.307.349-.659.438-1.054h1.476a4.592 4.592 0 0 1-.57 1.601c-.276.469-.625.87-1.047 1.203a4.562 4.562 0 0 1-1.414.766 5.3 5.3 0 0 1-1.672.258Zm10.297.031c-.786 0-1.476-.188-2.07-.563-.594-.375-1.057-.898-1.391-1.57-.333-.672-.5-1.453-.5-2.344 0-.906.167-1.695.5-2.367.334-.677.797-1.203 1.391-1.578s1.284-.562 2.07-.562c.797 0 1.492.187 2.086.562a3.735 3.735 0 0 1 1.391 1.578c.333.672.5 1.461.5 2.367 0 .891-.167 1.672-.5 2.344a3.743 3.743 0 0 1-1.391 1.57c-.594.375-1.289.563-2.086.563Zm0-1.25c.584 0 1.063-.149 1.438-.445.38-.297.661-.69.843-1.18.188-.49.282-1.024.282-1.602 0-.583-.094-1.122-.282-1.617a2.61 2.61 0 0 0-.843-1.187c-.375-.302-.854-.453-1.438-.453-.573 0-1.047.151-1.422.453a2.685 2.685 0 0 0-.843 1.187 4.589 4.589 0 0 0-.274 1.617c0 .578.091 1.112.274 1.602.187.49.468.883.843 1.18.375.296.849.445 1.422.445Zm5.961 1.062v-8.679h1.352v1.336h.086c.161-.438.442-.789.843-1.055a2.45 2.45 0 0 1 1.391-.406 12.229 12.229 0 0 1 .695.023v1.406a3.625 3.625 0 0 0-.312-.046 4.074 4.074 0 0 0-.524-.032c-.406 0-.77.086-1.093.258a1.909 1.909 0 0 0-.766.711 2.019 2.019 0 0 0-.273 1.063v5.421h-1.399Zm6.156 3.266v-11.945h1.36v1.375h.14c.105-.172.25-.373.438-.602.187-.234.448-.44.781-.617.333-.182.774-.273 1.32-.273.724 0 1.362.182 1.915.546.557.365.992.883 1.304 1.555.313.672.469 1.464.469 2.375 0 .917-.156 1.714-.469 2.391-.307.672-.739 1.192-1.297 1.562-.552.37-1.19.555-1.914.555-.531 0-.966-.091-1.304-.274a2.62 2.62 0 0 1-.789-.625 5.867 5.867 0 0 1-.454-.632h-.101v4.609h-1.399Zm3.836-4.336c.537 0 .987-.143 1.352-.43.37-.286.648-.674.836-1.164a4.698 4.698 0 0 0 .281-1.672c0-.609-.094-1.156-.281-1.64a2.521 2.521 0 0 0-.828-1.149c-.365-.281-.818-.421-1.36-.421-.536 0-.987.135-1.351.406-.365.271-.641.646-.828 1.125-.188.479-.282 1.039-.282 1.679 0 .646.094 1.214.282 1.704.192.489.471.872.836 1.148.369.276.817.414 1.343.414Zm9.422 1.258c-.786 0-1.476-.188-2.07-.563-.594-.375-1.057-.898-1.391-1.57-.333-.672-.5-1.453-.5-2.344 0-.906.167-1.695.5-2.367.334-.677.797-1.203 1.391-1.578s1.284-.562 2.07-.562c.797 0 1.492.187 2.086.562a3.735 3.735 0 0 1 1.391 1.578c.333.672.5 1.461.5 2.367 0 .891-.167 1.672-.5 2.344a3.743 3.743 0 0 1-1.391 1.57c-.594.375-1.289.563-2.086.563Zm0-1.25c.584 0 1.063-.149 1.438-.445.38-.297.661-.69.843-1.18.188-.49.282-1.024.282-1.602 0-.583-.094-1.122-.282-1.617a2.61 2.61 0 0 0-.843-1.187c-.375-.302-.854-.453-1.438-.453-.573 0-1.047.151-1.422.453a2.685 2.685 0 0 0-.843 1.187 4.589 4.589 0 0 0-.274 1.617c0 .578.091 1.112.274 1.602.187.49.468.883.843 1.18.375.296.849.445 1.422.445Zm5.961 1.062v-8.679h1.352v1.336h.086c.161-.438.442-.789.843-1.055a2.45 2.45 0 0 1 1.391-.406 12.229 12.229 0 0 1 .695.023v1.406a3.625 3.625 0 0 0-.312-.046 4.074 4.074 0 0 0-.524-.032c-.406 0-.77.086-1.093.258a1.902 1.902 0 0 0-.766.711 2.019 2.019 0 0 0-.273 1.063v5.421h-1.399Zm8.359.196a3.633 3.633 0 0 1-1.5-.305 2.565 2.565 0 0 1-1.07-.906c-.26-.401-.39-.886-.39-1.453 0-.5.096-.904.289-1.211.198-.313.461-.558.789-.735a4.044 4.044 0 0 1 1.093-.406c.401-.088.805-.159 1.211-.211.521-.068.943-.12 1.266-.156.328-.037.57-.099.727-.188.156-.088.234-.239.234-.453v-.047c0-.359-.068-.664-.203-.914a1.365 1.365 0 0 0-.617-.578c-.271-.135-.607-.203-1.008-.203-.412 0-.766.065-1.063.195a2.207 2.207 0 0 0-.726.493 1.974 1.974 0 0 0-.399.617l-1.351-.399c.203-.526.489-.942.859-1.25.37-.312.784-.536 1.242-.672.464-.14.93-.21 1.399-.21.312 0 .656.039 1.031.117a3.23 3.23 0 0 1 1.07.437c.339.209.617.513.836.914.219.401.328.927.328 1.578v5.75h-1.375v-1.187h-.093a2.41 2.41 0 0 1-.469.625 2.604 2.604 0 0 1-.844.539c-.344.146-.766.219-1.266.219Zm.243-1.235c.521 0 .958-.101 1.312-.304.36-.203.63-.466.813-.789.187-.323.281-.664.281-1.024v-1.187c-.057.067-.18.127-.367.179a6.701 6.701 0 0 1-.649.141 16.8 16.8 0 0 1-.711.109c-.229.026-.416.05-.562.071a4.51 4.51 0 0 0-.945.218 1.66 1.66 0 0 0-.704.438c-.177.193-.265.456-.265.789 0 .297.075.547.226.75.157.198.37.349.641.453.271.104.581.156.93.156Zm9.672-7.64v1.195h-4.516v-1.195h4.516Zm-3.18-2.102h1.398v8.547c0 .38.076.659.227.836.156.172.419.258.789.258.088 0 .2-.008.336-.024.141-.02.268-.041.383-.062l.258 1.187a2.416 2.416 0 0 1-.485.102 4.702 4.702 0 0 1-.539.031c-.75 0-1.333-.193-1.75-.578-.411-.391-.617-.937-.617-1.641v-8.656Zm8.414 10.969c-.844 0-1.57-.188-2.18-.563a3.733 3.733 0 0 1-1.398-1.562c-.328-.672-.492-1.451-.492-2.336 0-.891.161-1.674.484-2.352.323-.682.779-1.213 1.367-1.593.589-.386 1.276-.578 2.063-.578.474 0 .935.08 1.383.242a3.33 3.33 0 0 1 1.226.758c.365.343.654.794.867 1.351.214.552.321 1.221.321 2.008v.562h-6.782v-1.179h6.024l-.649.429c0-.572-.091-1.078-.273-1.515a2.312 2.312 0 0 0-.805-1.039c-.354-.25-.791-.375-1.312-.375-.526 0-.977.127-1.352.383-.37.255-.654.591-.851 1.007a3.043 3.043 0 0 0-.297 1.336v.766c0 .641.109 1.185.328 1.633.224.448.534.789.929 1.023.402.235.87.352 1.407.352.349 0 .664-.05.945-.149.281-.104.524-.258.727-.461a1.97 1.97 0 0 0 .461-.75l1.359.336c-.13.448-.359.841-.688 1.18a3.367 3.367 0 0 1-1.203.797c-.474.193-1.01.289-1.609.289Zm13.516-8.867v1.195h-4.516v-1.195h4.516Zm-3.18-2.102h1.398v8.547c0 .38.076.659.227.836.156.172.419.258.789.258.088 0 .2-.008.336-.024.141-.02.268-.041.383-.062l.258 1.187a2.416 2.416 0 0 1-.485.102 4.702 4.702 0 0 1-.539.031c-.75 0-1.333-.193-1.75-.578-.411-.391-.617-.937-.617-1.641v-8.656Zm4.922 10.781v-8.679h1.351v1.336h.086c.162-.438.443-.789.844-1.055.406-.271.87-.406 1.391-.406a12.434 12.434 0 0 1 .695.023v1.406a3.676 3.676 0 0 0-.313-.046 4.046 4.046 0 0 0-.523-.032c-.406 0-.771.086-1.094.258a1.9 1.9 0 0 0-.765.711 2.01 2.01 0 0 0-.274 1.063v5.421h-1.398Zm8.359.196a3.627 3.627 0 0 1-1.5-.305 2.552 2.552 0 0 1-1.07-.906c-.261-.401-.391-.886-.391-1.453 0-.5.097-.904.289-1.211.198-.313.461-.558.789-.735a4.05 4.05 0 0 1 1.094-.406c.401-.088.805-.159 1.211-.211.521-.068.943-.12 1.266-.156.328-.037.57-.099.726-.188.156-.088.235-.239.235-.453v-.047c0-.359-.068-.664-.204-.914a1.36 1.36 0 0 0-.617-.578c-.271-.135-.607-.203-1.008-.203-.411 0-.765.065-1.062.195a2.223 2.223 0 0 0-.727.493 1.97 1.97 0 0 0-.398.617l-1.352-.399c.203-.526.49-.942.86-1.25.37-.312.784-.536 1.242-.672.463-.14.93-.21 1.398-.21.313 0 .657.039 1.032.117.375.078.731.224 1.07.437.338.209.617.513.836.914.219.401.328.927.328 1.578v5.75h-1.375v-1.187h-.094a2.403 2.403 0 0 1-.468.625 2.604 2.604 0 0 1-.844.539c-.344.146-.766.219-1.266.219Zm.242-1.235c.521 0 .959-.101 1.313-.304.359-.203.63-.466.812-.789.188-.323.282-.664.282-1.024v-1.187c-.058.067-.18.127-.368.179a6.611 6.611 0 0 1-.648.141c-.24.042-.477.078-.711.109-.229.026-.417.05-.562.071a4.519 4.519 0 0 0-.946.218 1.656 1.656 0 0 0-.703.438c-.177.193-.266.456-.266.789 0 .297.076.547.227.75.156.198.37.349.641.453.27.104.58.156.929.156Zm6.211 1.039v-8.679h1.399v8.679h-1.399Zm.711-10.132a.981.981 0 0 1-.687-.266.881.881 0 0 1-.282-.656c0-.261.094-.479.282-.657a.966.966 0 0 1 .687-.273c.271 0 .5.091.688.273a.86.86 0 0 1 .289.657.873.873 0 0 1-.289.656.966.966 0 0 1-.688.266Zm4.5 4.945v5.187h-1.398v-8.679h1.351l.008 2.101h-.219c.266-.797.644-1.364 1.133-1.703.495-.344 1.071-.515 1.727-.515.588 0 1.104.122 1.547.367.442.239.789.604 1.039 1.093.255.485.382 1.097.382 1.836v5.5h-1.398v-5.382c0-.677-.177-1.204-.531-1.579-.349-.38-.828-.57-1.438-.57-.416 0-.791.091-1.125.274-.333.177-.596.44-.789.789-.192.349-.289.776-.289 1.281Zm7.977 5.187v-8.679h1.398v8.679h-1.398Zm.711-10.132a.983.983 0 0 1-.688-.266.884.884 0 0 1-.281-.656.87.87 0 0 1 .281-.657.968.968 0 0 1 .688-.273c.271 0 .5.091.687.273a.857.857 0 0 1 .289.657.87.87 0 0 1-.289.656.962.962 0 0 1-.687.266Zm4.5 4.945v5.187h-1.399v-8.679h1.352l.008 2.101h-.219c.266-.797.643-1.364 1.133-1.703.494-.344 1.07-.515 1.726-.515.589 0 1.104.122 1.547.367.443.239.789.604 1.039 1.093.255.485.383 1.097.383 1.836v5.5h-1.398v-5.382c0-.677-.178-1.204-.532-1.579-.349-.38-.828-.57-1.437-.57-.417 0-.792.091-1.125.274a1.91 1.91 0 0 0-.789.789c-.193.349-.289.776-.289 1.281Zm11.508 8.633c-.641 0-1.198-.084-1.672-.25-.474-.167-.868-.393-1.18-.68a3.19 3.19 0 0 1-.727-.93l1.164-.656c.12.182.274.375.461.578.188.203.438.373.75.508.313.141.714.211 1.204.211.703 0 1.276-.169 1.718-.508.448-.338.672-.867.672-1.586v-1.695h-.117c-.109.182-.26.388-.453.617a2.412 2.412 0 0 1-.781.586c-.334.167-.771.25-1.313.25a3.602 3.602 0 0 1-1.883-.5c-.557-.333-.997-.818-1.32-1.453-.318-.635-.477-1.406-.477-2.313 0-.895.159-1.674.477-2.336.318-.661.755-1.174 1.312-1.539.558-.364 1.196-.546 1.915-.546.541 0 .979.088 1.312.265.339.177.604.383.797.617.193.235.341.44.445.618h.125v-1.383h1.36v8.883c0 .755-.17 1.372-.508 1.851a2.951 2.951 0 0 1-1.367 1.055c-.573.224-1.211.336-1.914.336Zm-.047-4.797c.531 0 .979-.123 1.343-.367.365-.245.641-.594.828-1.047.193-.459.29-1.005.29-1.641 0-.62-.094-1.164-.282-1.633-.187-.468-.463-.836-.828-1.101-.364-.271-.815-.406-1.351-.406-.542 0-.998.14-1.368.421a2.525 2.525 0 0 0-.835 1.125c-.188.469-.282 1-.282 1.594 0 .61.094 1.143.282 1.602.192.458.473.815.843 1.07.37.255.823.383 1.36.383Zm9.211 1.539c-.599 0-1.133-.089-1.602-.266a2.813 2.813 0 0 1-1.148-.789c-.303-.349-.503-.778-.602-1.289l1.336-.281c.115.479.344.833.687 1.062.349.224.787.336 1.313.336.604 0 1.086-.127 1.445-.382.36-.261.539-.571.539-.93a.977.977 0 0 0-.32-.75c-.214-.203-.534-.352-.961-.445l-1.437-.344c-.787-.188-1.375-.477-1.766-.867-.385-.396-.578-.899-.578-1.508 0-.5.138-.94.414-1.321a2.79 2.79 0 0 1 1.148-.89c.485-.214 1.034-.32 1.649-.32.593 0 1.101.091 1.523.273.427.182.771.437 1.031.766.266.323.459.698.579 1.125l-1.282.289a1.953 1.953 0 0 0-.586-.875c-.281-.261-.7-.391-1.257-.391-.521 0-.954.12-1.297.359-.339.24-.508.542-.508.907 0 .323.117.583.351.781.235.193.599.346 1.094.461l1.321.312c.791.188 1.377.477 1.757.868.381.39.571.885.571 1.484 0 .51-.144.963-.43 1.359-.287.396-.688.706-1.203.93-.516.224-1.11.336-1.781.336Zm-94.024 18.812-2.633-8.679h1.477l1.062 3.789c.146.526.3 1.114.461 1.765.167.651.331 1.378.493 2.18h-.235a61.6 61.6 0 0 1 .469-2.133c.161-.656.32-1.26.476-1.812l1.047-3.789h1.477l1.031 3.789c.146.541.297 1.138.453 1.789.162.646.321 1.364.477 2.156h-.25a66.9 66.9 0 0 1 .492-2.148c.167-.651.326-1.25.477-1.797l1.062-3.789h1.477l-2.633 8.679h-1.399l-1.132-3.929c-.11-.401-.219-.808-.329-1.219a55.507 55.507 0 0 1-.32-1.266c-.104-.432-.211-.869-.32-1.312h.32c-.104.437-.211.875-.32 1.312a49.95 49.95 0 0 1-.656 2.485l-1.125 3.929h-1.399Zm14.391.188c-.844 0-1.571-.188-2.18-.563a3.733 3.733 0 0 1-1.398-1.562c-.329-.672-.493-1.451-.493-2.336 0-.891.162-1.674.485-2.352.323-.682.778-1.213 1.367-1.593.589-.386 1.276-.578 2.062-.578.474 0 .935.08 1.383.242.453.156.862.409 1.227.758.364.343.654.794.867 1.351.214.552.32 1.221.32 2.008v.562h-6.781v-1.179h6.024l-.649.429c0-.572-.091-1.078-.273-1.515a2.319 2.319 0 0 0-.805-1.039c-.354-.25-.792-.375-1.313-.375-.526 0-.976.127-1.351.383-.37.255-.654.591-.852 1.007a3.043 3.043 0 0 0-.297 1.336v.766c0 .641.11 1.185.329 1.633.224.448.533.789.929 1.023.401.235.87.352 1.407.352.349 0 .664-.05.945-.149a1.99 1.99 0 0 0 .726-.461c.204-.203.357-.453.461-.75l1.36.336c-.13.448-.36.841-.688 1.18a3.376 3.376 0 0 1-1.203.797c-.474.193-1.01.289-1.609.289Zm9.648 0c-.531 0-.966-.091-1.305-.274a2.605 2.605 0 0 1-.796-.625 6.417 6.417 0 0 1-.446-.632h-.14v1.343h-1.36v-11.64h1.399v4.336h.101a7.43 7.43 0 0 1 .438-.602c.187-.234.448-.44.781-.617.333-.182.773-.273 1.32-.273.724 0 1.362.182 1.914.546.558.365.993.883 1.305 1.555.313.672.469 1.464.469 2.375 0 .917-.156 1.714-.469 2.391-.307.672-.739 1.192-1.297 1.562-.552.37-1.19.555-1.914.555Zm-.211-1.258c.537 0 .987-.143 1.352-.43.37-.286.648-.674.836-1.164a4.698 4.698 0 0 0 .281-1.672c0-.609-.094-1.156-.281-1.64-.183-.485-.459-.867-.828-1.149-.365-.281-.818-.421-1.36-.421-.536 0-.987.135-1.351.406-.365.271-.641.646-.828 1.125-.188.479-.282 1.039-.282 1.679 0 .646.094 1.214.282 1.704.192.489.471.872.835 1.148.37.276.818.414 1.344.414Zm8.844 1.258c-.599 0-1.133-.089-1.602-.266a2.82 2.82 0 0 1-1.148-.789 2.717 2.717 0 0 1-.602-1.289l1.336-.281c.115.479.344.833.688 1.062.349.224.786.336 1.312.336.605 0 1.086-.127 1.446-.382.359-.261.539-.571.539-.93a.978.978 0 0 0-.321-.75c-.213-.203-.533-.352-.96-.445l-1.438-.344c-.786-.188-1.375-.477-1.766-.867-.385-.396-.578-.899-.578-1.508 0-.5.138-.94.414-1.321.282-.38.664-.677 1.149-.89.484-.214 1.034-.32 1.648-.32.594 0 1.102.091 1.524.273.427.182.77.437 1.031.766.266.323.458.698.578 1.125l-1.281.289c-.104-.328-.3-.62-.586-.875-.281-.261-.701-.391-1.258-.391-.521 0-.953.12-1.297.359-.338.24-.508.542-.508.907 0 .323.118.583.352.781.234.193.599.346 1.094.461l1.32.312c.792.188 1.378.477 1.758.868.38.39.57.885.57 1.484 0 .51-.143.963-.43 1.359-.286.396-.687.706-1.203.93-.515.224-1.109.336-1.781.336Zm5.398-.188v-8.679h1.399v8.679h-1.399Zm.711-10.132a.983.983 0 0 1-.687-.266.88.88 0 0 1-.281-.656c0-.261.093-.479.281-.657a.967.967 0 0 1 .687-.273c.271 0 .5.091.688.273a.857.857 0 0 1 .289.657.87.87 0 0 1-.289.656.966.966 0 0 1-.688.266Zm6.579 1.453v1.195h-4.516v-1.195h4.516Zm-3.18-2.102h1.398v8.547c0 .38.076.659.227.836.156.172.419.258.789.258.088 0 .2-.008.336-.024.14-.02.268-.041.383-.062l.257 1.187a2.39 2.39 0 0 1-.484.102 4.702 4.702 0 0 1-.539.031c-.75 0-1.333-.193-1.75-.578-.411-.391-.617-.937-.617-1.641v-8.656Zm8.414 10.969c-.844 0-1.57-.188-2.18-.563a3.733 3.733 0 0 1-1.398-1.562c-.328-.672-.492-1.451-.492-2.336 0-.891.161-1.674.484-2.352.323-.682.779-1.213 1.367-1.593.589-.386 1.276-.578 2.063-.578.474 0 .935.08 1.382.242.454.156.862.409 1.227.758.365.343.654.794.867 1.351.214.552.32 1.221.32 2.008v.562h-6.781v-1.179h6.024l-.649.429c0-.572-.091-1.078-.273-1.515a2.312 2.312 0 0 0-.805-1.039c-.354-.25-.792-.375-1.312-.375-.526 0-.977.127-1.352.383-.37.255-.654.591-.852 1.007a3.056 3.056 0 0 0-.296 1.336v.766c0 .641.109 1.185.328 1.633.224.448.534.789.929 1.023.401.235.87.352 1.407.352.349 0 .664-.05.945-.149.281-.104.523-.258.727-.461.203-.203.356-.453.46-.75l1.36.336c-.13.448-.36.841-.688 1.18a3.376 3.376 0 0 1-1.203.797c-.474.193-1.01.289-1.609.289Z" opacity=".8"/><defs><linearGradient id="a" x1="208.204" x2="208.204" y1="76.111" y2="206.858" gradientUnits="userSpaceOnUse"><stop stop-color="#fff"/><stop offset="1" stop-color="#fff" stop-opacity="0"/></linearGradient><linearGradient id="b" x1="214.796" x2="214.796" y1="76.111" y2="206.858" gradientUnits="userSpaceOnUse"><stop stop-color="#fff"/><stop offset="1" stop-color="#fff" stop-opacity="0"/></linearGradient></defs></svg>