<svg width="680" height="19" viewBox="0 0 680 19" fill="none" xmlns="http://www.w3.org/2000/svg">
<path d="M0 2.87972C0 1.31491 1.26853 0.0463867 2.83333 0.0463867H677.167C678.732 0.0463867 680 1.31491 680 2.87972V18.9353H0V2.87972Z" fill="#343434"/>
<path d="M15.1111 9.48896C15.1111 11.5754 13.4197 13.2667 11.3333 13.2667C9.24691 13.2667 7.55554 11.5754 7.55554 9.48896C7.55554 7.40255 9.24691 5.71118 11.3333 5.71118C13.4197 5.71118 15.1111 7.40255 15.1111 9.48896Z" fill="#686866"/>
<path d="M26.4443 9.48896C26.4443 11.5754 24.753 13.2667 22.6666 13.2667C20.5802 13.2667 18.8888 11.5754 18.8888 9.48896C18.8888 7.40255 20.5802 5.71118 22.6666 5.71118C24.753 5.71118 26.4443 7.40255 26.4443 9.48896Z" fill="#686866"/>
<path d="M37.7778 9.48896C37.7778 11.5754 36.0865 13.2667 34.0001 13.2667C31.9137 13.2667 30.2223 11.5754 30.2223 9.48896C30.2223 7.40255 31.9137 5.71118 34.0001 5.71118C36.0865 5.71118 37.7778 7.40255 37.7778 9.48896Z" fill="#686866"/>
<path opacity="0.5" d="M332.136 7.63636C332.102 7.34848 331.964 7.125 331.722 6.96591C331.479 6.80682 331.182 6.72727 330.83 6.72727C330.572 6.72727 330.347 6.76894 330.153 6.85227C329.962 6.93561 329.813 7.05019 329.705 7.19602C329.598 7.34186 329.545 7.50758 329.545 7.69318C329.545 7.84848 329.582 7.98201 329.656 8.09375C329.732 8.2036 329.829 8.29545 329.946 8.36932C330.063 8.44129 330.187 8.50095 330.315 8.5483C330.444 8.59375 330.562 8.63068 330.67 8.65909L331.261 8.81818C331.413 8.85795 331.581 8.91288 331.767 8.98295C331.955 9.05303 332.134 9.14867 332.304 9.26989C332.476 9.3892 332.618 9.54261 332.73 9.73011C332.842 9.91761 332.898 10.1477 332.898 10.4205C332.898 10.7348 332.815 11.0189 332.651 11.2727C332.488 11.5265 332.249 11.7282 331.935 11.8778C331.622 12.0275 331.242 12.1023 330.795 12.1023C330.379 12.1023 330.018 12.035 329.713 11.9006C329.41 11.7661 329.171 11.5786 328.997 11.3381C328.825 11.0975 328.727 10.8182 328.705 10.5H329.432C329.451 10.7197 329.525 10.9015 329.653 11.0455C329.784 11.1875 329.949 11.2936 330.148 11.3636C330.348 11.4318 330.564 11.4659 330.795 11.4659C331.064 11.4659 331.306 11.4223 331.52 11.3352C331.734 11.2462 331.903 11.1231 332.028 10.9659C332.153 10.8068 332.216 10.6212 332.216 10.4091C332.216 10.2159 332.162 10.0587 332.054 9.9375C331.946 9.81629 331.804 9.7178 331.628 9.64205C331.452 9.56629 331.261 9.5 331.057 9.44318L330.341 9.23864C329.886 9.10795 329.527 8.9214 329.261 8.67898C328.996 8.43655 328.864 8.11932 328.864 7.72727C328.864 7.40151 328.952 7.11742 329.128 6.875C329.306 6.63068 329.545 6.44129 329.844 6.30682C330.145 6.17045 330.481 6.10227 330.852 6.10227C331.227 6.10227 331.561 6.16951 331.852 6.30398C332.144 6.43655 332.375 6.61837 332.545 6.84943C332.718 7.08049 332.809 7.3428 332.818 7.63636H332.136ZM333.738 6.80682V6.18182H338.102V6.80682H336.272V12H335.567V6.80682H333.738ZM338.748 12H338.009L340.146 6.18182H340.873L343.009 12H342.271L340.532 7.10227H340.487L338.748 12ZM339.021 9.72727H341.998V10.3523H339.021V9.72727ZM342.822 6.18182H343.629L345.242 8.89773H345.31L346.924 6.18182H347.731L345.629 9.60227V12H344.924V9.60227L342.822 6.18182ZM348.287 12H347.548L349.685 6.18182H350.412L352.548 12H351.81L350.071 7.10227H350.026L348.287 12ZM348.56 9.72727H351.537V10.3523H348.56V9.72727Z" fill="white"/>
</svg>
