<svg width="680" height="20" viewBox="0 0 680 20" fill="none" xmlns="http://www.w3.org/2000/svg">
<rect width="680" height="18.9006" transform="translate(0 0.34375)" fill="url(#paint0_linear_542_10460)"/>
<path d="M15.1227 9.79379C15.1227 11.8815 13.4303 13.5739 11.3426 13.5739C9.25492 13.5739 7.5625 11.8815 7.5625 9.79379C7.5625 7.70609 9.25492 6.01367 11.3426 6.01367C13.4303 6.01367 15.1227 7.70609 15.1227 9.79379Z" fill="#CBCBCD"/>
<path d="M26.4587 9.79404C26.4587 11.8817 24.7663 13.5742 22.6786 13.5742C20.5909 13.5742 18.8984 11.8817 18.8984 9.79404C18.8984 7.70633 20.5909 6.01392 22.6786 6.01392C24.7663 6.01392 26.4587 7.70633 26.4587 9.79404Z" fill="#CBCBCD"/>
<path d="M37.8024 9.79404C37.8024 11.8817 36.11 13.5742 34.0223 13.5742C31.9346 13.5742 30.2422 11.8817 30.2422 9.79404C30.2422 7.70633 31.9346 6.01392 34.0223 6.01392C36.11 6.01392 37.8024 7.70633 37.8024 9.79404Z" fill="#CBCBCD"/>
<path opacity="0.5" d="M315.353 8.47242V9.00937H313.216V8.47242H315.353ZM313.839 7.48444H314.473V11.4149C314.473 11.5939 314.499 11.7281 314.55 11.8176C314.604 11.9053 314.672 11.9644 314.754 11.9948C314.839 12.0234 314.927 12.0378 315.02 12.0378C315.09 12.0378 315.147 12.0342 315.192 12.027C315.237 12.0181 315.273 12.0109 315.299 12.0055L315.428 12.5747C315.385 12.5908 315.325 12.6069 315.248 12.623C315.171 12.6409 315.074 12.6499 314.956 12.6499C314.777 12.6499 314.601 12.6114 314.43 12.5344C314.26 12.4575 314.118 12.3402 314.005 12.1827C313.894 12.0252 313.839 11.8266 313.839 11.5867V7.48444ZM316.306 12.5962V8.47242H316.94V12.5962H316.306ZM316.628 7.78513C316.505 7.78513 316.398 7.74307 316.309 7.65894C316.221 7.57482 316.177 7.4737 316.177 7.35557C316.177 7.23744 316.221 7.13631 316.309 7.05219C316.398 6.96807 316.505 6.92601 316.628 6.92601C316.752 6.92601 316.858 6.96807 316.945 7.05219C317.035 7.13631 317.079 7.23744 317.079 7.35557C317.079 7.4737 317.035 7.57482 316.945 7.65894C316.858 7.74307 316.752 7.78513 316.628 7.78513ZM318.186 12.5962V7.09783H318.82V9.1275H318.874C318.92 9.05591 318.985 8.96463 319.067 8.85366C319.151 8.7409 319.271 8.64067 319.427 8.55296C319.584 8.46347 319.797 8.41873 320.066 8.41873C320.413 8.41873 320.719 8.50553 320.984 8.67915C321.249 8.85276 321.455 9.09886 321.604 9.41745C321.752 9.73604 321.827 10.1119 321.827 10.545C321.827 10.9818 321.752 11.3603 321.604 11.6807C321.455 11.9993 321.25 12.2463 320.986 12.4217C320.723 12.5953 320.42 12.6821 320.076 12.6821C319.811 12.6821 319.599 12.6383 319.44 12.5506C319.281 12.4611 319.158 12.3599 319.072 12.2472C318.986 12.1326 318.92 12.0378 318.874 11.9626H318.798V12.5962H318.186ZM318.809 10.5343C318.809 10.8457 318.855 11.1205 318.946 11.3585C319.037 11.5948 319.171 11.78 319.346 11.9143C319.521 12.0467 319.736 12.1129 319.99 12.1129C320.255 12.1129 320.476 12.0431 320.654 11.9035C320.833 11.7621 320.967 11.5724 321.056 11.3344C321.148 11.0945 321.193 10.8278 321.193 10.5343C321.193 10.2444 321.148 9.98304 321.059 9.75036C320.971 9.51589 320.838 9.33065 320.659 9.19462C320.482 9.0568 320.259 8.98789 319.99 8.98789C319.733 8.98789 319.516 9.05322 319.341 9.18388C319.165 9.31275 319.033 9.49352 318.943 9.7262C318.854 9.95709 318.809 10.2265 318.809 10.5343ZM322.796 12.5962V8.47242H323.43V12.5962H322.796ZM323.118 7.78513C322.995 7.78513 322.888 7.74307 322.799 7.65894C322.711 7.57482 322.667 7.4737 322.667 7.35557C322.667 7.23744 322.711 7.13631 322.799 7.05219C322.888 6.96807 322.995 6.92601 323.118 6.92601C323.242 6.92601 323.347 6.96807 323.435 7.05219C323.524 7.13631 323.569 7.23744 323.569 7.35557C323.569 7.4737 323.524 7.57482 323.435 7.65894C323.347 7.74307 323.242 7.78513 323.118 7.78513ZM327.511 9.39597L326.942 9.55706C326.906 9.4622 326.853 9.37002 326.783 9.28053C326.715 9.18925 326.622 9.11408 326.504 9.05501C326.386 8.99595 326.235 8.96641 326.051 8.96641C325.798 8.96641 325.588 9.02458 325.42 9.14092C325.253 9.25547 325.17 9.40134 325.17 9.57854C325.17 9.73604 325.227 9.86044 325.342 9.95172C325.456 10.043 325.635 10.1191 325.879 10.1799L326.491 10.3303C326.86 10.4198 327.134 10.5567 327.315 10.741C327.496 10.9236 327.586 11.159 327.586 11.4471C327.586 11.6834 327.518 11.8946 327.382 12.0807C327.248 12.2669 327.06 12.4136 326.818 12.521C326.577 12.6284 326.296 12.6821 325.975 12.6821C325.555 12.6821 325.207 12.5908 324.931 12.4083C324.655 12.2257 324.481 11.959 324.407 11.6082L325.009 11.4579C325.066 11.6798 325.174 11.8463 325.334 11.9572C325.495 12.0682 325.705 12.1237 325.965 12.1237C326.26 12.1237 326.494 12.061 326.668 11.9357C326.843 11.8087 326.931 11.6565 326.931 11.4793C326.931 11.3362 326.881 11.2162 326.781 11.1196C326.681 11.0211 326.527 10.9478 326.319 10.8994L325.632 10.7383C325.254 10.6489 324.977 10.5101 324.799 10.3222C324.624 10.1325 324.536 9.89534 324.536 9.61075C324.536 9.37808 324.602 9.17225 324.732 8.99326C324.865 8.81428 325.045 8.67378 325.272 8.57176C325.501 8.46974 325.761 8.41873 326.051 8.41873C326.459 8.41873 326.779 8.50822 327.012 8.6872C327.246 8.86618 327.413 9.10244 327.511 9.39597ZM328.54 12.5962V8.47242H329.174V12.5962H328.54ZM328.862 7.78513C328.739 7.78513 328.632 7.74307 328.543 7.65894C328.455 7.57482 328.411 7.4737 328.411 7.35557C328.411 7.23744 328.455 7.13631 328.543 7.05219C328.632 6.96807 328.739 6.92601 328.862 6.92601C328.986 6.92601 329.091 6.96807 329.179 7.05219C329.268 7.13631 329.313 7.23744 329.313 7.35557C329.313 7.4737 329.268 7.57482 329.179 7.65894C329.091 7.74307 328.986 7.78513 328.862 7.78513ZM332.009 12.6821C331.623 12.6821 331.29 12.5908 331.011 12.4083C330.731 12.2257 330.517 11.9742 330.366 11.6538C330.216 11.3335 330.141 10.9674 330.141 10.5558C330.141 10.137 330.218 9.76736 330.372 9.44698C330.527 9.12482 330.744 8.87334 331.021 8.69257C331.301 8.51001 331.626 8.41873 331.999 8.41873C332.289 8.41873 332.55 8.47242 332.783 8.57981C333.015 8.6872 333.206 8.83755 333.354 9.03085C333.503 9.22415 333.595 9.44967 333.631 9.7074H332.997C332.949 9.51947 332.842 9.35302 332.675 9.20804C332.51 9.06128 332.289 8.98789 332.009 8.98789C331.762 8.98789 331.546 9.05233 331.36 9.18119C331.175 9.30827 331.031 9.48815 330.927 9.72083C330.825 9.95172 330.774 10.2229 330.774 10.5343C330.774 10.8529 330.824 11.1303 330.925 11.3666C331.027 11.6028 331.17 11.7863 331.354 11.917C331.54 12.0476 331.759 12.1129 332.009 12.1129C332.174 12.1129 332.323 12.0843 332.458 12.027C332.592 11.9698 332.706 11.8874 332.799 11.78C332.892 11.6726 332.958 11.5438 332.997 11.3934H333.631C333.595 11.6368 333.507 11.8561 333.365 12.0512C333.226 12.2445 333.04 12.3984 332.809 12.513C332.58 12.6257 332.314 12.6821 332.009 12.6821ZM335.191 7.09783V12.5962H334.557V7.09783H335.191ZM338.08 12.6821C337.683 12.6821 337.34 12.5944 337.052 12.419C336.766 12.2418 336.545 11.9948 336.389 11.678C336.235 11.3594 336.158 10.9889 336.158 10.5665C336.158 10.1441 336.235 9.77184 336.389 9.44967C336.545 9.12571 336.761 8.87334 337.039 8.69257C337.318 8.51001 337.643 8.41873 338.016 8.41873C338.231 8.41873 338.443 8.45452 338.652 8.52612C338.861 8.59771 339.052 8.71405 339.224 8.87513C339.396 9.03443 339.533 9.24563 339.635 9.50873C339.737 9.77184 339.788 10.0958 339.788 10.4806V10.7491H336.609V10.2014H339.143C339.143 9.96872 339.097 9.7611 339.004 9.57854C338.912 9.39597 338.782 9.25189 338.612 9.14629C338.444 9.04069 338.245 8.98789 338.016 8.98789C337.763 8.98789 337.545 9.05054 337.361 9.17583C337.178 9.29932 337.038 9.46041 336.939 9.65908C336.841 9.85775 336.792 10.0707 336.792 10.298V10.6632C336.792 10.9746 336.845 11.2386 336.953 11.4552C337.062 11.67 337.213 11.8337 337.406 11.9465C337.6 12.0575 337.824 12.1129 338.08 12.1129C338.247 12.1129 338.397 12.0897 338.531 12.0431C338.667 11.9948 338.785 11.9232 338.883 11.8284C338.981 11.7317 339.057 11.6118 339.111 11.4686L339.723 11.6404C339.659 11.848 339.551 12.0306 339.398 12.1881C339.246 12.3438 339.058 12.4655 338.835 12.5532C338.611 12.6391 338.359 12.6821 338.08 12.6821ZM341.965 12.6928C341.704 12.6928 341.467 12.6436 341.254 12.5452C341.041 12.445 340.871 12.3009 340.746 12.1129C340.621 11.9232 340.558 11.6941 340.558 11.4256C340.558 11.1894 340.605 10.9979 340.698 10.8511C340.791 10.7026 340.915 10.5862 341.071 10.5021C341.227 10.418 341.399 10.3553 341.586 10.3142C341.776 10.2712 341.967 10.2372 342.158 10.2121C342.409 10.1799 342.612 10.1558 342.768 10.1396C342.925 10.1218 343.04 10.0922 343.111 10.0511C343.185 10.0099 343.221 9.93829 343.221 9.83627V9.81479C343.221 9.5499 343.149 9.34407 343.004 9.1973C342.861 9.05054 342.643 8.97715 342.352 8.97715C342.049 8.97715 341.812 9.04338 341.64 9.17583C341.468 9.30827 341.348 9.44967 341.278 9.60001L340.676 9.38524C340.784 9.13466 340.927 8.93957 341.106 8.79996C341.287 8.65856 341.484 8.56012 341.697 8.50464C341.911 8.44736 342.123 8.41873 342.33 8.41873C342.463 8.41873 342.615 8.43484 342.787 8.46705C342.96 8.49748 343.128 8.56102 343.289 8.65767C343.451 8.75432 343.587 8.90019 343.694 9.09528C343.801 9.29037 343.855 9.55169 343.855 9.87923V12.5962H343.221V12.0378H343.189C343.146 12.1273 343.075 12.223 342.975 12.325C342.874 12.4271 342.741 12.5139 342.574 12.5855C342.408 12.657 342.205 12.6928 341.965 12.6928ZM342.062 12.1237C342.312 12.1237 342.523 12.0745 342.695 11.976C342.869 11.8776 343 11.7505 343.087 11.5948C343.177 11.4391 343.221 11.2753 343.221 11.1035V10.5236C343.195 10.5558 343.136 10.5853 343.044 10.6122C342.955 10.6372 342.851 10.6596 342.733 10.6793C342.617 10.6972 342.503 10.7133 342.392 10.7276C342.283 10.7401 342.194 10.7509 342.126 10.7598C341.961 10.7813 341.808 10.8162 341.664 10.8645C341.523 10.9111 341.408 10.9818 341.321 11.0766C341.235 11.1697 341.192 11.2968 341.192 11.4579C341.192 11.678 341.273 11.8445 341.436 11.9572C341.601 12.0682 341.809 12.1237 342.062 12.1237ZM345.645 10.1155V12.5962H345.012V8.47242H345.624V9.11676H345.677C345.774 8.90735 345.921 8.73911 346.118 8.61203C346.315 8.48316 346.569 8.41873 346.88 8.41873C347.159 8.41873 347.404 8.476 347.613 8.59055C347.822 8.70331 347.985 8.87513 348.102 9.10602C348.218 9.33512 348.276 9.62507 348.276 9.97588V12.5962H347.643V10.0188C347.643 9.69488 347.558 9.44251 347.39 9.26174C347.222 9.07917 346.991 8.98789 346.698 8.98789C346.495 8.98789 346.315 9.03174 346.155 9.11945C345.998 9.20715 345.873 9.33512 345.782 9.50336C345.691 9.67161 345.645 9.87565 345.645 10.1155ZM349.434 12.5962V8.47242H350.068V12.5962H349.434ZM349.756 7.78513C349.633 7.78513 349.526 7.74307 349.437 7.65894C349.349 7.57482 349.305 7.4737 349.305 7.35557C349.305 7.23744 349.349 7.13631 349.437 7.05219C349.526 6.96807 349.633 6.92601 349.756 6.92601C349.88 6.92601 349.985 6.96807 350.073 7.05219C350.162 7.13631 350.207 7.23744 350.207 7.35557C350.207 7.4737 350.162 7.57482 350.073 7.65894C349.985 7.74307 349.88 7.78513 349.756 7.78513ZM351.862 10.1155V12.5962H351.228V8.47242H351.84V9.11676H351.894C351.991 8.90735 352.137 8.73911 352.334 8.61203C352.531 8.48316 352.785 8.41873 353.097 8.41873C353.376 8.41873 353.62 8.476 353.83 8.59055C354.039 8.70331 354.202 8.87513 354.318 9.10602C354.435 9.33512 354.493 9.62507 354.493 9.97588V12.5962H353.859V10.0188C353.859 9.69488 353.775 9.44251 353.607 9.26174C353.439 9.07917 353.208 8.98789 352.914 8.98789C352.712 8.98789 352.531 9.03174 352.372 9.11945C352.214 9.20715 352.09 9.33512 351.999 9.50336C351.907 9.67161 351.862 9.87565 351.862 10.1155ZM357.315 14.2285C357.009 14.2285 356.746 14.1891 356.526 14.1104C356.306 14.0334 356.122 13.9314 355.975 13.8043C355.83 13.679 355.715 13.5448 355.629 13.4016L356.134 13.0472C356.191 13.1224 356.264 13.2083 356.351 13.305C356.439 13.4034 356.559 13.4884 356.711 13.56C356.865 13.6334 357.066 13.6701 357.315 13.6701C357.648 13.6701 357.923 13.5895 358.139 13.4285C358.356 13.2674 358.464 13.015 358.464 12.6714V11.8337H358.41C358.364 11.9089 358.298 12.002 358.212 12.1129C358.128 12.2221 358.006 12.3197 357.847 12.4056C357.689 12.4897 357.476 12.5318 357.208 12.5318C356.875 12.5318 356.576 12.453 356.311 12.2955C356.048 12.138 355.839 11.9089 355.685 11.6082C355.533 11.3075 355.457 10.9424 355.457 10.5128C355.457 10.0904 355.532 9.72262 355.68 9.4094C355.829 9.09439 356.035 8.85097 356.3 8.67915C356.565 8.50553 356.871 8.41873 357.218 8.41873C357.487 8.41873 357.7 8.46347 357.857 8.55296C358.017 8.64067 358.138 8.7409 358.223 8.85366C358.308 8.96463 358.375 9.05591 358.421 9.1275H358.486V8.47242H359.098V12.7143C359.098 13.0687 359.017 13.3569 358.856 13.5788C358.697 13.8025 358.482 13.9663 358.212 14.0701C357.943 14.1757 357.644 14.2285 357.315 14.2285ZM357.294 11.9626C357.548 11.9626 357.763 11.9044 357.938 11.7881C358.113 11.6717 358.247 11.5044 358.338 11.286C358.429 11.0677 358.475 10.8064 358.475 10.5021C358.475 10.205 358.43 9.94277 358.341 9.71546C358.251 9.48815 358.119 9.31006 357.943 9.18119C357.768 9.05233 357.551 8.98789 357.294 8.98789C357.025 8.98789 356.801 9.05591 356.622 9.19193C356.445 9.32796 356.312 9.51052 356.222 9.73962C356.135 9.96872 356.091 10.2229 356.091 10.5021C356.091 10.7885 356.136 11.0417 356.225 11.2619C356.316 11.4802 356.451 11.6521 356.628 11.7773C356.807 11.9008 357.029 11.9626 357.294 11.9626ZM360.719 12.6391C360.587 12.6391 360.473 12.5917 360.378 12.4969C360.284 12.402 360.236 12.2883 360.236 12.1559C360.236 12.0234 360.284 11.9098 360.378 11.8149C360.473 11.7201 360.587 11.6726 360.719 11.6726C360.852 11.6726 360.965 11.7201 361.06 11.8149C361.155 11.9098 361.203 12.0234 361.203 12.1559C361.203 12.2436 361.18 12.3241 361.135 12.3975C361.093 12.4709 361.034 12.53 360.961 12.5747C360.889 12.6177 360.809 12.6391 360.719 12.6391ZM362.34 14.1426V8.47242H362.952V9.1275H363.027C363.073 9.05591 363.138 8.96463 363.22 8.85366C363.304 8.7409 363.424 8.64067 363.58 8.55296C363.737 8.46347 363.95 8.41873 364.219 8.41873C364.566 8.41873 364.872 8.50553 365.137 8.67915C365.402 8.85276 365.609 9.09886 365.757 9.41745C365.906 9.73604 365.98 10.1119 365.98 10.545C365.98 10.9818 365.906 11.3603 365.757 11.6807C365.609 11.9993 365.403 12.2463 365.14 12.4217C364.877 12.5953 364.573 12.6821 364.23 12.6821C363.965 12.6821 363.753 12.6383 363.593 12.5506C363.434 12.4611 363.311 12.3599 363.226 12.2472C363.14 12.1326 363.073 12.0378 363.027 11.9626H362.973V14.1426H362.34ZM362.962 10.5343C362.962 10.8457 363.008 11.1205 363.099 11.3585C363.191 11.5948 363.324 11.78 363.499 11.9143C363.675 12.0467 363.89 12.1129 364.144 12.1129C364.409 12.1129 364.63 12.0431 364.807 11.9035C364.986 11.7621 365.12 11.5724 365.21 11.3344C365.301 11.0945 365.346 10.8278 365.346 10.5343C365.346 10.2444 365.302 9.98304 365.212 9.75036C365.125 9.51589 364.991 9.33065 364.812 9.19462C364.635 9.0568 364.412 8.98789 364.144 8.98789C363.886 8.98789 363.669 9.05322 363.494 9.18388C363.319 9.31275 363.186 9.49352 363.097 9.7262C363.007 9.95709 362.962 10.2265 362.962 10.5343ZM367.58 7.09783V12.5962H366.947V7.09783H367.58Z" fill="black"/>
<defs>
<linearGradient id="paint0_linear_542_10460" x1="340" y1="0" x2="340" y2="18.9006" gradientUnits="userSpaceOnUse">
<stop stop-color="#F4F4F4"/>
<stop offset="1" stop-color="#E7E7E7"/>
</linearGradient>
</defs>
</svg>
