<svg width="692" height="359" viewBox="0 0 692 359" fill="none" xmlns="http://www.w3.org/2000/svg">
<rect width="692" height="359" rx="8" fill="#173778"/>
<path fill-rule="evenodd" clip-rule="evenodd" d="M143.167 150.632C137.289 158.559 133.812 168.373 133.812 178.999C133.812 205.329 155.157 226.674 181.487 226.674C207.817 226.674 229.162 205.329 229.162 178.999C229.162 152.669 207.817 131.324 181.487 131.324C175.273 131.324 169.337 132.513 163.894 134.676C167.004 136.94 169.867 139.524 172.434 142.38C175.334 141.665 178.367 141.286 181.487 141.286C202.316 141.286 219.2 158.171 219.2 178.999C219.2 199.827 202.316 216.712 181.487 216.712C160.659 216.712 143.774 199.827 143.774 178.999C143.774 170.28 146.734 162.251 151.702 155.864C149.183 153.682 146.304 151.904 143.167 150.632Z" fill="white"/>
<path fill-rule="evenodd" clip-rule="evenodd" d="M93.9619 178.999C93.9619 158.171 110.847 141.286 131.675 141.286C152.503 141.286 169.388 158.171 169.388 178.999C169.388 187.718 166.429 195.747 161.46 202.134C163.979 204.317 166.858 206.094 169.996 207.366C175.873 199.439 179.35 189.625 179.35 178.999C179.35 152.669 158.005 131.324 131.675 131.324C105.345 131.324 84 152.669 84 178.999C84 205.329 105.345 226.674 131.675 226.674C137.889 226.674 143.825 225.485 149.269 223.322C146.158 221.058 143.295 218.474 140.728 215.618C137.828 216.333 134.796 216.712 131.675 216.712C110.847 216.712 93.9619 199.827 93.9619 178.999Z" fill="white"/>
<path d="M258.83 212V141.569H285.927C289.712 141.569 293.166 141.968 296.287 142.765C299.408 143.495 302.131 144.724 304.456 146.451C306.78 148.111 308.573 150.369 309.835 153.225C311.097 156.081 311.728 159.6 311.728 163.784C311.728 167.57 311.064 170.824 309.736 173.547C308.407 176.27 306.581 178.528 304.257 180.321C301.932 182.114 299.309 183.476 296.387 184.406L311.429 212H299.774L285.827 186.099H269.39V212H258.83ZM269.39 176.635H283.735C286.126 176.635 288.351 176.469 290.409 176.137C292.535 175.739 294.394 175.075 295.988 174.145C297.582 173.149 298.811 171.82 299.674 170.16C300.604 168.433 301.069 166.242 301.069 163.585C301.135 160.53 300.537 158.106 299.276 156.313C298.08 154.453 296.287 153.158 293.896 152.428C291.505 151.631 288.616 151.232 285.229 151.232H269.39V176.635ZM321.388 212V159.501H331.649V212H321.388ZM326.468 152.527C324.476 152.527 322.849 151.93 321.587 150.734C320.392 149.472 319.794 147.879 319.794 145.953C319.794 144.027 320.425 142.466 321.687 141.27C322.949 140.009 324.543 139.378 326.468 139.378C328.262 139.378 329.822 140.009 331.151 141.27C332.545 142.466 333.243 144.027 333.243 145.953C333.243 147.879 332.578 149.472 331.25 150.734C329.988 151.93 328.394 152.527 326.468 152.527ZM363.573 212.598C358.327 212.598 353.977 211.435 350.523 209.111C347.136 206.72 344.579 203.499 342.853 199.448C341.192 195.397 340.362 190.848 340.362 185.8C340.362 180.686 341.226 176.104 342.952 172.053C344.679 167.935 347.302 164.714 350.822 162.39C354.342 159.999 358.792 158.803 364.171 158.803C366.164 158.803 368.156 159.036 370.148 159.501C372.207 159.966 374.1 160.696 375.827 161.692C377.62 162.622 379.147 163.884 380.409 165.478V141.569H390.67V212H380.808L380.409 204.827C379.214 206.621 377.719 208.115 375.926 209.31C374.199 210.439 372.274 211.269 370.148 211.801C368.023 212.332 365.831 212.598 363.573 212.598ZM365.267 203.433C368.654 203.433 371.443 202.603 373.635 200.942C375.893 199.282 377.587 197.09 378.716 194.367C379.845 191.645 380.409 188.689 380.409 185.501C380.409 182.247 379.845 179.325 378.716 176.735C377.653 174.078 375.993 171.986 373.735 170.459C371.543 168.865 368.72 168.068 365.267 168.068C361.681 168.068 358.825 168.898 356.7 170.558C354.575 172.152 353.014 174.311 352.018 177.034C351.088 179.757 350.623 182.745 350.623 185.999C350.623 188.39 350.889 190.648 351.42 192.774C351.951 194.832 352.781 196.692 353.91 198.352C355.106 199.946 356.633 201.208 358.493 202.138C360.352 203.001 362.61 203.433 365.267 203.433ZM401.262 212V159.501H411.523V212H401.262ZM406.343 152.527C404.35 152.527 402.723 151.93 401.461 150.734C400.266 149.472 399.668 147.879 399.668 145.953C399.668 144.027 400.299 142.466 401.561 141.27C402.823 140.009 404.417 139.378 406.343 139.378C408.136 139.378 409.697 140.009 411.025 141.27C412.419 142.466 413.117 144.027 413.117 145.953C413.117 147.879 412.453 149.472 411.124 150.734C409.863 151.93 408.269 152.527 406.343 152.527ZM436.076 212L416.451 159.501H427.907L443.049 202.735L458.092 159.501H469.648L450.023 212H436.076ZM474.326 212V159.501H484.587V212H474.326ZM479.407 152.527C477.415 152.527 475.788 151.93 474.526 150.734C473.33 149.472 472.733 147.879 472.733 145.953C472.733 144.027 473.364 142.466 474.625 141.27C475.887 140.009 477.481 139.378 479.407 139.378C481.2 139.378 482.761 140.009 484.089 141.27C485.484 142.466 486.181 144.027 486.181 145.953C486.181 147.879 485.517 149.472 484.189 150.734C482.927 151.93 481.333 152.527 479.407 152.527ZM514.918 212.598C512.461 212.598 510.004 212.365 507.546 211.9C505.089 211.435 502.798 210.605 500.673 209.41C498.547 208.214 496.754 206.621 495.293 204.628C493.832 202.569 492.902 200.046 492.504 197.057H502.964C503.495 198.651 504.425 199.946 505.753 200.942C507.148 201.938 508.675 202.669 510.336 203.134C512.062 203.599 513.756 203.831 515.416 203.831C516.412 203.831 517.508 203.765 518.704 203.632C519.966 203.499 521.161 203.2 522.29 202.735C523.419 202.271 524.349 201.606 525.079 200.743C525.81 199.813 526.175 198.585 526.175 197.057C526.175 195.862 525.843 194.866 525.179 194.069C524.581 193.272 523.718 192.641 522.589 192.176C521.526 191.645 520.231 191.246 518.704 190.98C515.715 190.316 512.494 189.685 509.041 189.088C505.654 188.423 502.665 187.294 500.075 185.701C499.145 185.103 498.315 184.439 497.584 183.708C496.854 182.911 496.223 182.015 495.692 181.018C495.16 180.022 494.762 178.96 494.496 177.831C494.231 176.702 494.098 175.473 494.098 174.145C494.098 171.422 494.629 169.097 495.692 167.171C496.821 165.245 498.348 163.685 500.274 162.489C502.2 161.227 504.392 160.298 506.849 159.7C509.306 159.102 511.896 158.803 514.619 158.803C518.139 158.803 521.327 159.368 524.183 160.497C527.038 161.626 529.396 163.286 531.256 165.478C533.115 167.67 534.211 170.426 534.543 173.746H524.88C524.482 171.953 523.319 170.525 521.393 169.463C519.534 168.334 517.176 167.769 514.32 167.769C513.324 167.769 512.228 167.836 511.033 167.968C509.904 168.101 508.808 168.4 507.746 168.865C506.683 169.33 505.82 169.994 505.155 170.857C504.491 171.654 504.159 172.717 504.159 174.045C504.159 175.307 504.458 176.37 505.056 177.233C505.72 178.096 506.65 178.794 507.845 179.325C509.107 179.856 510.535 180.288 512.129 180.62C514.387 181.151 516.811 181.649 519.401 182.114C522.058 182.579 524.216 183.077 525.876 183.609C528.068 184.206 529.927 185.07 531.455 186.199C533.049 187.328 534.244 188.756 535.041 190.482C535.905 192.209 536.336 194.301 536.336 196.758C536.336 199.946 535.705 202.569 534.443 204.628C533.182 206.621 531.488 208.214 529.363 209.41C527.304 210.605 524.98 211.435 522.39 211.9C519.866 212.365 517.375 212.598 514.918 212.598ZM560.819 212.598C558.428 212.598 556.104 212.299 553.846 211.701C551.654 211.037 549.695 210.074 547.968 208.812C546.242 207.484 544.847 205.857 543.784 203.931C542.788 201.938 542.29 199.614 542.29 196.958C542.29 193.77 542.888 191.146 544.083 189.088C545.345 186.962 547.005 185.335 549.064 184.206C551.123 183.011 553.481 182.181 556.137 181.716C558.86 181.185 561.683 180.919 564.605 180.919H577.456C577.456 178.329 577.057 176.071 576.26 174.145C575.463 172.152 574.201 170.625 572.475 169.562C570.814 168.433 568.589 167.869 565.8 167.869C564.14 167.869 562.546 168.068 561.018 168.466C559.557 168.799 558.296 169.363 557.233 170.16C556.17 170.957 555.44 172.02 555.041 173.348H544.282C544.681 170.824 545.577 168.666 546.972 166.873C548.367 165.013 550.094 163.486 552.152 162.29C554.211 161.095 556.403 160.231 558.727 159.7C561.118 159.102 563.542 158.803 565.999 158.803C573.57 158.803 579.016 161.028 582.337 165.478C585.724 169.861 587.417 175.905 587.417 183.609V212H578.551L578.153 205.326C576.625 207.384 574.799 208.945 572.674 210.008C570.615 211.07 568.556 211.768 566.497 212.1C564.439 212.432 562.546 212.598 560.819 212.598ZM562.413 203.931C565.402 203.931 568.025 203.433 570.283 202.437C572.541 201.374 574.301 199.88 575.563 197.954C576.825 195.961 577.456 193.637 577.456 190.98V188.789H568.091C566.165 188.789 564.273 188.855 562.413 188.988C560.62 189.054 558.96 189.32 557.432 189.785C555.971 190.183 554.776 190.881 553.846 191.877C552.982 192.873 552.551 194.301 552.551 196.161C552.551 197.954 553.016 199.415 553.945 200.544C554.875 201.673 556.104 202.536 557.631 203.134C559.159 203.665 560.753 203.931 562.413 203.931Z" fill="white"/>
</svg>
