<svg width="89" height="76" viewBox="0 0 89 76" fill="none" xmlns="http://www.w3.org/2000/svg">
<path opacity="0.2" d="M88.6738 67.8179C88.8557 67.4457 88.7015 66.9966 88.3293 66.8147L82.2648 63.851C81.8926 63.6691 81.4435 63.8234 81.2616 64.1955C81.0797 64.5677 81.234 65.0168 81.6061 65.1987L86.9969 67.8331L84.3624 73.2238C84.1805 73.5959 84.3348 74.0451 84.707 74.2269C85.0791 74.4088 85.5282 74.2546 85.7101 73.8824L88.6738 67.8179ZM87.7564 66.7792C54.3232 78.262 32.9384 76.2777 19.8815 64.3205C6.7634 52.3071 1.75 29.9861 1.75 0H0.25C0.25 30.0139 5.2366 52.9429 18.8685 65.4267C32.5616 77.9666 54.6768 79.7265 88.2436 68.1979L87.7564 66.7792Z" fill="white"/>
</svg>
