<svg width="89" height="76" viewBox="0 0 89 76" fill="none" xmlns="http://www.w3.org/2000/svg">
<path opacity="0.2" d="M0.326161 67.8179C0.144291 67.4457 0.298545 66.9966 0.670695 66.8147L6.73524 63.851C7.10739 63.6691 7.55652 63.8234 7.73839 64.1955C7.92026 64.5677 7.766 65.0168 7.39385 65.1987L2.00314 67.8331L4.63758 73.2238C4.81945 73.5959 4.6652 74.0451 4.29305 74.2269C3.9209 74.4088 3.47177 74.2546 3.2899 73.8824L0.326161 67.8179ZM1.24362 66.7792C34.6768 78.262 56.0616 76.2777 69.1185 64.3205C82.2366 52.3071 87.25 29.9861 87.25 0H88.75C88.75 30.0139 83.7634 52.9429 70.1315 65.4267C56.4384 77.9666 34.3232 79.7265 0.756378 68.1979L1.24362 66.7792Z" fill="white"/>
</svg>
