<svg width="327" height="135" viewBox="0 0 327 135" fill="none" xmlns="http://www.w3.org/2000/svg">
<path d="M133.48 22.5125L135.976 8.64347L140.983 9.54449C145.097 10.2847 147.053 13.2561 146.269 17.61L146.266 17.6293C145.474 22.0312 142.62 24.1572 138.487 23.4136L133.48 22.5125ZM135.967 21.0449L138.581 21.5153C141.484 22.0376 143.49 20.4836 144.069 17.2638L144.073 17.2446C144.647 14.0536 143.283 11.8733 140.409 11.3562L137.795 10.8858L135.967 21.0449ZM150.073 25.7066C147.017 25.1567 145.547 22.739 146.142 19.4327L146.143 19.4231C146.73 16.1648 149.006 14.3221 151.918 14.8461C154.83 15.3701 156.239 17.7966 155.676 20.9299L155.544 21.6604L148.143 20.3287C147.822 22.3348 148.709 23.6949 150.429 24.0044C151.765 24.2448 152.682 23.7252 153.029 23.2319L153.081 23.162L155.092 23.5138L155.057 23.5968C154.463 24.909 152.745 26.1874 150.073 25.7066ZM151.62 16.5586C150.197 16.3026 148.946 17.0797 148.44 18.8441L153.746 19.7988C153.918 17.9048 153.033 16.8128 151.62 16.5586ZM158.975 27.3084C156.457 26.8553 155.074 25.386 155.187 23.6004L155.189 23.5908L157.274 23.9661L157.282 23.9775C157.4 24.8123 158.064 25.4775 159.304 25.7006C160.592 25.9324 161.591 25.5069 161.745 24.6515L161.749 24.6323C161.866 23.9787 161.456 23.4484 160.295 22.9518L158.701 22.2681C156.812 21.4619 156.06 20.4037 156.335 18.8755L156.337 18.8659C156.664 17.0494 158.59 16.0466 160.955 16.4721C163.338 16.901 164.652 18.3677 164.529 20.1018L164.527 20.1114L162.537 19.7534L162.541 19.7342C162.47 18.9674 161.829 18.2864 160.656 18.0754C159.513 17.8696 158.584 18.288 158.433 19.1241L158.43 19.1434C158.312 19.7969 158.72 20.2871 159.843 20.7768L161.428 21.4491C163.352 22.2815 164.16 23.3098 163.888 24.8188L163.885 24.838C163.537 26.7699 161.455 27.7546 158.975 27.3084ZM167.157 15.8715C166.436 15.7418 165.955 15.05 166.083 14.3388C166.213 13.618 166.905 13.1372 167.626 13.2669C168.337 13.3948 168.827 14.0884 168.698 14.8092C168.57 15.5204 167.868 15.9995 167.157 15.8715ZM163.896 27.9854L165.774 17.5476L167.85 17.9212L165.972 28.359L163.896 27.9854ZM170.79 33.0262C168.137 32.5489 166.713 31.0919 166.776 29.3073L166.798 29.2916L168.903 29.6703L168.909 29.6913C168.953 30.4432 169.707 31.1048 171.12 31.3591C172.84 31.6686 174.004 31.0446 174.26 29.6221L174.63 27.5653L174.476 27.5376C173.638 28.5576 172.37 28.9844 170.938 28.7268C168.257 28.2443 166.976 25.8804 167.505 22.9393L167.508 22.9201C168.044 19.9406 170.086 18.1349 172.796 18.6226C174.257 18.8855 175.262 19.8104 175.656 21.0919L175.781 21.1144L176.089 19.4036L178.165 19.7772L176.325 30.0036C175.898 32.3775 173.75 33.5589 170.79 33.0262ZM171.825 27.1101C173.593 27.4283 174.902 26.2747 175.253 24.3236L175.257 24.3044C175.606 22.3629 174.775 20.8044 173.016 20.4879C171.238 20.168 169.993 21.3529 169.644 23.2944L169.64 23.3136C169.291 25.2551 170.047 26.7902 171.825 27.1101ZM177.317 30.4004L179.195 19.9626L181.281 20.3378L180.995 21.9237L181.149 21.9514C181.859 20.9281 182.98 20.4352 184.498 20.7084C186.834 21.1287 187.871 22.7541 187.423 25.2434L186.207 32.0001L184.131 31.6266L185.259 25.36C185.57 23.63 185.003 22.6449 183.475 22.3699C181.947 22.0949 180.807 22.9713 180.504 24.6533L179.403 30.7757L177.317 30.4004ZM191.498 33.1604C188.441 32.6104 186.971 30.1927 187.566 26.8865L187.568 26.8768C188.154 23.6186 190.431 21.7758 193.343 22.2998C196.255 22.8239 197.664 25.2504 197.1 28.3837L196.969 29.1141L189.568 27.7825C189.247 29.7885 190.133 31.1487 191.854 31.4582C193.19 31.6986 194.107 31.179 194.453 30.6857L194.506 30.6157L196.516 30.9676L196.481 31.0506C195.888 32.3628 194.17 33.6412 191.498 33.1604ZM193.045 24.0124C191.622 23.7564 190.371 24.5335 189.865 26.2979L195.17 27.2526C195.342 25.3586 194.457 24.2666 193.045 24.0124ZM200.414 34.7351C197.791 34.2629 196.468 31.852 197.058 28.5745L197.061 28.5553C197.656 25.249 199.704 23.4643 202.357 23.9416C203.789 24.1993 204.881 25.1302 205.236 26.355L205.4 26.3844L206.434 20.6368L208.51 21.0104L205.895 35.5426L203.819 35.1691L204.115 33.5256L203.951 33.4962C203.14 34.5309 201.875 34.9979 200.414 34.7351ZM201.33 33.0642C203.07 33.3772 204.384 32.1948 204.785 29.965L204.789 29.9457C205.19 27.7159 204.361 26.1478 202.631 25.8365C200.882 25.5218 199.588 26.6981 199.185 28.9375L199.182 28.9567C198.779 31.1961 199.581 32.7494 201.33 33.0642ZM213.278 37.0497C211.289 36.6917 210.036 35.2161 210.377 33.3227L210.38 33.3035C210.716 31.4389 212.314 30.6053 214.831 30.8994L217.686 31.2445L217.853 30.3218C218.058 29.1781 217.452 28.414 216.039 28.1598C214.885 27.9523 214.05 28.2385 213.667 28.9336L213.65 28.9704L211.642 28.6089L211.663 28.5434C212.221 26.8775 214.07 26.0295 216.444 26.4567C219.068 26.9288 220.313 28.5023 219.919 30.6936L218.634 37.8348L216.568 37.463L216.834 35.9828L216.67 35.9534C215.865 36.9 214.662 37.2987 213.278 37.0497ZM212.468 33.6097C212.295 34.5709 213.01 35.2849 214.135 35.4873C215.692 35.7674 217.019 34.9544 217.261 33.6089L217.422 32.715L214.845 32.4201C213.388 32.2472 212.641 32.6486 212.472 33.5905L212.468 33.6097ZM219.607 38.0098L221.485 27.572L223.57 27.9473L223.285 29.5331L223.439 29.5608C224.149 28.5375 225.269 28.0446 226.788 28.3179C229.124 28.7381 230.161 30.3635 229.713 32.8528L228.497 39.6095L226.421 39.236L227.549 32.9694C227.86 31.2394 227.293 30.2543 225.765 29.9793C224.237 29.7043 223.097 30.5808 222.794 32.2627L221.692 38.3851L219.607 38.0098ZM233.216 40.6372C230.592 40.1651 229.269 37.7541 229.859 34.4767L229.863 34.4574C230.458 31.1512 232.505 29.3664 235.158 29.8438C236.59 30.1014 237.683 31.0323 238.038 32.2571L238.201 32.2865L239.235 26.539L241.311 26.9125L238.697 41.4448L236.621 41.0712L236.916 39.4277L236.753 39.3983C235.942 40.4331 234.677 40.9001 233.216 40.6372ZM234.132 38.9664C235.871 39.2794 237.185 38.0969 237.587 35.8671L237.59 35.8479C237.991 33.6181 237.162 32.05 235.432 31.7387C233.683 31.4239 232.39 32.6002 231.987 34.8396L231.983 34.8589C231.58 37.0983 232.382 38.6516 234.132 38.9664ZM132.112 34.9672C131.391 34.8374 130.911 34.1457 131.039 33.4344C131.168 32.7136 131.86 32.2328 132.581 32.3625C133.292 32.4905 133.782 33.184 133.653 33.9048C133.525 34.6161 132.823 35.0951 132.112 34.9672ZM128.851 47.0811L130.729 36.6432L132.805 37.0168L130.927 47.4546L128.851 47.0811ZM131.996 47.6469L133.874 37.2091L135.959 37.5844L135.671 39.1895L135.824 39.2171C136.492 38.1564 137.63 37.6765 138.995 37.9221C140.417 38.1781 141.293 39.0997 141.552 40.3073L141.715 40.3367C142.446 39.3073 143.781 38.7834 145.232 39.0445C147.337 39.4233 148.339 40.9133 147.948 43.0855L146.653 50.2843L144.577 49.9107L145.782 43.2117C146.042 41.77 145.516 40.9412 144.151 40.6956C142.825 40.4569 141.772 41.2895 141.546 42.5486L140.358 49.1515L138.281 48.778L139.525 41.8675C139.739 40.6757 139.096 39.7859 137.866 39.5645C136.606 39.338 135.48 40.2467 135.235 41.6115L134.081 48.0222L131.996 47.6469ZM146.971 53.9334L149.475 40.0163L151.561 40.3916L151.265 42.0351L151.419 42.0628C152.23 41.028 153.496 40.5514 154.957 40.8142C157.591 41.2881 158.904 43.6974 158.312 46.9844L158.309 47.0036C157.714 50.3099 155.668 52.085 153.015 51.6077C151.583 51.35 150.489 50.4288 150.134 49.2039L149.98 49.1763L149.056 54.3087L146.971 53.9334ZM152.749 49.7241C154.488 50.0372 155.782 48.8609 156.185 46.6214L156.188 46.6022C156.593 44.3532 155.789 42.8095 154.049 42.4964C152.31 42.1834 150.986 43.3641 150.585 45.594L150.581 45.6132C150.18 47.843 151.009 49.4111 152.749 49.7241ZM158.008 52.3274L160.623 37.7952L162.708 38.1705L160.093 52.7027L158.008 52.3274ZM165.576 53.8976C162.519 53.3476 161.049 50.9299 161.644 47.6237L161.646 47.614C162.232 44.3558 164.509 42.513 167.421 43.037C170.333 43.5611 171.742 45.9876 171.178 49.1209L171.047 49.8513L163.646 48.5197C163.325 50.5257 164.211 51.8859 165.932 52.1954C167.268 52.4358 168.185 51.9162 168.531 51.4229L168.584 51.3529L170.594 51.7048L170.559 51.7878C169.966 53.1 168.248 54.3784 165.576 53.8976ZM167.123 44.7496C165.7 44.4936 164.449 45.2707 163.943 47.0351L169.248 47.9898C169.421 46.0958 168.535 45.0038 167.123 44.7496ZM170.718 54.6144L172.596 44.1766L174.681 44.5518L174.393 46.1569L174.546 46.1846C175.213 45.1239 176.352 44.644 177.716 44.8896C179.139 45.1455 180.015 46.0672 180.274 47.2747L180.437 47.3041C181.168 46.2747 182.503 45.7508 183.954 46.012C186.059 46.3907 187.061 47.8808 186.67 50.0529L185.375 57.2518L183.299 56.8782L184.504 50.1792C184.764 48.7375 184.238 47.9086 182.873 47.6631C181.547 47.4244 180.494 48.257 180.268 49.5161L179.079 56.119L177.003 55.7454L178.247 48.8349C178.461 47.6431 177.818 46.7534 176.587 46.532C175.328 46.3055 174.202 47.2142 173.957 48.579L172.803 54.9897L170.718 54.6144ZM190.665 58.412C187.609 57.8621 186.139 55.4444 186.733 52.1381L186.735 52.1285C187.321 48.8703 189.598 47.0275 192.51 47.5515C195.422 48.0755 196.831 50.5021 196.267 53.6353L196.136 54.3658L188.735 53.0341C188.414 55.0402 189.301 56.4003 191.021 56.7099C192.357 56.9503 193.274 56.4306 193.621 55.9374L193.673 55.8674L195.683 56.2192L195.649 56.3023C195.055 57.6144 193.337 58.8928 190.665 58.412ZM192.212 49.264C190.789 49.0081 189.538 49.7851 189.032 51.5496L194.338 52.5042C194.51 50.6102 193.625 49.5183 192.212 49.264ZM195.807 59.1289L197.685 48.691L199.771 49.0663L199.485 50.6522L199.639 50.6798C200.349 49.6566 201.47 49.1637 202.988 49.4369C205.324 49.8572 206.361 51.4825 205.913 53.9719L204.697 60.7286L202.621 60.355L203.749 54.0885C204.06 52.3584 203.493 51.3733 201.965 51.0984C200.437 50.8234 199.297 51.6998 198.994 53.3818L197.892 59.5042L195.807 59.1289ZM209.57 61.6747C207.273 61.2614 206.476 60.2846 206.837 58.2758L207.925 52.2303L206.291 51.9363L206.587 50.2928L208.221 50.5868L208.695 47.9533L210.819 48.3355L210.345 50.969L212.584 51.372L212.289 53.0155L210.049 52.6125L209.051 58.1582C208.849 59.2828 209.189 59.8202 210.217 60.0052C210.534 60.0623 210.719 60.0856 211.012 60.1086L210.713 61.7714C210.366 61.7685 209.973 61.7474 209.57 61.6747ZM215.401 62.8629C212.344 62.3129 210.874 59.8952 211.469 56.5889L211.471 56.5793C212.057 53.3211 214.333 51.4783 217.246 52.0023C220.158 52.5263 221.567 54.9529 221.003 58.0862L220.872 58.8166L213.471 57.485C213.15 59.491 214.036 60.8511 215.756 61.1607C217.092 61.4011 218.01 60.8815 218.356 60.3882L218.409 60.3182L220.419 60.6701L220.384 60.7531C219.791 62.0653 218.073 63.3436 215.401 62.8629ZM216.947 53.7149C215.525 53.4589 214.274 54.236 213.768 56.0004L219.073 56.955C219.245 55.0611 218.36 53.9691 216.947 53.7149ZM224.317 64.4375C221.693 63.9654 220.371 61.5544 220.961 58.277L220.964 58.2578C221.559 54.9515 223.607 53.1668 226.259 53.6441C227.692 53.9018 228.784 54.8326 229.139 56.0575L229.303 56.0869L230.337 50.3393L232.413 50.7129L229.798 65.2451L227.722 64.8716L228.018 63.228L227.854 63.1986C227.043 64.2334 225.778 64.7004 224.317 64.4375ZM225.233 62.7667C226.973 63.0797 228.287 61.8973 228.688 59.6674L228.692 59.6482C229.093 57.4184 228.264 55.8503 226.534 55.539C224.784 55.2243 223.491 56.4005 223.088 58.64L223.085 58.6592C222.682 60.8986 223.484 62.4519 225.233 62.7667ZM239.863 67.2347C238.402 66.9718 237.379 66.0932 236.979 64.8405L236.826 64.8129L236.53 66.4564L234.444 66.0811L237.059 51.5489L239.145 51.9242L238.11 57.6717L238.264 57.6994C239.024 56.6752 240.373 56.1836 241.805 56.4412C244.457 56.9186 245.755 59.3051 245.16 62.6114L245.156 62.6306C244.566 65.9081 242.496 67.7086 239.863 67.2347ZM239.596 65.3511C241.336 65.6641 242.629 64.4879 243.032 62.2484L243.036 62.2292C243.438 59.9898 242.636 58.4365 240.897 58.1234C239.157 57.8104 237.833 58.9911 237.432 61.221L237.429 61.2402C237.027 63.47 237.857 65.0381 239.596 65.3511ZM244.694 71.7159C244.435 71.6692 244.131 71.5946 243.867 71.5173L244.162 69.8738C244.359 69.939 244.617 69.9953 244.857 70.0385C245.828 70.2132 246.479 69.9037 246.986 68.9035L247.237 68.3929L245.33 57.2641L247.579 57.6688L248.692 66.4818L248.875 66.5146L252.981 58.6407L255.172 59.035L249.338 69.1778C248.004 71.5177 246.809 72.0963 244.694 71.7159ZM256.854 70.1134L258.732 59.6756L260.818 60.0509L260.529 61.6559L260.683 61.6836C261.35 60.6229 262.488 60.143 263.853 60.3886C265.275 60.6446 266.151 61.5662 266.41 62.7737L266.574 62.8031C267.304 61.7737 268.639 61.2499 270.09 61.511C272.195 61.8897 273.197 63.3798 272.806 65.5519L271.511 72.7508L269.435 72.3772L270.64 65.6782C270.9 64.2365 270.374 63.4076 269.009 63.1621C267.683 62.9234 266.63 63.756 266.404 65.0151L265.216 71.618L263.14 71.2445L264.383 64.334C264.597 63.1422 263.954 62.2524 262.724 62.031C261.465 61.8045 260.339 62.7132 260.093 64.078L258.939 70.4887L256.854 70.1134ZM272.467 76.7132C272.207 76.6665 271.903 76.5919 271.639 76.5147L271.935 74.8711C272.132 74.9363 272.39 74.9926 272.63 75.0358C273.601 75.2105 274.252 74.901 274.759 73.9008L275.01 73.3902L273.103 62.2614L275.352 62.6661L276.465 71.4791L276.648 71.5119L280.753 63.638L282.945 64.0323L277.111 74.1752C275.777 76.515 274.581 77.0936 272.467 76.7132ZM284.684 75.3295C282.166 74.8764 280.784 73.4072 280.896 71.6216L280.898 71.612L282.984 71.9873L282.992 71.9986C283.109 72.8334 283.774 73.4987 285.013 73.7218C286.301 73.9535 287.301 73.528 287.455 72.6726L287.458 72.6534C287.576 71.9998 287.165 71.4695 286.004 70.9729L284.411 70.2893C282.522 69.483 281.769 68.4249 282.044 66.8967L282.046 66.8871C282.373 65.0705 284.3 64.0678 286.664 64.4932C289.048 64.9221 290.361 66.3889 290.238 68.1229L290.236 68.1325L288.247 67.7745L288.25 67.7553C288.18 66.9885 287.538 66.3075 286.366 66.0966C285.222 65.8908 284.293 66.3091 284.143 67.1453L284.139 67.1645C284.022 67.8181 284.43 68.3082 285.552 68.7979L287.138 69.4702C289.062 70.3026 289.869 71.331 289.597 72.8399L289.594 72.8592C289.246 74.791 287.164 75.7757 284.684 75.3295ZM293.913 76.9901C290.857 76.4402 289.387 74.0225 289.982 70.7162L289.983 70.7066C290.57 67.4484 292.846 65.6056 295.758 66.1296C298.67 66.6536 300.079 69.0801 299.516 72.2134L299.384 72.9439L291.983 71.6122C291.662 73.6183 292.549 74.9784 294.269 75.288C295.605 75.5283 296.522 75.0087 296.869 74.5154L296.921 74.4455L298.932 74.7973L298.897 74.8803C298.303 76.1925 296.585 77.4709 293.913 76.9901ZM295.46 67.8421C294.038 67.5862 292.786 68.3632 292.28 70.1276L297.586 71.0823C297.758 69.1883 296.873 68.0963 295.46 67.8421ZM299.151 77.7242L301.766 63.192L303.852 63.5673L301.237 78.0995L299.151 77.7242ZM303.113 78.4371L304.695 69.6428L302.975 69.3332L303.271 67.6897L304.991 67.9993L305.188 66.9036C305.562 64.8275 306.793 63.9972 308.974 64.3898C309.436 64.4728 309.834 64.5743 310.187 64.7073L309.912 66.2355C309.725 66.1721 309.45 66.1027 309.123 66.0439C307.97 65.8364 307.418 66.3125 307.228 67.3698L307.048 68.3694L309.364 68.7861L309.068 70.4297L306.771 70.0163L305.189 78.8107L303.113 78.4371ZM127.685 59.572C126.964 59.4423 126.483 58.7505 126.611 58.0393C126.741 57.3184 127.433 56.8376 128.154 56.9674C128.865 57.0953 129.355 57.7888 129.225 58.5097C129.097 59.2209 128.396 59.7 127.685 59.572ZM124.424 71.6859L126.302 61.2481L128.378 61.6216L126.5 72.0595L124.424 71.6859ZM127.568 72.2518L129.447 61.814L131.532 62.1892L131.247 63.7751L131.401 63.8028C132.111 62.7795 133.231 62.2866 134.75 62.5598C137.085 62.9801 138.123 64.6055 137.675 67.0948L136.459 73.8515L134.383 73.478L135.51 67.2114C135.822 65.4814 135.255 64.4963 133.727 64.2213C132.198 63.9463 131.058 64.8227 130.756 66.5047L129.654 72.6271L127.568 72.2518ZM146.686 76.0391C142.832 75.3456 140.931 72.1259 141.735 67.6567L141.738 67.6375C142.544 63.1586 145.439 60.802 149.293 61.4955C152.35 62.0454 154.347 64.3993 154.216 67.2234L154.198 67.2698L152.064 66.8858L152.069 66.857C151.972 65.0832 150.777 63.7271 148.951 63.3985C146.461 62.9506 144.533 64.7369 143.939 68.0335L143.936 68.0527C143.344 71.3398 144.53 73.6864 147.029 74.136C148.864 74.4664 150.415 73.7333 151.091 72.2376L151.117 72.2026L153.251 72.5865L153.241 72.6442C152.358 75.2339 149.781 76.5959 146.686 76.0391ZM153.131 76.8513L155.009 66.4135L157.094 66.7888L156.811 68.365L156.964 68.3927C157.538 67.3549 158.627 66.876 160.02 67.1267C160.357 67.1873 160.713 67.301 160.916 67.3871L160.57 69.3094C160.209 69.1651 159.862 69.053 159.468 68.9821C157.873 68.695 156.61 69.4799 156.339 70.9889L155.216 77.2266L153.131 76.8513ZM161.8 78.5898C159.81 78.2318 158.557 76.7562 158.898 74.8628L158.902 74.8436C159.237 72.979 160.836 72.1454 163.353 72.4395L166.208 72.7846L166.374 71.8619C166.58 70.7182 165.973 69.9541 164.56 69.6999C163.407 69.4924 162.571 69.7786 162.188 70.4737L162.172 70.5105L160.163 70.149L160.185 70.0835C160.742 68.4176 162.592 67.5696 164.966 67.9968C167.59 68.4689 168.835 70.0424 168.44 72.2337L167.155 79.3749L165.089 79.0031L165.355 77.523L165.192 77.4936C164.386 78.4401 163.184 78.8389 161.8 78.5898ZM160.99 75.1498C160.817 76.111 161.532 76.825 162.656 77.0274C164.213 77.3075 165.54 76.4945 165.782 75.149L165.943 74.2551L163.367 73.9602C161.91 73.7873 161.163 74.1887 160.993 75.1306L160.99 75.1498ZM172.484 80.5421C169.437 79.9939 167.946 77.5823 168.553 74.2088L168.557 74.1896C169.152 70.8833 171.378 69.1506 174.425 69.6989C177.049 70.171 178.349 71.933 178.273 74.0129L178.264 74.0609L176.263 73.7108L176.259 73.6803C176.213 72.6104 175.506 71.6893 174.122 71.4402C172.382 71.1272 171.085 72.3227 170.681 74.5718L170.677 74.591C170.262 76.8977 171.077 78.4929 172.797 78.8025C174.104 79.0377 175.019 78.587 175.557 77.523L175.585 77.4785L177.584 77.8382L177.55 77.9212C176.81 79.8817 175.069 81.0073 172.484 80.5421ZM181.77 82.2131C178.704 81.6614 177.199 79.2769 177.804 75.913L177.807 75.8938C178.411 72.5394 180.665 70.8216 183.721 71.3716C186.768 71.9198 188.283 74.3059 187.678 77.6699L187.675 77.6891C187.069 81.0531 184.827 82.763 181.77 82.2131ZM182.083 80.4734C183.871 80.7951 185.135 79.6136 185.551 77.3069L185.554 77.2877C185.971 74.9714 185.196 73.4329 183.408 73.1112C181.611 72.7878 180.358 73.9614 179.941 76.2777L179.938 76.2969C179.521 78.6132 180.286 80.15 182.083 80.4734ZM188.863 83.281L187.858 72.3243L189.953 72.7013L190.378 81.0928L190.532 81.1205L194.134 73.4536L196.114 73.8099L196.818 82.2515L196.981 82.2809L200.295 74.5622L202.361 74.934L197.61 84.8547L195.466 84.4691L194.705 76.2948L194.541 76.2654L190.987 83.6632L188.863 83.281ZM204.063 86.0159L204.325 84.555L209.799 80.5489C211.979 78.9665 212.636 78.3504 212.838 77.2259L212.843 77.1971C213.087 75.8419 212.335 74.6746 210.816 74.4013C209.259 74.1211 208.038 74.9532 207.764 76.4717L207.75 76.4989L205.731 76.1357L205.715 76.113C206.182 73.5773 208.464 72.1425 211.251 72.644C213.837 73.1092 215.444 75.0951 215.032 77.3826L215.027 77.4115C214.744 78.9877 213.795 80.0673 210.827 82.1131L207.359 84.5154L207.324 84.7076L213.735 85.8611L213.405 87.6969L204.063 86.0159ZM219.094 89.0678C215.893 88.4919 214.474 85.3491 215.278 80.8799L215.282 80.8607C216.086 76.3914 218.51 73.95 221.71 74.5259C224.901 75.1001 226.332 78.235 225.527 82.7042L225.524 82.7234C224.72 87.1927 222.285 89.642 219.094 89.0678ZM219.415 87.2801C221.27 87.6139 222.741 85.7254 223.352 82.3326L223.355 82.3134C223.966 78.9206 223.242 76.657 221.387 76.3232C219.522 75.9877 218.064 77.8587 217.454 81.2515L217.45 81.2707C216.84 84.6635 217.551 86.9446 219.415 87.2801ZM225.077 89.7971L225.34 88.3361L230.813 84.3301C232.993 82.7477 233.65 82.1316 233.852 81.0071L233.857 80.9783C234.101 79.6231 233.349 78.4558 231.83 78.1825C230.273 77.9023 229.052 78.7344 228.778 80.2529L228.764 80.28L226.745 79.9169L226.73 79.8942C227.196 77.3585 229.478 75.9236 232.265 76.4252C234.851 76.8904 236.458 78.8763 236.047 81.1638L236.041 81.1927C235.758 82.7689 234.809 83.8485 231.842 85.8943L228.373 88.2966L228.338 88.4888L234.749 89.6423L234.419 91.478L225.077 89.7971ZM241.389 92.7322L241.885 89.9738L235.119 88.7563L235.448 86.9301C237.837 84.1254 240.465 81.2146 242.895 78.685L245.961 79.2367L244.29 88.5212L246.203 88.8654L245.874 90.6915L243.961 90.3473L243.465 93.1058L241.389 92.7322ZM237.507 87.3404L242.236 88.1913L243.586 80.6849L243.461 80.6624C241.569 82.6338 239.391 85.0301 237.531 87.2058L237.507 87.3404Z" fill="white"/>
<path d="M23.1627 39.2282C23.2435 39.3796 23.2739 39.4695 23.2852 39.5062C23.2739 39.543 23.2435 39.6328 23.1627 39.7843C23.0395 40.015 22.8412 40.3109 22.5618 40.6538C22.0047 41.3375 21.1773 42.1447 20.138 42.9164C18.0502 44.4667 15.2187 45.7937 12.1458 45.7937C9.07997 45.7937 6.25034 44.4345 4.15802 42.8628C3.11727 42.081 2.28683 41.267 1.7268 40.5861C1.44584 40.2445 1.24595 39.9522 1.12193 39.7279C1.06261 39.6205 1.03141 39.548 1.01525 39.5062C1.03141 39.4644 1.06261 39.3919 1.12193 39.2846C1.24595 39.0603 1.44584 38.7679 1.7268 38.4263C2.28683 37.7454 3.11727 36.9314 4.15802 36.1496C6.25034 34.5779 9.07997 33.2188 12.1458 33.2188C15.2187 33.2188 18.0502 34.5457 20.138 36.096C21.1773 36.8677 22.0047 37.6749 22.5618 38.3587C22.8412 38.7015 23.0395 38.9974 23.1627 39.2282Z" stroke="white" stroke-width="2"/>
<path d="M3.85316 35.5917L1.44531 26.9235M12.5214 32.2207V24.5156M21.6712 35.5917L26.4869 26.9235" stroke="white" stroke-width="2" stroke-linecap="square"/>
<circle cx="12.3725" cy="39.3725" r="4.37248" fill="white"/>
<path d="M56.3912 39.2282C56.472 39.3796 56.5024 39.4695 56.5137 39.5062C56.5024 39.543 56.472 39.6328 56.3912 39.7843C56.268 40.015 56.0697 40.3109 55.7903 40.6538C55.2333 41.3375 54.4058 42.1447 53.3665 42.9164C51.2787 44.4667 48.4472 45.7937 45.3743 45.7937C42.3085 45.7937 39.4789 44.4345 37.3865 42.8628C36.3458 42.081 35.5153 41.267 34.9553 40.5861C34.6744 40.2445 34.4745 39.9522 34.3505 39.7279C34.2911 39.6205 34.2599 39.548 34.2438 39.5062C34.2599 39.4644 34.2911 39.3919 34.3505 39.2846C34.4745 39.0603 34.6744 38.7679 34.9553 38.4263C35.5153 37.7454 36.3458 36.9314 37.3865 36.1496C39.4789 34.5779 42.3085 33.2188 45.3743 33.2188C48.4472 33.2188 51.2787 34.5457 53.3665 36.096C54.4058 36.8677 55.2333 37.6749 55.7903 38.3587C56.0697 38.7015 56.268 38.9974 56.3912 39.2282Z" stroke="white" stroke-width="2"/>
<path d="M37.0817 35.5917L34.6738 26.9235M45.7499 32.2207V24.5156M54.8998 35.5917L59.7154 26.9235" stroke="white" stroke-width="2" stroke-linecap="square"/>
<circle cx="45.3725" cy="39.3725" r="4.37248" fill="white"/>
<path d="M30.8212 49.6094L27.4502 57.3145L32.2659 58.2776" stroke="white" stroke-width="2" stroke-linecap="square"/>
<path d="M22.6338 68.9453C26.2737 73.4455 28.4446 75.7216 37.0809 70.39" stroke="white" stroke-width="2" stroke-linecap="square"/>
<path d="M29 81.0127L32 94.0179M32 115.018L17.5 135.018M32 115.018C43.1082 120.597 45.9303 124.985 45 135.018M32 115.018V94.0179M32 94.0179C73.1504 106.425 101.898 107.898 132.5 81.0127M32 94.0179C58.4819 52.8105 108 -9.49271 132.5 2.50835" stroke="white" stroke-width="2"/>
</svg>
