<svg width="47" height="45" viewBox="0 0 47 45" fill="none" xmlns="http://www.w3.org/2000/svg">
<rect y="0.285645" width="46.2835" height="44.5716" rx="8" fill="white" fill-opacity="0.08"/>
<path d="M23.1417 17.4285C24.5619 17.4285 25.7132 16.2772 25.7132 14.8571C25.7132 13.4369 24.5619 12.2856 23.1417 12.2856C21.7216 12.2856 20.5703 13.4369 20.5703 14.8571C20.5703 16.2772 21.7216 17.4285 23.1417 17.4285Z" stroke="white" stroke-width="1.71429" stroke-linecap="round" stroke-linejoin="round"/>
<path d="M14.5714 32.8572C15.9916 32.8572 17.1429 31.7059 17.1429 30.2858C17.1429 28.8656 15.9916 27.7144 14.5714 27.7144C13.1513 27.7144 12 28.8656 12 30.2858C12 31.7059 13.1513 32.8572 14.5714 32.8572Z" stroke="white" stroke-width="1.71429" stroke-linecap="round" stroke-linejoin="round"/>
<path d="M23.1417 32.8572C24.5619 32.8572 25.7132 31.7059 25.7132 30.2858C25.7132 28.8656 24.5619 27.7144 23.1417 27.7144C21.7216 27.7144 20.5703 28.8656 20.5703 30.2858C20.5703 31.7059 21.7216 32.8572 23.1417 32.8572Z" stroke="white" stroke-width="1.71429" stroke-linecap="round" stroke-linejoin="round"/>
<path d="M31.7121 32.8572C33.1322 32.8572 34.2835 31.7059 34.2835 30.2858C34.2835 28.8656 33.1322 27.7144 31.7121 27.7144C30.2919 27.7144 29.1406 28.8656 29.1406 30.2858C29.1406 31.7059 30.2919 32.8572 31.7121 32.8572Z" stroke="white" stroke-width="1.71429" stroke-linecap="round" stroke-linejoin="round"/>
<path d="M14.5703 27.7139V24.2854C14.5703 23.8307 14.7509 23.3947 15.0724 23.0732C15.3939 22.7517 15.8299 22.5711 16.2846 22.5711H29.9989C30.4535 22.5711 30.8896 22.7517 31.2111 23.0732C31.5326 23.3947 31.7132 23.8307 31.7132 24.2854V27.7139M23.1417 17.4282V27.7139" stroke="white" stroke-width="1.71429" stroke-linecap="round" stroke-linejoin="round"/>
</svg>
