<svg width="46" height="47" viewBox="0 0 46 47" fill="none" xmlns="http://www.w3.org/2000/svg">
<rect width="45.8445" height="46.2858" rx="8" fill="white" fill-opacity="0.08"/>
<path d="M25.4838 19.7142C26.4306 19.7142 27.1981 18.9467 27.1981 17.9999C27.1981 17.0532 26.4306 16.2856 25.4838 16.2856C24.537 16.2856 23.7695 17.0532 23.7695 17.9999C23.7695 18.9467 24.537 19.7142 25.4838 19.7142Z" stroke="white" stroke-width="1.71429" stroke-linecap="round" stroke-linejoin="round"/>
<path d="M18.6267 28.2856C19.1001 28.2856 19.4838 27.9018 19.4838 27.4284C19.4838 26.955 19.1001 26.5713 18.6267 26.5713C18.1533 26.5713 17.7695 26.955 17.7695 27.4284C17.7695 27.9018 18.1533 28.2856 18.6267 28.2856Z" stroke="white" stroke-width="1.71429" stroke-linecap="round" stroke-linejoin="round"/>
<path d="M18.6323 22.286C19.579 22.286 20.3465 21.5185 20.3465 20.5717C20.3465 19.6249 19.579 18.8574 18.6323 18.8574C17.6855 18.8574 16.918 19.6249 16.918 20.5717C16.918 21.5185 17.6855 22.286 18.6323 22.286Z" stroke="white" stroke-width="1.71429" stroke-linecap="round" stroke-linejoin="round"/>
<path d="M27.235 32.1943C27.2159 31.8618 27.1003 31.542 26.9024 31.2741C26.7046 31.0062 26.4329 30.8017 26.1207 30.6857C25.3453 30.4309 24.6863 29.9078 24.2621 29.2105C23.8379 28.5133 23.6764 27.6875 23.8065 26.8818C23.9367 26.0761 24.35 25.3432 24.9722 24.815C25.5943 24.2867 26.3845 23.9978 27.2007 24H30.4064C30.9563 24.0015 31.4984 23.8708 31.9871 23.6189C32.4758 23.3669 32.8967 23.0011 33.2144 22.5523C33.5321 22.1036 33.7371 21.585 33.8123 21.0403C33.8875 20.4957 33.8306 19.9409 33.6464 19.4229C32.9646 17.4977 31.7667 15.7969 30.1838 14.5064C28.6008 13.2158 26.6936 12.3852 24.6705 12.1052C22.6474 11.8252 20.5862 12.1066 18.7123 12.9187C16.8383 13.7308 15.2235 15.0423 14.0445 16.71C12.8654 18.3776 12.1673 20.3372 12.0265 22.3748C11.8857 24.4123 12.3076 26.4493 13.2462 28.2633C14.1847 30.0772 15.6037 31.5984 17.3482 32.6605C19.0926 33.7226 21.0955 34.2848 23.1379 34.2857C24.1465 34.2885 25.1505 34.15 26.1207 33.8743C26.4771 33.7744 26.7856 33.5498 26.9902 33.2414C27.1947 32.933 27.2816 32.5614 27.235 32.1943Z" stroke="white" stroke-width="1.71429" stroke-linecap="round" stroke-linejoin="round"/>
</svg>
