<svg width="423" height="272" fill="none" xmlns="http://www.w3.org/2000/svg"><path d="M109.446 29V13.435h2.446v3.221h-.308c.303-.77.698-1.415 1.186-1.932a4.861 4.861 0 0 1 1.684-1.172 5.12 5.12 0 0 1 2.021-.41c1.201 0 2.216.347 3.046 1.04.839.693 1.361 1.518 1.566 2.474h-.498a5.058 5.058 0 0 1 1.055-1.771 5.271 5.271 0 0 1 1.786-1.274c.703-.313 1.489-.469 2.358-.469.937 0 1.796.205 2.577.615.781.41 1.4 1.03 1.859 1.86.469.83.703 1.879.703 3.148V29h-2.504V18.78c0-1.201-.337-2.055-1.01-2.563-.674-.517-1.455-.776-2.343-.776-.752 0-1.401.156-1.947.469a3.227 3.227 0 0 0-1.245 1.288c-.293.537-.439 1.162-.439 1.874V29h-2.504V18.516c0-.927-.313-1.67-.937-2.226-.615-.566-1.391-.849-2.328-.849a3.88 3.88 0 0 0-1.831.454 3.502 3.502 0 0 0-1.376 1.347c-.342.595-.513 1.337-.513 2.226V29h-2.504Zm25.273 0V13.435h2.504V29h-2.504Zm1.245-18.537c-.469 0-.874-.166-1.215-.498a1.685 1.685 0 0 1-.498-1.216c0-.468.166-.868.498-1.2a1.667 1.667 0 0 1 1.2-.498c.479 0 .884.166 1.216.498.341.332.512.737.512 1.215 0 .459-.171.86-.512 1.2a1.637 1.637 0 0 1-1.201.499Zm7.556 9.4V29h-2.504V13.435h2.43v3.778h-.659c.508-1.416 1.211-2.446 2.109-3.09.908-.644 1.977-.966 3.207-.966 1.044 0 1.996.23 2.855.688.859.45 1.537 1.127 2.035 2.035.508.908.762 2.05.762 3.427V29h-2.504v-9.518c0-1.327-.322-2.333-.967-3.016-.634-.683-1.532-1.025-2.694-1.025-.751 0-1.435.156-2.05.469-.615.302-1.108.78-1.479 1.435-.361.644-.541 1.483-.541 2.518Zm19.972 9.43c-1.337 0-2.514-.337-3.529-1.01-1.015-.684-1.801-1.63-2.357-2.841-.557-1.21-.835-2.616-.835-4.217 0-1.61.278-3.021.835-4.232.556-1.21 1.342-2.152 2.357-2.826 1.015-.673 2.192-1.01 3.529-1.01.722 0 1.386.102 1.991.307a5.13 5.13 0 0 1 1.64.893c.479.391.879.86 1.201 1.406h.044v-8.58h2.504V29h-2.446v-2.357h-.058a5.956 5.956 0 0 1-1.259 1.434 5.19 5.19 0 0 1-1.64.908 6.047 6.047 0 0 1-1.977.308Zm.381-2.24c.966 0 1.796-.24 2.489-.718.703-.488 1.244-1.171 1.625-2.05.381-.878.571-1.898.571-3.06 0-1.181-.19-2.206-.571-3.075-.381-.879-.922-1.557-1.625-2.035-.693-.479-1.523-.718-2.489-.718-.898 0-1.694.225-2.387.674-.683.449-1.22 1.108-1.611 1.976-.38.86-.571 1.919-.571 3.178 0 1.24.191 2.294.571 3.163.391.868.928 1.532 1.611 1.991.693.449 1.489.673 2.387.673ZM174.693 29V13.435h2.446v3.221h-.308c.303-.77.698-1.415 1.186-1.932a4.861 4.861 0 0 1 1.684-1.172 5.12 5.12 0 0 1 2.021-.41c1.201 0 2.216.347 3.046 1.04.839.693 1.361 1.518 1.566 2.474h-.498a5.058 5.058 0 0 1 1.055-1.771 5.271 5.271 0 0 1 1.786-1.274c.703-.313 1.489-.469 2.357-.469a5.46 5.46 0 0 1 2.578.615c.781.41 1.4 1.03 1.859 1.86.469.83.703 1.879.703 3.148V29h-2.504V18.78c0-1.201-.337-2.055-1.01-2.563-.674-.517-1.455-.776-2.343-.776-.752 0-1.401.156-1.947.469a3.227 3.227 0 0 0-1.245 1.288c-.293.537-.439 1.162-.439 1.874V29h-2.504V18.516c0-.927-.313-1.67-.937-2.226-.615-.566-1.391-.849-2.328-.849a3.88 3.88 0 0 0-1.831.454 3.502 3.502 0 0 0-1.376 1.347c-.342.595-.513 1.337-.513 2.226V29h-2.504Zm29.974.249c-1.035 0-1.958-.176-2.768-.527a4.506 4.506 0 0 1-1.933-1.596c-.478-.703-.717-1.572-.717-2.607 0-.888.176-1.61.527-2.167a3.644 3.644 0 0 1 1.406-1.317 7.52 7.52 0 0 1 1.976-.733 24.47 24.47 0 0 1 2.27-.395c.986-.137 1.762-.24 2.328-.308.576-.068.986-.18 1.23-.336.244-.156.366-.43.366-.82v-.147c0-.576-.136-1.083-.41-1.523-.263-.439-.649-.78-1.156-1.024-.508-.254-1.128-.381-1.86-.381-.722 0-1.362.122-1.918.366-.547.234-.986.556-1.318.966-.322.4-.513.85-.571 1.347l-2.533-.087c.088-.957.41-1.792.966-2.504.566-.723 1.308-1.284 2.226-1.684.917-.41 1.967-.615 3.148-.615.859 0 1.65.117 2.372.351a5.26 5.26 0 0 1 1.874 1.01c.527.44.932.982 1.216 1.626.292.634.439 1.362.439 2.182V29h-2.475v-2.196h-.058c-.186.37-.464.746-.835 1.127-.371.38-.864.698-1.479.952-.615.244-1.386.366-2.313.366Zm.351-2.24c1.015 0 1.84-.181 2.475-.542.644-.371 1.112-.85 1.405-1.435a4.109 4.109 0 0 0 .454-1.889v-1.977c-.097.088-.283.176-.556.264-.264.078-.591.156-.981.234-.381.068-.791.137-1.23.205-.43.068-.854.127-1.274.176a7.995 7.995 0 0 0-1.713.41c-.527.185-.957.454-1.289.805-.332.352-.498.82-.498 1.406 0 .488.132.908.396 1.26.263.35.634.619 1.113.804.478.186 1.044.279 1.698.279Zm10.616 8.112V13.435h2.431v2.328h.058a5.096 5.096 0 0 1 1.215-1.405 5.292 5.292 0 0 1 1.67-.894 6.34 6.34 0 0 1 1.991-.307c1.357 0 2.538.337 3.544 1.01 1.005.674 1.786 1.616 2.342 2.826.567 1.21.85 2.621.85 4.232 0 1.6-.283 3.006-.85 4.217-.556 1.21-1.337 2.157-2.342 2.84-1.006.674-2.187 1.01-3.544 1.01a6.076 6.076 0 0 1-1.962-.307 5.062 5.062 0 0 1-1.611-.907 6.099 6.099 0 0 1-1.244-1.435h-.044v8.478h-2.504Zm6.984-8.069c.918 0 1.718-.224 2.402-.673.683-.459 1.215-1.123 1.596-1.991.39-.87.585-1.923.585-3.163 0-1.26-.195-2.319-.585-3.178-.381-.868-.913-1.527-1.596-1.976-.684-.45-1.484-.674-2.402-.674-.956 0-1.786.24-2.489.718-.703.478-1.244 1.156-1.625 2.035-.371.869-.557 1.894-.557 3.075 0 1.162.186 2.182.557 3.06.381.879.922 1.562 1.625 2.05.703.478 1.533.717 2.489.717Zm15.551 2.3c-1.103 0-2.104-.176-3.002-.528-.898-.36-1.625-.903-2.182-1.625-.556-.732-.873-1.65-.952-2.753l2.46-.073c.108.918.469 1.62 1.084 2.108.615.479 1.459.718 2.533.718 1.084 0 1.938-.225 2.563-.674.624-.458.937-1.03.937-1.713 0-.585-.215-1.054-.645-1.405-.419-.352-.981-.61-1.683-.776l-2.519-.586c-1.445-.342-2.533-.879-3.265-1.61-.732-.733-1.098-1.665-1.098-2.798 0-.878.239-1.66.717-2.342.478-.684 1.142-1.22 1.991-1.611.85-.39 1.831-.586 2.944-.586 1.083 0 2.045.2 2.884.6.849.4 1.523.962 2.021 1.684.507.723.786 1.582.834 2.578l-2.416.073a2.741 2.741 0 0 0-.937-1.977c-.585-.537-1.381-.805-2.386-.805-.947 0-1.709.23-2.285.688-.576.459-.864 1.02-.864 1.684 0 .585.215 1.059.645 1.42.429.352 1.03.62 1.801.805l2.489.586c1.484.352 2.572.879 3.265 1.581.693.703 1.04 1.611 1.04 2.724 0 .957-.264 1.781-.791 2.475-.517.683-1.225 1.21-2.123 1.581-.898.37-1.918.556-3.06.556Zm11.509-22.17V29h-2.504V7.183h2.504Zm8.492 22.067c-1.034 0-1.957-.176-2.767-.527a4.5 4.5 0 0 1-1.933-1.596c-.478-.703-.717-1.572-.717-2.607 0-.888.175-1.61.527-2.167a3.648 3.648 0 0 1 1.405-1.317 7.54 7.54 0 0 1 1.977-.733 24.47 24.47 0 0 1 2.27-.395c.986-.137 1.762-.24 2.328-.308.576-.068.986-.18 1.23-.336.244-.156.366-.43.366-.82v-.147c0-.576-.137-1.083-.41-1.523-.264-.439-.649-.78-1.157-1.024-.507-.254-1.127-.381-1.859-.381-.723 0-1.362.122-1.919.366-.546.234-.986.556-1.317.966-.323.4-.513.85-.571 1.347l-2.534-.087c.088-.957.41-1.792.967-2.504.566-.723 1.308-1.284 2.225-1.684.918-.41 1.967-.615 3.149-.615.859 0 1.649.117 2.372.351a5.26 5.26 0 0 1 1.874 1.01c.527.44.932.982 1.215 1.626.293.634.44 1.362.44 2.182V29h-2.475v-2.196h-.059c-.185.37-.463.746-.834 1.127-.371.38-.864.698-1.479.952-.615.244-1.386.366-2.314.366Zm.352-2.24c1.015 0 1.84-.181 2.474-.542.645-.371 1.113-.85 1.406-1.435a4.109 4.109 0 0 0 .454-1.889v-1.977c-.098.088-.283.176-.556.264-.264.078-.591.156-.982.234-.38.068-.79.137-1.229.205-.43.068-.855.127-1.274.176a7.99 7.99 0 0 0-1.714.41c-.527.185-.956.454-1.288.805-.332.352-.498.82-.498 1.406 0 .488.132.908.395 1.26.264.35.635.619 1.113.804.479.186 1.045.279 1.699.279Zm17.981 2.284a6.076 6.076 0 0 1-1.962-.308 5.364 5.364 0 0 1-1.655-.907 5.934 5.934 0 0 1-1.259-1.435h-.059V29h-2.43V7.183h2.503v8.58h.044a5.013 5.013 0 0 1 1.186-1.405 5.315 5.315 0 0 1 1.655-.894 6.213 6.213 0 0 1 1.977-.307c1.357 0 2.538.337 3.543 1.01 1.006.674 1.787 1.616 2.343 2.826.566 1.21.849 2.621.849 4.232 0 1.6-.283 3.006-.849 4.217-.556 1.21-1.337 2.157-2.343 2.84-1.005.674-2.186 1.01-3.543 1.01Zm-.381-2.24c.918 0 1.718-.225 2.401-.674.684-.459 1.216-1.123 1.596-1.991.391-.87.586-1.923.586-3.163 0-1.26-.195-2.319-.586-3.178-.38-.868-.912-1.527-1.596-1.976-.683-.45-1.483-.674-2.401-.674-.957 0-1.786.24-2.489.718-.703.478-1.245 1.156-1.626 2.035-.37.869-.556 1.894-.556 3.075 0 1.162.186 2.182.556 3.06.381.879.923 1.562 1.626 2.05.703.478 1.532.717 2.489.717Zm11.655 2.196c-.517 0-.956-.18-1.317-.542a1.817 1.817 0 0 1-.527-1.318c0-.517.175-.951.527-1.303.361-.361.8-.542 1.317-.542.518 0 .952.181 1.304.542.361.352.541.786.541 1.303 0 .518-.18.957-.541 1.318a1.748 1.748 0 0 1-1.304.542Zm5.316 5.872V13.435h2.43v2.328h.059a5.096 5.096 0 0 1 1.215-1.405 5.287 5.287 0 0 1 1.669-.894 6.352 6.352 0 0 1 1.992-.307c1.357 0 2.538.337 3.543 1.01 1.006.674 1.787 1.616 2.343 2.826.566 1.21.849 2.621.849 4.232 0 1.6-.283 3.006-.849 4.217-.556 1.21-1.337 2.157-2.343 2.84-1.005.674-2.186 1.01-3.543 1.01a6.076 6.076 0 0 1-1.962-.307 5.04 5.04 0 0 1-1.611-.907 6.126 6.126 0 0 1-1.245-1.435h-.043v8.478h-2.504Zm6.984-8.069c.918 0 1.718-.224 2.402-.673.683-.459 1.215-1.123 1.596-1.991.39-.87.585-1.923.585-3.163 0-1.26-.195-2.319-.585-3.178-.381-.868-.913-1.527-1.596-1.976-.684-.45-1.484-.674-2.402-.674-.956 0-1.786.24-2.489.718-.703.478-1.245 1.156-1.625 2.035-.371.869-.557 1.894-.557 3.075 0 1.162.186 2.182.557 3.06.38.879.922 1.562 1.625 2.05.703.478 1.533.717 2.489.717Zm12.651-19.87V29h-2.504V7.183h2.504Z" fill="#fff"/><path opacity=".8" d="M120.027 47.813V53h-1.398V41.36h1.398v5.062h-.257c.265-.797.643-1.365 1.132-1.703.495-.344 1.071-.516 1.727-.516.588 0 1.104.122 1.547.367.448.24.797.605 1.047 1.094.25.484.375 1.096.375 1.836V53h-1.399v-5.383c0-.677-.177-1.203-.531-1.578-.349-.38-.828-.57-1.438-.57a2.31 2.31 0 0 0-1.125.273c-.333.177-.596.44-.789.79-.192.348-.289.775-.289 1.28Zm10.961 5.304c-.583 0-1.099-.12-1.547-.36a2.585 2.585 0 0 1-1.046-1.1c-.25-.49-.375-1.102-.375-1.837v-5.5h1.398v5.383c0 .677.177 1.206.531 1.586.354.375.836.563 1.446.563.416 0 .789-.089 1.117-.266.333-.182.596-.448.789-.797.192-.354.289-.781.289-1.281V44.32h1.398V53h-1.351v-2.102h.211c-.271.808-.654 1.38-1.149 1.72-.495.332-1.065.5-1.711.5Zm10.469.07c-.531 0-.966-.09-1.305-.273a2.637 2.637 0 0 1-.797-.625 6.598 6.598 0 0 1-.445-.633h-.14V53h-1.36V41.36h1.399v4.335h.101c.11-.172.255-.372.438-.601.187-.235.448-.44.781-.617.333-.183.773-.274 1.32-.274.724 0 1.362.182 1.914.547.558.365.992.883 1.305 1.555.312.672.469 1.463.469 2.375 0 .916-.157 1.713-.469 2.39-.307.672-.74 1.193-1.297 1.563-.552.37-1.19.554-1.914.554Zm-.211-1.257c.537 0 .987-.144 1.352-.43.369-.286.648-.675.836-1.164a4.7 4.7 0 0 0 .281-1.672c0-.61-.094-1.156-.281-1.64-.183-.485-.459-.868-.829-1.149-.364-.281-.817-.422-1.359-.422-.536 0-.987.136-1.351.406-.365.271-.641.646-.829 1.125-.187.48-.281 1.04-.281 1.68 0 .646.094 1.214.281 1.703.193.49.472.873.836 1.149.37.276.818.414 1.344.414Zm14.352-7.61v1.196h-5.071V44.32h5.071ZM152.223 53v-9.875c0-.495.114-.909.343-1.242.23-.334.532-.584.907-.75a2.833 2.833 0 0 1 1.195-.258c.318 0 .583.023.797.07.213.047.37.091.469.133l-.352 1.203a1.986 1.986 0 0 0-.289-.078 1.874 1.874 0 0 0-.461-.047c-.422 0-.729.107-.922.32-.193.214-.289.53-.289.946V53h-1.398Zm8.273.188c-.786 0-1.476-.188-2.07-.563a3.812 3.812 0 0 1-1.391-1.57c-.333-.672-.5-1.453-.5-2.344 0-.906.167-1.695.5-2.367.333-.677.797-1.203 1.391-1.578s1.284-.563 2.07-.563c.797 0 1.492.188 2.086.563a3.735 3.735 0 0 1 1.391 1.578c.333.672.5 1.46.5 2.367 0 .89-.167 1.672-.5 2.344a3.744 3.744 0 0 1-1.391 1.57c-.594.375-1.289.563-2.086.563Zm0-1.25c.583 0 1.063-.149 1.438-.446.38-.297.661-.69.843-1.18.188-.49.282-1.023.282-1.601 0-.583-.094-1.122-.282-1.617a2.612 2.612 0 0 0-.843-1.188c-.375-.302-.855-.453-1.438-.453-.573 0-1.047.151-1.422.453a2.698 2.698 0 0 0-.844 1.188 4.608 4.608 0 0 0-.273 1.617c0 .578.091 1.112.273 1.602.188.49.469.882.844 1.18.375.296.849.444 1.422.444ZM166.457 53v-8.68h1.352v1.336h.086c.161-.437.442-.789.843-1.054.407-.271.87-.407 1.391-.407a11.312 11.312 0 0 1 .695.023v1.407a3.691 3.691 0 0 0-.312-.047 4.116 4.116 0 0 0-.524-.031c-.406 0-.771.086-1.093.258a1.898 1.898 0 0 0-.766.71 2.02 2.02 0 0 0-.274 1.063V53h-1.398Zm10.391 3.266V44.32h1.359v1.375h.141c.104-.172.25-.372.437-.601.188-.235.448-.44.781-.617.334-.183.774-.274 1.321-.274.724 0 1.362.182 1.914.547.557.365.992.883 1.304 1.555.313.672.469 1.463.469 2.375 0 .916-.156 1.713-.469 2.39-.307.672-.739 1.193-1.296 1.563-.552.37-1.191.554-1.914.554-.532 0-.967-.09-1.305-.273a2.647 2.647 0 0 1-.789-.625 5.734 5.734 0 0 1-.453-.633h-.102v4.61h-1.398Zm3.836-4.336c.536 0 .987-.144 1.351-.43.37-.286.649-.675.836-1.164.188-.495.281-1.052.281-1.672 0-.61-.093-1.156-.281-1.64-.182-.485-.458-.868-.828-1.149-.365-.281-.818-.422-1.359-.422-.537 0-.987.136-1.352.406-.365.271-.641.646-.828 1.125-.188.48-.281 1.04-.281 1.68 0 .646.093 1.214.281 1.703.193.49.471.873.836 1.149.37.276.818.414 1.344.414Zm5.882 1.07v-8.68h1.352v1.336h.086c.161-.437.443-.789.844-1.054.406-.271.869-.407 1.39-.407a11.602 11.602 0 0 1 .696.023v1.407a3.743 3.743 0 0 0-.313-.047 4.1 4.1 0 0 0-.523-.031 2.29 2.29 0 0 0-1.094.258 1.904 1.904 0 0 0-.766.71 2.02 2.02 0 0 0-.273 1.063V53h-1.399Zm9.227.188c-.786 0-1.477-.188-2.07-.563a3.812 3.812 0 0 1-1.391-1.57c-.333-.672-.5-1.453-.5-2.344 0-.906.167-1.695.5-2.367.333-.677.797-1.203 1.391-1.578.593-.375 1.284-.563 2.07-.563.797 0 1.492.188 2.086.563.599.375 1.062.9 1.391 1.578.333.672.5 1.46.5 2.367 0 .89-.167 1.672-.5 2.344a3.75 3.75 0 0 1-1.391 1.57c-.594.375-1.289.563-2.086.563Zm0-1.25c.583 0 1.062-.149 1.437-.446a2.61 2.61 0 0 0 .844-1.18c.188-.49.281-1.023.281-1.601 0-.583-.093-1.122-.281-1.617a2.606 2.606 0 0 0-.844-1.188c-.375-.302-.854-.453-1.437-.453-.573 0-1.047.151-1.422.453a2.698 2.698 0 0 0-.844 1.188 4.608 4.608 0 0 0-.273 1.617c0 .578.091 1.112.273 1.602.188.49.469.882.844 1.18.375.296.849.444 1.422.444Zm9.227 1.25c-.724 0-1.365-.185-1.922-.555-.552-.37-.985-.89-1.297-1.563-.313-.677-.469-1.474-.469-2.39 0-.912.156-1.703.469-2.375.317-.672.752-1.19 1.304-1.555.558-.365 1.198-.547 1.922-.547.542 0 .98.091 1.313.274.333.177.594.382.781.617.193.229.339.43.438.601h.101V41.36h1.399V53h-1.352v-1.344h-.141a4.65 4.65 0 0 1-.453.633 2.635 2.635 0 0 1-.789.625c-.333.182-.768.273-1.304.273Zm.21-1.258c.527 0 .972-.138 1.336-.414.37-.276.649-.66.836-1.149.188-.49.282-1.057.282-1.703 0-.64-.094-1.2-.282-1.68-.182-.479-.458-.854-.828-1.125-.364-.27-.812-.406-1.344-.406-.546 0-1.005.14-1.375.422-.364.281-.64.664-.828 1.148a4.639 4.639 0 0 0-.273 1.641 4.7 4.7 0 0 0 .281 1.672c.188.49.466.878.836 1.164.37.286.823.43 1.359.43Zm9.211 1.187c-.583 0-1.099-.12-1.546-.36a2.58 2.58 0 0 1-1.047-1.1c-.25-.49-.375-1.102-.375-1.837v-5.5h1.398v5.383c0 .677.177 1.206.531 1.586.355.375.836.563 1.446.563.416 0 .789-.089 1.117-.266.333-.182.596-.448.789-.797.193-.354.289-.781.289-1.281V44.32h1.398V53h-1.351v-2.102h.211c-.271.808-.654 1.38-1.149 1.72-.494.332-1.065.5-1.711.5Zm9.961.07c-.786 0-1.476-.187-2.07-.562-.594-.375-1.057-.898-1.391-1.57-.333-.672-.5-1.453-.5-2.344 0-.906.167-1.695.5-2.367.334-.677.797-1.203 1.391-1.578s1.284-.563 2.07-.563c.427 0 .828.057 1.203.172.381.11.724.27 1.032.484.312.209.578.466.797.774.224.307.39.65.5 1.031l-1.344.344a2.033 2.033 0 0 0-.289-.625 1.99 1.99 0 0 0-.469-.492 1.953 1.953 0 0 0-.633-.32 2.558 2.558 0 0 0-.797-.118c-.573 0-1.047.151-1.422.453a2.688 2.688 0 0 0-.843 1.188 4.585 4.585 0 0 0-.274 1.617c0 .578.091 1.112.274 1.602.187.49.468.882.843 1.18.375.296.849.444 1.422.444.297 0 .565-.039.805-.117a2.16 2.16 0 0 0 .648-.328c.188-.146.347-.317.477-.515.13-.204.227-.422.289-.657l1.344.336a3.341 3.341 0 0 1-1.297 1.86 3.599 3.599 0 0 1-1.047.5 4.2 4.2 0 0 1-1.219.172Zm8.985-8.867v1.196h-4.516V44.32h4.516Zm-3.18-2.101h1.398v8.547c0 .38.076.659.227.836.156.171.419.257.789.257.089 0 .201-.007.336-.023.141-.02.268-.042.383-.063l.258 1.188c-.141.047-.302.08-.485.102a4.75 4.75 0 0 1-.539.03c-.75 0-1.333-.192-1.75-.577-.411-.391-.617-.938-.617-1.641v-8.656Zm7.727 10.968c-.599 0-1.133-.088-1.602-.265a2.814 2.814 0 0 1-1.148-.79c-.302-.348-.503-.778-.602-1.288l1.336-.282c.115.48.344.834.687 1.063.349.224.787.336 1.313.336.604 0 1.086-.128 1.445-.383.36-.26.539-.57.539-.93a.977.977 0 0 0-.32-.75c-.214-.203-.534-.351-.961-.445l-1.437-.344c-.787-.187-1.375-.476-1.766-.867-.385-.396-.578-.898-.578-1.508 0-.5.138-.94.414-1.32.281-.38.664-.677 1.148-.89.485-.214 1.034-.32 1.649-.32.594 0 1.101.09 1.523.273.427.182.771.437 1.031.765.266.323.459.698.579 1.125l-1.282.29a1.954 1.954 0 0 0-.586-.876c-.281-.26-.7-.39-1.257-.39-.521 0-.954.12-1.297.359-.339.24-.508.542-.508.906 0 .323.117.584.351.782.235.192.599.346 1.094.46l1.321.313c.791.187 1.377.477 1.757.867.381.39.571.886.571 1.484 0 .51-.144.964-.43 1.36-.286.396-.688.706-1.203.93-.516.224-1.11.336-1.781.336Zm5.132 2.547.688-4.359h1.586l-1.203 4.36h-1.071Zm11.657-2.539a3.623 3.623 0 0 1-1.5-.304 2.565 2.565 0 0 1-1.071-.907c-.26-.4-.39-.885-.39-1.453 0-.5.096-.903.289-1.21.198-.313.461-.558.789-.735a4.024 4.024 0 0 1 1.094-.406c.401-.089.804-.16 1.211-.211.52-.068.942-.12 1.265-.157.328-.036.57-.098.727-.187.156-.089.234-.24.234-.453v-.047c0-.36-.068-.664-.203-.914a1.357 1.357 0 0 0-.617-.578c-.271-.136-.607-.203-1.008-.203-.411 0-.766.065-1.063.195-.296.13-.539.294-.726.492a1.996 1.996 0 0 0-.399.617l-1.351-.398c.203-.526.489-.943.859-1.25a3.4 3.4 0 0 1 1.242-.672c.464-.14.93-.21 1.399-.21.312 0 .656.038 1.031.116.375.078.732.224 1.07.438.339.208.618.513.836.914.219.4.329.927.329 1.578V53h-1.375v-1.188h-.094a2.377 2.377 0 0 1-.469.626 2.595 2.595 0 0 1-.844.539c-.343.145-.765.218-1.265.218Zm.242-1.234c.521 0 .958-.102 1.312-.305.36-.203.631-.466.813-.789.187-.323.281-.664.281-1.023v-1.188c-.057.068-.18.128-.367.18a6.59 6.59 0 0 1-.649.14c-.239.042-.476.079-.71.11-.23.026-.417.05-.563.07a4.557 4.557 0 0 0-.945.219 1.652 1.652 0 0 0-.703.438c-.177.192-.266.455-.266.789 0 .296.075.546.227.75.156.198.369.349.64.453.271.104.581.156.93.156ZM261.176 53v-8.68h1.351v1.336h.086c.162-.437.443-.789.844-1.054.406-.271.87-.407 1.391-.407a11.496 11.496 0 0 1 .695.023v1.407a3.743 3.743 0 0 0-.313-.047 4.089 4.089 0 0 0-.523-.031c-.406 0-.771.086-1.094.258a1.895 1.895 0 0 0-.765.71 2.01 2.01 0 0 0-.274 1.063V53h-1.398Zm9.648-8.68v1.196h-4.515V44.32h4.515Zm-3.179-2.101h1.398v8.547c0 .38.075.659.227.836.156.171.419.257.789.257.088 0 .2-.007.336-.023.14-.02.268-.042.382-.063l.258 1.188c-.14.047-.302.08-.484.102-.183.02-.362.03-.539.03-.75 0-1.334-.192-1.75-.577-.412-.391-.617-.938-.617-1.641v-8.656ZM272.566 53v-8.68h1.399V53h-1.399Zm.711-10.133a.982.982 0 0 1-.687-.265.88.88 0 0 1-.281-.657c0-.26.093-.479.281-.656a.967.967 0 0 1 .687-.273c.271 0 .5.09.688.273a.855.855 0 0 1 .289.656.87.87 0 0 1-.289.657.966.966 0 0 1-.688.265Zm6.641 10.32c-.786 0-1.477-.187-2.07-.562a3.812 3.812 0 0 1-1.391-1.57c-.333-.672-.5-1.453-.5-2.344 0-.906.167-1.695.5-2.367.333-.677.797-1.203 1.391-1.578.593-.375 1.284-.563 2.07-.563.427 0 .828.057 1.203.172.38.11.724.27 1.031.484.313.209.578.466.797.774.224.307.391.65.5 1.031l-1.344.344a1.987 1.987 0 0 0-.289-.625 2.005 2.005 0 0 0-.468-.492 1.973 1.973 0 0 0-.633-.32 2.562 2.562 0 0 0-.797-.118c-.573 0-1.047.151-1.422.453a2.698 2.698 0 0 0-.844 1.188 4.608 4.608 0 0 0-.273 1.617c0 .578.091 1.112.273 1.602.188.49.469.882.844 1.18.375.296.849.444 1.422.444.297 0 .565-.039.805-.117.244-.078.461-.187.648-.328a2.144 2.144 0 0 0 .766-1.172l1.343.336a3.32 3.32 0 0 1-.5 1.063 3.396 3.396 0 0 1-.796.797 3.611 3.611 0 0 1-1.047.5c-.38.114-.787.172-1.219.172Zm6.922-11.828V53h-1.399V41.36h1.399Zm6.062 11.828c-.843 0-1.57-.187-2.179-.562a3.732 3.732 0 0 1-1.399-1.563c-.328-.671-.492-1.45-.492-2.335 0-.891.161-1.675.484-2.352.323-.682.779-1.214 1.368-1.594.588-.385 1.276-.578 2.062-.578.474 0 .935.08 1.383.242.453.157.862.41 1.226.758.365.344.654.794.868 1.352.213.552.32 1.221.32 2.008v.562h-6.781v-1.18h6.023l-.648.43c0-.573-.091-1.078-.274-1.516a2.312 2.312 0 0 0-.804-1.039c-.355-.25-.792-.375-1.313-.375-.526 0-.976.128-1.351.383-.37.255-.654.591-.852 1.008a3.04 3.04 0 0 0-.297 1.336v.766c0 .64.109 1.184.328 1.632.224.448.534.79.93 1.024.401.234.87.351 1.406.351.349 0 .664-.05.945-.148.282-.104.524-.258.727-.461a1.96 1.96 0 0 0 .461-.75l1.359.336a2.79 2.79 0 0 1-.687 1.18 3.378 3.378 0 0 1-1.203.796c-.474.193-1.011.29-1.61.29Zm8.563 0c-.599 0-1.133-.088-1.602-.265a2.82 2.82 0 0 1-1.148-.79c-.302-.348-.503-.778-.602-1.288l1.336-.282c.115.48.344.834.688 1.063.349.224.786.336 1.312.336.604 0 1.086-.128 1.446-.383.359-.26.539-.57.539-.93a.978.978 0 0 0-.321-.75c-.213-.203-.534-.351-.961-.445l-1.437-.344c-.787-.187-1.375-.476-1.766-.867-.385-.396-.578-.898-.578-1.508 0-.5.138-.94.414-1.32a2.79 2.79 0 0 1 1.149-.89c.484-.214 1.033-.32 1.648-.32.594 0 1.102.09 1.523.273a2.58 2.58 0 0 1 1.032.765c.265.323.458.698.578 1.125l-1.281.29a1.97 1.97 0 0 0-.586-.876c-.282-.26-.701-.39-1.258-.39-.521 0-.953.12-1.297.359-.339.24-.508.542-.508.906 0 .323.117.584.352.782.234.192.599.346 1.093.46l1.321.313c.791.187 1.377.477 1.758.867.38.39.57.886.57 1.484 0 .51-.143.964-.43 1.36-.286.396-.687.706-1.203.93-.516.224-1.109.336-1.781.336ZM103.41 72.195a3.623 3.623 0 0 1-1.5-.304 2.556 2.556 0 0 1-1.07-.907c-.261-.4-.391-.885-.391-1.453 0-.5.097-.903.289-1.21.198-.313.461-.558.789-.735a4.024 4.024 0 0 1 1.094-.406 13.65 13.65 0 0 1 1.211-.211c.521-.068.943-.12 1.266-.156.328-.037.57-.1.726-.188.156-.088.235-.24.235-.453v-.047c0-.36-.068-.664-.204-.914a1.357 1.357 0 0 0-.617-.578c-.271-.136-.606-.203-1.008-.203-.411 0-.765.065-1.062.195a2.21 2.21 0 0 0-.727.492 1.974 1.974 0 0 0-.398.617l-1.352-.398c.204-.526.49-.943.86-1.25a3.4 3.4 0 0 1 1.242-.672c.464-.14.93-.21 1.398-.21.313 0 .657.038 1.032.116.375.078.731.224 1.07.438.339.208.617.513.836.914.219.4.328.927.328 1.578V72h-1.375v-1.188h-.094a2.393 2.393 0 0 1-.468.626 2.595 2.595 0 0 1-.844.539c-.344.145-.766.218-1.266.218Zm.242-1.234c.521 0 .959-.102 1.313-.305a2.08 2.08 0 0 0 .812-.789c.188-.323.282-.664.282-1.023v-1.188c-.058.068-.18.128-.368.18a6.502 6.502 0 0 1-.648.14c-.24.042-.477.079-.711.11-.229.026-.417.05-.562.07a4.551 4.551 0 0 0-.946.219 1.658 1.658 0 0 0-.703.438c-.177.192-.266.455-.266.789 0 .296.076.546.227.75.156.197.37.349.641.453.27.104.58.156.929.156Zm7.61-4.148V72h-1.399v-8.68h1.352l.008 2.102h-.219c.266-.797.643-1.365 1.133-1.703.495-.344 1.07-.516 1.726-.516.589 0 1.104.122 1.547.367.443.24.789.604 1.039 1.094.255.484.383 1.096.383 1.836V72h-1.398v-5.383c0-.677-.177-1.203-.532-1.578-.349-.38-.828-.57-1.437-.57-.417 0-.792.09-1.125.273-.333.177-.597.44-.789.79-.193.348-.289.775-.289 1.28Zm11.242 5.374c-.724 0-1.365-.184-1.922-.554-.552-.37-.984-.89-1.297-1.563-.312-.677-.469-1.474-.469-2.39 0-.912.157-1.703.469-2.375.318-.672.753-1.19 1.305-1.555.557-.365 1.198-.547 1.922-.547.541 0 .979.091 1.312.274.334.177.594.382.781.617.193.229.339.43.438.601h.102V60.36h1.398V72h-1.352v-1.344h-.14a4.65 4.65 0 0 1-.453.633 2.66 2.66 0 0 1-.789.625c-.334.182-.769.273-1.305.273Zm.211-1.257c.526 0 .971-.138 1.336-.414.37-.276.648-.66.836-1.149.187-.49.281-1.057.281-1.703 0-.64-.094-1.2-.281-1.68-.183-.479-.459-.854-.828-1.125-.365-.27-.813-.406-1.344-.406-.547 0-1.005.14-1.375.422-.365.281-.641.664-.828 1.148-.183.485-.274 1.032-.274 1.641 0 .62.094 1.177.282 1.672.187.49.466.877.835 1.164.37.287.823.43 1.36.43Zm14.234 1.257c-.786 0-1.476-.187-2.07-.562-.594-.375-1.057-.898-1.391-1.57-.333-.672-.5-1.453-.5-2.344 0-.906.167-1.695.5-2.367.334-.677.797-1.203 1.391-1.578s1.284-.563 2.07-.563c.797 0 1.492.188 2.086.563a3.735 3.735 0 0 1 1.391 1.578c.333.672.5 1.46.5 2.367 0 .89-.167 1.672-.5 2.344a3.744 3.744 0 0 1-1.391 1.57c-.594.375-1.289.563-2.086.563Zm0-1.25c.584 0 1.063-.148 1.438-.445.38-.297.661-.69.843-1.18.188-.49.282-1.023.282-1.601 0-.583-.094-1.123-.282-1.617a2.612 2.612 0 0 0-.843-1.188c-.375-.302-.854-.453-1.438-.453-.573 0-1.047.151-1.422.453a2.688 2.688 0 0 0-.843 1.188 4.585 4.585 0 0 0-.274 1.617c0 .578.091 1.112.274 1.602.187.49.468.882.843 1.18.375.296.849.445 1.422.445Zm9.422-7.617v1.196h-4.516V63.32h4.516Zm-3.18-2.101h1.399v8.547c0 .38.075.658.226.836.157.171.42.257.789.257.089 0 .201-.007.336-.023.141-.02.269-.042.383-.063l.258 1.188a2.4 2.4 0 0 1-.484.102c-.183.02-.362.03-.539.03-.75 0-1.334-.192-1.75-.577-.412-.391-.618-.938-.618-1.641v-8.656Zm6.321 5.593V72h-1.399V60.36h1.399v5.062h-.258c.266-.797.643-1.365 1.133-1.703.495-.344 1.07-.516 1.726-.516.589 0 1.104.122 1.547.367.448.24.797.604 1.047 1.094.25.484.375 1.096.375 1.836V72h-1.398v-5.383c0-.677-.177-1.203-.532-1.578-.349-.38-.828-.57-1.437-.57-.417 0-.792.09-1.125.273-.333.177-.597.44-.789.79-.193.348-.289.775-.289 1.28Zm11.64 5.376c-.843 0-1.57-.188-2.179-.563a3.732 3.732 0 0 1-1.399-1.563c-.328-.671-.492-1.45-.492-2.335 0-.891.161-1.675.484-2.352.323-.682.779-1.213 1.368-1.594.588-.385 1.276-.578 2.062-.578.474 0 .935.08 1.383.242.453.157.862.41 1.226.758.365.344.654.794.868 1.352.213.552.32 1.221.32 2.007v.563h-6.781v-1.18h6.023l-.648.43c0-.573-.091-1.078-.274-1.516a2.312 2.312 0 0 0-.804-1.039c-.355-.25-.792-.375-1.313-.375-.526 0-.976.128-1.351.383-.37.255-.654.591-.852 1.008a3.04 3.04 0 0 0-.297 1.336v.766c0 .64.109 1.184.328 1.632.224.448.534.79.93 1.024.401.234.87.351 1.406.351.349 0 .664-.05.945-.148.282-.104.524-.258.727-.461a1.96 1.96 0 0 0 .461-.75l1.359.336a2.79 2.79 0 0 1-.687 1.18 3.378 3.378 0 0 1-1.203.796c-.474.193-1.011.29-1.61.29Zm5.602-.188v-8.68h1.351v1.336h.086c.162-.437.443-.789.844-1.054.406-.271.87-.407 1.391-.407a11.312 11.312 0 0 1 .695.023v1.407a3.765 3.765 0 0 0-.312-.047 4.116 4.116 0 0 0-.524-.031c-.406 0-.771.086-1.094.258a1.895 1.895 0 0 0-.765.71 2.01 2.01 0 0 0-.274 1.063V72h-1.398Zm10.391 0v-8.68h1.359l.008 1.922h-.11c.12-.463.31-.849.571-1.156.26-.307.562-.536.906-.688a2.578 2.578 0 0 1 1.078-.234c.641 0 1.159.195 1.555.586.401.385.659.888.773 1.508h-.195c.104-.427.292-.797.562-1.11.276-.312.61-.554 1-.726a3.149 3.149 0 0 1 1.282-.258c.505 0 .966.11 1.382.328.417.219.748.55.993.992.25.443.375 1.003.375 1.68V72h-1.407v-5.805c0-.63-.177-1.08-.531-1.351a1.942 1.942 0 0 0-1.226-.406c-.391 0-.73.083-1.016.25a1.677 1.677 0 0 0-.664.671 2.08 2.08 0 0 0-.227.985V72h-1.398v-5.945c0-.485-.162-.875-.485-1.172-.322-.297-.731-.445-1.226-.445-.339 0-.659.08-.961.242-.297.156-.539.39-.727.703-.182.312-.273.703-.273 1.172V72h-1.398Zm16.406.195a3.623 3.623 0 0 1-1.5-.304 2.565 2.565 0 0 1-1.071-.907c-.26-.4-.39-.885-.39-1.453 0-.5.096-.903.289-1.21.198-.313.461-.558.789-.735a4.024 4.024 0 0 1 1.094-.406c.401-.089.804-.16 1.211-.211.52-.068.942-.12 1.265-.156.328-.037.571-.1.727-.188.156-.088.234-.24.234-.453v-.047c0-.36-.067-.664-.203-.914a1.357 1.357 0 0 0-.617-.578c-.271-.136-.607-.203-1.008-.203-.411 0-.766.065-1.062.195a2.21 2.21 0 0 0-.727.492 1.974 1.974 0 0 0-.398.617l-1.352-.398c.203-.526.49-.943.859-1.25.37-.313.784-.536 1.243-.672.463-.14.929-.21 1.398-.21.313 0 .656.038 1.031.116.375.078.732.224 1.071.438.338.208.617.513.836.914.218.4.328.927.328 1.578V72h-1.375v-1.188h-.094a2.377 2.377 0 0 1-.469.626 2.584 2.584 0 0 1-.844.539c-.343.145-.765.218-1.265.218Zm.242-1.234c.521 0 .958-.102 1.312-.305.36-.203.631-.466.813-.789.187-.323.281-.664.281-1.023v-1.188c-.057.068-.179.128-.367.18a6.565 6.565 0 0 1-.648.14c-.24.042-.477.079-.711.11-.23.026-.417.05-.563.07a4.557 4.557 0 0 0-.945.219 1.652 1.652 0 0 0-.703.438c-.177.192-.266.455-.266.789 0 .296.076.546.227.75.156.197.369.349.64.453.271.104.581.156.93.156ZM200.004 72v-8.68h1.351v1.336h.086c.162-.437.443-.789.844-1.054.406-.271.87-.407 1.391-.407a11.312 11.312 0 0 1 .695.023v1.407a3.765 3.765 0 0 0-.312-.047 4.116 4.116 0 0 0-.524-.031c-.406 0-.771.086-1.094.258a1.895 1.895 0 0 0-.765.71 2.01 2.01 0 0 0-.274 1.063V72h-1.398Zm7.453-3.125v-1.719h.242l3.75-3.836h1.735l-4.032 4.117h-.156l-1.539 1.438ZM206.145 72V60.36h1.398V72h-1.398Zm5.523 0-3.344-4.25.992-.984L213.457 72h-1.789Zm6.484.188c-.843 0-1.57-.188-2.179-.563a3.732 3.732 0 0 1-1.399-1.563c-.328-.671-.492-1.45-.492-2.335 0-.891.161-1.675.484-2.352.323-.682.779-1.213 1.368-1.594.588-.385 1.276-.578 2.062-.578.474 0 .935.08 1.383.242.453.157.862.41 1.226.758.365.344.654.794.868 1.352.213.552.32 1.221.32 2.007v.563h-6.781v-1.18h6.023l-.648.43c0-.573-.091-1.078-.274-1.516a2.312 2.312 0 0 0-.804-1.039c-.355-.25-.792-.375-1.313-.375-.526 0-.976.128-1.351.383-.37.255-.654.591-.852 1.008a3.04 3.04 0 0 0-.297 1.336v.766c0 .64.109 1.184.328 1.632.224.448.534.79.93 1.024.401.234.87.351 1.406.351.349 0 .664-.05.945-.148.282-.104.524-.258.727-.461a1.96 1.96 0 0 0 .461-.75l1.359.336a2.79 2.79 0 0 1-.687 1.18 3.378 3.378 0 0 1-1.203.796c-.474.193-1.011.29-1.61.29Zm9.063-8.868v1.196h-4.516V63.32h4.516Zm-3.18-2.101h1.399v8.547c0 .38.075.658.226.836.156.171.419.257.789.257.089 0 .201-.007.336-.023.141-.02.268-.042.383-.063l.258 1.188c-.141.047-.302.08-.485.102a4.75 4.75 0 0 1-.539.03c-.75 0-1.333-.192-1.75-.577-.411-.391-.617-.938-.617-1.641v-8.656ZM228.957 72v-8.68h1.398V72h-1.398Zm.711-10.133a.983.983 0 0 1-.688-.265.885.885 0 0 1-.281-.657c0-.26.094-.479.281-.656a.967.967 0 0 1 .688-.273c.271 0 .5.09.687.273.193.177.29.396.29.656a.872.872 0 0 1-.29.657.962.962 0 0 1-.687.265Zm4.5 4.946V72h-1.398v-8.68h1.351l.008 2.102h-.219c.266-.797.643-1.365 1.133-1.703.495-.344 1.07-.516 1.727-.516.588 0 1.104.122 1.546.367.443.24.789.604 1.039 1.094.256.484.383 1.096.383 1.836V72h-1.398v-5.383c0-.677-.177-1.203-.531-1.578-.349-.38-.829-.57-1.438-.57-.417 0-.792.09-1.125.273-.333.177-.596.44-.789.79-.193.348-.289.775-.289 1.28Zm11.508 8.632c-.641 0-1.198-.083-1.672-.25a3.384 3.384 0 0 1-1.18-.68 3.21 3.21 0 0 1-.726-.93l1.164-.655c.12.182.273.375.461.578.187.203.437.372.75.508.312.14.713.21 1.203.21.703 0 1.276-.169 1.719-.507.447-.339.671-.867.671-1.586v-1.695h-.117a4.86 4.86 0 0 1-.453.617c-.187.224-.448.419-.781.586-.333.166-.771.25-1.313.25a3.592 3.592 0 0 1-1.882-.5c-.558-.334-.998-.818-1.321-1.454-.317-.635-.476-1.406-.476-2.312 0-.896.159-1.674.476-2.336.318-.661.755-1.174 1.313-1.539.557-.365 1.195-.547 1.914-.547.541 0 .979.089 1.312.266.339.177.604.383.797.617.193.234.341.44.445.617h.125V63.32h1.36v8.883c0 .755-.169 1.373-.508 1.852-.339.479-.794.83-1.367 1.054-.573.224-1.211.336-1.914.336Zm-.047-4.797c.531 0 .979-.122 1.344-.367.364-.245.64-.594.828-1.047.192-.458.289-1.005.289-1.64 0-.62-.094-1.164-.281-1.633-.188-.469-.464-.836-.829-1.102-.364-.27-.815-.406-1.351-.406-.542 0-.997.14-1.367.422a2.52 2.52 0 0 0-.836 1.125c-.188.469-.281 1-.281 1.594 0 .61.093 1.143.281 1.601.192.459.474.815.844 1.07.369.256.822.383 1.359.383ZM256.332 72v-8.68h1.359l.008 1.922h-.109c.12-.463.31-.849.57-1.156a2.51 2.51 0 0 1 .906-.688 2.582 2.582 0 0 1 1.079-.234c.64 0 1.158.195 1.554.586.401.385.659.888.774 1.508h-.196c.105-.427.292-.797.563-1.11a2.842 2.842 0 0 1 1-.726c.39-.172.818-.258 1.281-.258.505 0 .966.11 1.383.328.417.219.747.55.992.992.25.443.375 1.003.375 1.68V72h-1.406v-5.805c0-.63-.177-1.08-.531-1.351a1.943 1.943 0 0 0-1.227-.406c-.391 0-.729.083-1.016.25a1.69 1.69 0 0 0-.664.671 2.08 2.08 0 0 0-.226.985V72h-1.399v-5.945c0-.485-.161-.875-.484-1.172-.323-.297-.732-.445-1.227-.445-.338 0-.658.08-.961.242-.296.156-.539.39-.726.703-.182.312-.274.703-.274 1.172V72h-1.398Zm16.406.195a3.623 3.623 0 0 1-1.5-.304 2.562 2.562 0 0 1-1.07-.907c-.26-.4-.391-.885-.391-1.453 0-.5.097-.903.289-1.21.198-.313.461-.558.789-.735a4.037 4.037 0 0 1 1.094-.406 13.65 13.65 0 0 1 1.211-.211c.521-.068.943-.12 1.266-.156.328-.037.57-.1.726-.188.157-.088.235-.24.235-.453v-.047c0-.36-.068-.664-.203-.914a1.364 1.364 0 0 0-.618-.578c-.27-.136-.606-.203-1.007-.203-.412 0-.766.065-1.063.195-.297.13-.539.294-.726.492a1.96 1.96 0 0 0-.399.617l-1.351-.398c.203-.526.489-.943.859-1.25a3.4 3.4 0 0 1 1.242-.672c.464-.14.93-.21 1.399-.21.312 0 .656.038 1.031.116.375.078.732.224 1.07.438.339.208.617.513.836.914.219.4.328.927.328 1.578V72h-1.375v-1.188h-.094a2.393 2.393 0 0 1-.468.626 2.595 2.595 0 0 1-.844.539c-.344.145-.766.218-1.266.218Zm.242-1.234c.521 0 .959-.102 1.313-.305a2.08 2.08 0 0 0 .812-.789c.188-.323.282-.664.282-1.023v-1.188c-.058.068-.18.128-.367.18a6.59 6.59 0 0 1-.649.14c-.239.042-.476.079-.711.11-.229.026-.417.05-.562.07a4.551 4.551 0 0 0-.946.219 1.658 1.658 0 0 0-.703.438c-.177.192-.265.455-.265.789 0 .296.075.546.226.75.156.197.37.349.641.453.271.104.581.156.929.156Zm9.672-7.64v1.195h-4.515V63.32h4.515Zm-3.179-2.102h1.398v8.547c0 .38.076.658.227.836.156.171.419.257.789.257.088 0 .2-.007.336-.023.14-.02.268-.042.382-.063l.258 1.188c-.14.047-.302.08-.484.102a4.75 4.75 0 0 1-.539.03c-.75 0-1.333-.192-1.75-.577-.412-.391-.617-.938-.617-1.641v-8.656Zm8.414 10.968c-.844 0-1.571-.187-2.18-.562a3.736 3.736 0 0 1-1.398-1.563c-.329-.671-.493-1.45-.493-2.335 0-.891.162-1.675.485-2.352.323-.682.778-1.213 1.367-1.594.589-.385 1.276-.578 2.062-.578.474 0 .935.08 1.383.242.453.157.862.41 1.227.758.364.344.653.794.867 1.352.214.552.32 1.221.32 2.007v.563h-6.781v-1.18h6.024l-.649.43c0-.573-.091-1.078-.273-1.516a2.32 2.32 0 0 0-.805-1.039c-.354-.25-.792-.375-1.313-.375-.526 0-.976.128-1.351.383-.37.255-.654.591-.852 1.008a3.04 3.04 0 0 0-.297 1.336v.766c0 .64.11 1.184.329 1.632a2.4 2.4 0 0 0 .929 1.024c.401.234.87.351 1.407.351.348 0 .664-.05.945-.148a1.99 1.99 0 0 0 .726-.461c.204-.203.357-.453.461-.75l1.36.336c-.13.448-.36.841-.688 1.18a3.378 3.378 0 0 1-1.203.796c-.474.193-1.01.29-1.609.29Zm5.601-.187v-8.68h1.352v1.336h.086c.161-.437.442-.789.844-1.054.406-.271.869-.407 1.39-.407a11.312 11.312 0 0 1 .695.023v1.407a3.62 3.62 0 0 0-.312-.047 4.1 4.1 0 0 0-.523-.031 2.29 2.29 0 0 0-1.094.258 1.904 1.904 0 0 0-.766.71 2.02 2.02 0 0 0-.273 1.063V72h-1.399Zm6.157 0v-8.68h1.398V72h-1.398Zm.71-10.133a.982.982 0 0 1-.687-.265.88.88 0 0 1-.281-.657c0-.26.093-.479.281-.656a.967.967 0 0 1 .687-.273c.271 0 .5.09.688.273a.855.855 0 0 1 .289.656.87.87 0 0 1-.289.657.966.966 0 0 1-.688.265Zm5.555 10.328a3.623 3.623 0 0 1-1.5-.304 2.556 2.556 0 0 1-1.07-.907c-.261-.4-.391-.885-.391-1.453 0-.5.097-.903.289-1.21.198-.313.461-.558.789-.735a4.024 4.024 0 0 1 1.094-.406 13.65 13.65 0 0 1 1.211-.211c.521-.068.943-.12 1.266-.156.328-.037.57-.1.726-.188.156-.088.235-.24.235-.453v-.047c0-.36-.068-.664-.204-.914a1.357 1.357 0 0 0-.617-.578c-.271-.136-.606-.203-1.008-.203-.411 0-.765.065-1.062.195a2.21 2.21 0 0 0-.727.492 1.974 1.974 0 0 0-.398.617l-1.352-.398c.204-.526.49-.943.86-1.25a3.4 3.4 0 0 1 1.242-.672c.464-.14.93-.21 1.398-.21.313 0 .657.038 1.032.116.375.078.731.224 1.07.438.339.208.617.513.836.914.219.4.328.927.328 1.578V72h-1.375v-1.188h-.094a2.393 2.393 0 0 1-.468.626 2.595 2.595 0 0 1-.844.539c-.344.145-.766.218-1.266.218Zm.242-1.234c.521 0 .959-.102 1.313-.305a2.08 2.08 0 0 0 .812-.789c.188-.323.282-.664.282-1.023v-1.188c-.058.068-.18.128-.368.18a6.502 6.502 0 0 1-.648.14c-.24.042-.477.079-.711.11-.229.026-.417.05-.562.07a4.551 4.551 0 0 0-.946.219 1.658 1.658 0 0 0-.703.438c-.177.192-.266.455-.266.789 0 .296.076.546.227.75.156.197.37.349.641.453.27.104.58.156.929.156Zm7.61-10.602V72h-1.399V60.36h1.399Zm5.375 11.828c-.599 0-1.133-.088-1.602-.265a2.82 2.82 0 0 1-1.148-.79c-.302-.348-.503-.778-.602-1.288l1.336-.281c.115.479.344.833.688 1.062.349.224.786.336 1.312.336.604 0 1.086-.128 1.445-.383.36-.26.539-.57.539-.93a.977.977 0 0 0-.32-.75c-.213-.203-.534-.351-.961-.445l-1.437-.344c-.787-.187-1.375-.476-1.766-.867-.385-.396-.578-.898-.578-1.508 0-.5.138-.94.414-1.32.281-.38.664-.677 1.148-.89.485-.214 1.034-.32 1.649-.32.594 0 1.101.09 1.523.273.427.182.771.437 1.032.765.265.323.458.698.578 1.125l-1.282.29a1.96 1.96 0 0 0-.585-.876c-.282-.26-.701-.39-1.258-.39-.521 0-.953.12-1.297.359-.339.24-.508.542-.508.906 0 .323.117.584.352.781.234.193.599.347 1.093.461l1.321.313c.791.187 1.377.477 1.757.867.381.39.571.885.571 1.484 0 .51-.143.964-.43 1.36-.286.396-.687.706-1.203.93-.516.224-1.109.335-1.781.335Z" fill="#fff"/><path d="m9.605 220.396-7.028 26.123H.264l7.028-26.123h2.313Zm6.868 23.092c-1.035 0-1.957-.176-2.768-.527a4.511 4.511 0 0 1-1.932-1.596c-.479-.703-.718-1.572-.718-2.607 0-.888.176-1.611.527-2.167a3.654 3.654 0 0 1 1.406-1.318 7.543 7.543 0 0 1 1.977-.732 24.246 24.246 0 0 1 2.27-.395 145.89 145.89 0 0 1 2.327-.308c.576-.068.986-.18 1.23-.336.244-.157.366-.43.366-.82v-.147c0-.576-.136-1.083-.41-1.523-.263-.439-.649-.781-1.156-1.025-.508-.253-1.128-.38-1.86-.38-.722 0-1.362.122-1.918.366-.547.234-.986.556-1.318.966-.322.4-.512.849-.571 1.347l-2.533-.088c.088-.956.41-1.791.966-2.504.566-.722 1.308-1.283 2.226-1.683.918-.41 1.967-.615 3.148-.615.86 0 1.65.117 2.372.351a5.265 5.265 0 0 1 1.874 1.01c.527.44.933.981 1.216 1.626.293.634.439 1.361.439 2.181v10.675h-2.475v-2.197H21.1c-.186.371-.464.747-.835 1.128-.37.381-.864.698-1.479.952-.615.244-1.386.366-2.313.366Zm.351-2.241c1.015 0 1.84-.18 2.475-.541.644-.371 1.113-.85 1.405-1.435a4.115 4.115 0 0 0 .454-1.889v-1.977c-.097.088-.283.176-.556.264-.264.078-.59.156-.981.234-.38.068-.79.137-1.23.205-.43.068-.854.127-1.274.176a7.94 7.94 0 0 0-1.713.41c-.527.185-.957.453-1.289.805-.332.351-.498.82-.498 1.406 0 .488.132.907.396 1.259.263.351.634.62 1.113.805.478.186 1.044.278 1.698.278Zm12.959-3.602v-2.987h.22l7.16-6.984h3.236l-7.541 7.38h-.234l-2.841 2.591Zm-2.343 5.594v-21.818h2.504v21.818H27.44Zm10.264 0-6.296-7.629 1.772-1.742 7.717 9.371h-3.193Zm9.81.249c-1.034 0-1.956-.176-2.767-.527a4.511 4.511 0 0 1-1.932-1.596c-.479-.703-.718-1.572-.718-2.607 0-.888.176-1.611.527-2.167a3.654 3.654 0 0 1 1.406-1.318 7.543 7.543 0 0 1 1.977-.732 24.246 24.246 0 0 1 2.27-.395 145.89 145.89 0 0 1 2.328-.308c.575-.068.985-.18 1.23-.336.243-.157.365-.43.365-.82v-.147c0-.576-.136-1.083-.41-1.523-.263-.439-.649-.781-1.156-1.025-.508-.253-1.128-.38-1.86-.38-.722 0-1.362.122-1.918.366-.547.234-.986.556-1.318.966-.322.4-.512.849-.57 1.347l-2.534-.088c.088-.956.41-1.791.966-2.504.567-.722 1.308-1.283 2.226-1.683.918-.41 1.967-.615 3.148-.615.86 0 1.65.117 2.372.351a5.265 5.265 0 0 1 1.874 1.01c.528.44.933.981 1.216 1.626.293.634.44 1.361.44 2.181v10.675H52.2v-2.197h-.058c-.186.371-.464.747-.835 1.128-.37.381-.864.698-1.479.952-.615.244-1.386.366-2.313.366Zm.352-2.241c1.016 0 1.84-.18 2.475-.541.644-.371 1.113-.85 1.406-1.435a4.115 4.115 0 0 0 .453-1.889v-1.977c-.097.088-.283.176-.556.264-.264.078-.59.156-.981.234-.38.068-.79.137-1.23.205-.43.068-.854.127-1.274.176a7.938 7.938 0 0 0-1.713.41c-.527.185-.957.453-1.288.805-.332.351-.498.82-.498 1.406 0 .488.131.907.395 1.259.264.351.635.62 1.113.805.478.186 1.044.278 1.698.278Zm16.546 2.285c-1.337 0-2.513-.337-3.529-1.011-1.015-.683-1.8-1.63-2.357-2.84-.556-1.211-.835-2.616-.835-4.217 0-1.611.279-3.022.835-4.232.556-1.211 1.342-2.153 2.357-2.826 1.016-.674 2.192-1.01 3.53-1.01.722 0 1.386.102 1.99.307a5.143 5.143 0 0 1 1.64.893 5.22 5.22 0 0 1 1.201 1.406h.044v-8.581h2.504v21.818h-2.445v-2.358h-.059a5.927 5.927 0 0 1-1.259 1.435 5.174 5.174 0 0 1-1.64.908 6.042 6.042 0 0 1-1.977.308Zm.381-2.241c.966 0 1.796-.239 2.49-.717.702-.488 1.244-1.172 1.625-2.05.38-.879.57-1.899.57-3.06 0-1.182-.19-2.207-.57-3.075-.381-.879-.923-1.557-1.626-2.036-.693-.478-1.522-.717-2.489-.717-.898 0-1.694.224-2.387.673-.683.449-1.22 1.108-1.61 1.977-.381.859-.571 1.918-.571 3.178 0 1.239.19 2.294.57 3.162.391.869.928 1.533 1.611 1.992.693.449 1.489.673 2.387.673Zm17.249 2.299c-1.513 0-2.811-.346-3.895-1.039-1.074-.694-1.899-1.65-2.475-2.87-.566-1.221-.849-2.616-.849-4.188 0-1.582.298-2.982.893-4.203.596-1.229 1.42-2.196 2.475-2.899 1.064-.703 2.284-1.054 3.66-1.054 1.055 0 2.011.19 2.87.571.87.381 1.611.927 2.226 1.64.625.713 1.103 1.567 1.435 2.562.342.996.513 2.114.513 3.354v.732h-12.71v-2.153h11.319l-1.084.762c0-1.055-.186-1.972-.556-2.753-.371-.791-.898-1.401-1.582-1.83-.683-.43-1.493-.645-2.43-.645-.918 0-1.719.215-2.402.645-.683.429-1.215 1.034-1.596 1.815-.37.771-.556 1.679-.556 2.724v1.098c0 1.074.185 2.025.556 2.855.371.82.913 1.46 1.626 1.918.712.459 1.566.689 2.562.689.722 0 1.362-.113 1.918-.337a3.676 3.676 0 0 0 1.377-.937c.37-.41.639-.884.805-1.421l2.489.074a5.859 5.859 0 0 1-1.23 2.562c-.605.732-1.371 1.303-2.299 1.713-.917.41-1.938.615-3.06.615Zm9.825-.351v-15.565h2.445v3.221h-.307c.302-.771.698-1.415 1.186-1.933a4.855 4.855 0 0 1 1.684-1.171 5.127 5.127 0 0 1 2.02-.41c1.201 0 2.216.346 3.046 1.04.84.693 1.362 1.518 1.567 2.474h-.498a5.065 5.065 0 0 1 1.054-1.772 5.28 5.28 0 0 1 1.787-1.273c.702-.313 1.488-.469 2.357-.469.937 0 1.796.205 2.577.615.781.41 1.401 1.03 1.86 1.86.468.829.703 1.879.703 3.148v10.235h-2.504v-10.221c0-1.2-.337-2.055-1.011-2.562-.673-.517-1.454-.776-2.342-.776-.752 0-1.401.156-1.948.468a3.22 3.22 0 0 0-1.244 1.289c-.293.537-.44 1.162-.44 1.874v9.928h-2.504v-10.484c0-.928-.312-1.67-.937-2.226-.615-.566-1.39-.849-2.328-.849-.644 0-1.254.151-1.83.454-.566.302-1.025.751-1.377 1.347-.341.595-.512 1.337-.512 2.226v9.532h-2.504Zm25.273 0v-15.565h2.504v15.565h-2.504Zm1.245-18.538a1.69 1.69 0 0 1-1.216-.497 1.686 1.686 0 0 1-.498-1.216c0-.468.166-.869.498-1.2a1.669 1.669 0 0 1 1.201-.498c.478 0 .883.166 1.215.498.342.331.513.737.513 1.215 0 .459-.171.859-.513 1.201a1.639 1.639 0 0 1-1.2.497Zm9.751 18.787c-1.034 0-1.957-.176-2.767-.527a4.517 4.517 0 0 1-1.933-1.596c-.478-.703-.717-1.572-.717-2.607 0-.888.175-1.611.527-2.167a3.65 3.65 0 0 1 1.406-1.318 7.53 7.53 0 0 1 1.976-.732 24.271 24.271 0 0 1 2.27-.395c.986-.137 1.762-.239 2.328-.308.576-.068.986-.18 1.23-.336.244-.157.366-.43.366-.82v-.147c0-.576-.137-1.083-.41-1.523-.263-.439-.649-.781-1.157-1.025-.507-.253-1.127-.38-1.859-.38-.723 0-1.362.122-1.918.366-.547.234-.986.556-1.318.966-.322.4-.513.849-.571 1.347l-2.533-.088c.087-.956.41-1.791.966-2.504.566-.722 1.308-1.283 2.226-1.683.917-.41 1.967-.615 3.148-.615.859 0 1.649.117 2.372.351a5.266 5.266 0 0 1 1.874 1.01c.527.44.932.981 1.215 1.626.293.634.44 1.361.44 2.181v10.675h-2.475v-2.197h-.058c-.186.371-.464.747-.835 1.128-.371.381-.864.698-1.479.952-.615.244-1.386.366-2.314.366Zm.352-2.241c1.015 0 1.84-.18 2.474-.541.645-.371 1.113-.85 1.406-1.435a4.11 4.11 0 0 0 .454-1.889v-1.977c-.098.088-.283.176-.556.264-.264.078-.591.156-.981.234-.381.068-.791.137-1.23.205-.43.068-.854.127-1.274.176a7.927 7.927 0 0 0-1.713.41c-.528.185-.957.453-1.289.805-.332.351-.498.82-.498 1.406 0 .488.132.907.396 1.259.263.351.634.62 1.112.805.479.186 1.045.278 1.699.278Z" fill="#fff"/><path opacity=".8" d="M7.852 255.598v11.641H6.375v-11.641h1.477Zm3.984 6.453v5.188h-1.399v-8.68h1.352l.008 2.102h-.219c.266-.797.643-1.365 1.133-1.703.495-.344 1.07-.516 1.726-.516.589 0 1.105.122 1.547.367.443.24.79.604 1.04 1.094.255.484.382 1.096.382 1.836v5.5h-1.398v-5.383c0-.677-.177-1.203-.531-1.578-.35-.38-.829-.57-1.438-.57-.417 0-.792.091-1.125.273-.333.177-.596.44-.789.789-.193.349-.29.776-.29 1.281Zm11.242 5.375c-.724 0-1.364-.185-1.922-.554-.552-.37-.984-.891-1.297-1.563-.312-.677-.468-1.474-.468-2.391 0-.911.156-1.703.468-2.375.318-.671.753-1.19 1.305-1.554.557-.365 1.198-.547 1.922-.547.542 0 .98.091 1.312.273.334.177.594.383.782.618.192.229.338.429.437.601h.102v-4.336h1.398v11.641h-1.351v-1.344h-.141a4.723 4.723 0 0 1-.453.633 2.653 2.653 0 0 1-.79.625c-.333.182-.767.273-1.304.273Zm.211-1.258c.526 0 .971-.138 1.336-.414.37-.276.648-.658.836-1.148.187-.49.281-1.057.281-1.703 0-.641-.094-1.201-.281-1.68-.182-.479-.458-.854-.828-1.125-.365-.271-.813-.406-1.344-.406-.547 0-1.005.141-1.375.422-.365.281-.64.664-.828 1.148a4.634 4.634 0 0 0-.273 1.641c0 .62.093 1.177.28 1.672.188.489.467.877.837 1.164.37.286.823.429 1.36.429Zm6.242 1.071v-8.68h1.399v8.68H29.53Zm.711-10.133a.982.982 0 0 1-.687-.266.882.882 0 0 1-.282-.656c0-.26.094-.479.282-.656a.968.968 0 0 1 .687-.274c.271 0 .5.092.688.274.192.177.289.396.289.656a.871.871 0 0 1-.29.656.965.965 0 0 1-.687.266Zm5.617 10.133-3.32-8.68h1.531l1.852 5.133c.193.521.357 1.042.492 1.562.14.516.284 1.019.43 1.508h-.492c.15-.489.294-.992.43-1.508.135-.52.296-1.041.484-1.562l1.851-5.133h1.524l-3.32 8.68h-1.462Zm6.391 0v-8.68h1.398v8.68H42.25Zm.71-10.133a.982.982 0 0 1-.687-.266.882.882 0 0 1-.28-.656c0-.26.093-.479.28-.656a.968.968 0 0 1 .688-.274c.27 0 .5.092.687.274.193.177.29.396.29.656a.871.871 0 0 1-.29.656.965.965 0 0 1-.687.266Zm6.368 10.32c-.724 0-1.364-.185-1.922-.554-.552-.37-.984-.891-1.297-1.563-.312-.677-.468-1.474-.468-2.391 0-.911.156-1.703.468-2.375.318-.671.753-1.19 1.305-1.554.557-.365 1.198-.547 1.922-.547.542 0 .98.091 1.312.273.334.177.594.383.782.618.192.229.338.429.437.601h.102v-4.336h1.398v11.641h-1.351v-1.344h-.141a4.723 4.723 0 0 1-.453.633 2.653 2.653 0 0 1-.79.625c-.332.182-.767.273-1.304.273Zm.211-1.258c.526 0 .971-.138 1.336-.414.37-.276.648-.658.836-1.148.187-.49.281-1.057.281-1.703 0-.641-.094-1.201-.281-1.68-.182-.479-.458-.854-.828-1.125-.365-.271-.813-.406-1.344-.406-.547 0-1.005.141-1.375.422-.364.281-.64.664-.828 1.148a4.634 4.634 0 0 0-.273 1.641c0 .62.093 1.177.28 1.672.188.489.467.877.837 1.164.37.286.823.429 1.36.429Zm9.211 1.188c-.583 0-1.099-.12-1.547-.359a2.584 2.584 0 0 1-1.047-1.102c-.25-.49-.375-1.102-.375-1.836v-5.5h1.399v5.383c0 .677.177 1.206.53 1.586.355.375.837.562 1.446.562.417 0 .79-.088 1.117-.265.334-.183.597-.448.79-.797.192-.354.289-.781.289-1.281v-5.188h1.398v8.68h-1.352v-2.102h.211c-.27.807-.653 1.38-1.148 1.719-.495.333-1.065.5-1.711.5Zm8.875.078a3.612 3.612 0 0 1-1.5-.305 2.557 2.557 0 0 1-1.07-.906c-.26-.401-.39-.885-.39-1.453 0-.5.095-.904.288-1.211a2.1 2.1 0 0 1 .79-.734 4.018 4.018 0 0 1 1.093-.407c.401-.088.805-.158 1.21-.21.522-.068.944-.12 1.266-.157.329-.036.57-.099.727-.187.156-.089.234-.24.234-.453v-.047c0-.36-.067-.664-.203-.914a1.356 1.356 0 0 0-.617-.578c-.27-.136-.607-.204-1.008-.204-.411 0-.765.066-1.062.196a2.2 2.2 0 0 0-.727.492 1.985 1.985 0 0 0-.398.617l-1.352-.398c.203-.526.49-.943.86-1.25.37-.313.783-.537 1.242-.672.463-.141.93-.211 1.398-.211.313 0 .656.039 1.031.117.376.078.732.224 1.07.438.34.208.618.513.837.914.219.401.328.927.328 1.578v5.75h-1.375v-1.188h-.094a2.378 2.378 0 0 1-.469.625 2.583 2.583 0 0 1-.843.539c-.344.146-.766.219-1.266.219Zm.242-1.234c.521 0 .959-.102 1.313-.305.36-.203.63-.466.812-.789.188-.323.281-.664.281-1.023v-1.188c-.057.068-.18.128-.367.18a6.395 6.395 0 0 1-.648.14c-.24.042-.477.078-.711.11-.23.026-.417.049-.563.07a4.583 4.583 0 0 0-.945.219 1.661 1.661 0 0 0-.703.437c-.177.193-.266.456-.266.789 0 .297.076.547.227.75.156.198.37.349.64.453.271.105.581.157.93.157Zm7.61-10.602v11.641h-1.399v-11.641h1.399Zm10.406 11.828c-.787 0-1.477-.187-2.07-.562a3.817 3.817 0 0 1-1.391-1.571c-.334-.671-.5-1.453-.5-2.343 0-.907.166-1.696.5-2.367.333-.678.797-1.204 1.39-1.579.594-.375 1.284-.562 2.07-.562.428 0 .829.057 1.204.172.38.109.724.271 1.031.484.313.208.578.466.797.774.224.307.39.651.5 1.031l-1.344.344a2 2 0 0 0-.289-.625 2 2 0 0 0-.469-.493 1.972 1.972 0 0 0-.632-.32 2.564 2.564 0 0 0-.797-.117c-.573 0-1.047.151-1.422.453a2.694 2.694 0 0 0-.844 1.188 4.597 4.597 0 0 0-.273 1.617c0 .578.09 1.112.273 1.601.188.49.469.883.844 1.18.375.297.849.445 1.422.445.297 0 .565-.039.805-.117.244-.078.46-.187.648-.328a2.14 2.14 0 0 0 .766-1.172l1.343.336a3.334 3.334 0 0 1-1.297 1.859 3.579 3.579 0 0 1-1.046.5 4.19 4.19 0 0 1-1.22.172Zm9.062 0c-.786 0-1.476-.187-2.07-.562a3.816 3.816 0 0 1-1.39-1.571c-.334-.671-.5-1.453-.5-2.343 0-.907.166-1.696.5-2.367.333-.678.796-1.204 1.39-1.579.594-.375 1.284-.562 2.07-.562.797 0 1.493.187 2.086.562a3.731 3.731 0 0 1 1.39 1.579c.334.671.5 1.46.5 2.367 0 .89-.166 1.672-.5 2.343a3.745 3.745 0 0 1-1.39 1.571c-.594.375-1.289.562-2.086.562Zm0-1.25c.584 0 1.063-.148 1.438-.445.38-.297.661-.69.844-1.18a4.437 4.437 0 0 0 .28-1.601 4.52 4.52 0 0 0-.28-1.617 2.615 2.615 0 0 0-.844-1.188c-.375-.302-.854-.453-1.438-.453-.573 0-1.047.151-1.422.453a2.694 2.694 0 0 0-.843 1.188 4.597 4.597 0 0 0-.274 1.617c0 .578.091 1.112.274 1.601.187.49.468.883.843 1.18.375.297.85.445 1.422.445Zm8.93 1.18c-.583 0-1.099-.12-1.547-.359a2.58 2.58 0 0 1-1.047-1.102c-.25-.49-.375-1.102-.375-1.836v-5.5h1.399v5.383c0 .677.177 1.206.531 1.586.354.375.836.562 1.445.562.417 0 .789-.088 1.117-.265.334-.183.597-.448.79-.797.192-.354.289-.781.289-1.281v-5.188h1.398v8.68h-1.352v-2.102h.211c-.27.807-.653 1.38-1.148 1.719-.495.333-1.065.5-1.711.5Zm6.422-.117v-8.68h1.351v1.336h.086c.162-.437.443-.789.844-1.055.406-.271.87-.406 1.391-.406a10.106 10.106 0 0 1 .695.024v1.406a3.532 3.532 0 0 0-.312-.047 4.081 4.081 0 0 0-.524-.031c-.406 0-.771.086-1.094.257a1.9 1.9 0 0 0-.765.711 2.013 2.013 0 0 0-.274 1.063v5.422h-1.398Zm8.898.187c-.599 0-1.133-.088-1.601-.265a2.816 2.816 0 0 1-1.149-.789c-.302-.349-.502-.779-.601-1.289l1.336-.282c.114.479.343.834.687 1.063.349.224.787.336 1.313.336.604 0 1.086-.128 1.445-.383.359-.261.539-.57.539-.93a.98.98 0 0 0-.32-.75c-.214-.203-.534-.351-.961-.445l-1.438-.344c-.786-.187-1.375-.476-1.765-.867-.386-.396-.578-.898-.578-1.508 0-.5.138-.94.414-1.32a2.8 2.8 0 0 1 1.148-.891c.484-.213 1.034-.32 1.648-.32.594 0 1.102.091 1.524.273.427.183.771.438 1.031.766.266.323.459.698.578 1.125l-1.281.289a1.953 1.953 0 0 0-.586-.875c-.281-.26-.7-.391-1.258-.391-.521 0-.953.12-1.297.36-.338.239-.507.541-.507.906 0 .323.117.583.351.781.235.193.599.347 1.094.461l1.32.313c.792.187 1.378.476 1.758.867.38.391.57.885.57 1.484 0 .511-.143.964-.429 1.36-.287.395-.688.705-1.203.929-.516.224-1.11.336-1.782.336Zm9.047 0c-.844 0-1.57-.187-2.18-.562a3.736 3.736 0 0 1-1.398-1.563c-.328-.672-.492-1.45-.492-2.336 0-.89.161-1.674.484-2.351.323-.683.779-1.214 1.367-1.594.589-.385 1.276-.578 2.063-.578.474 0 .935.081 1.383.242.453.156.862.409 1.226.758.365.344.654.794.867 1.351.214.553.321 1.222.321 2.008v.563h-6.781v-1.18h6.023l-.648.43c0-.573-.092-1.078-.274-1.516a2.305 2.305 0 0 0-.805-1.039c-.354-.25-.791-.375-1.312-.375-.526 0-.977.128-1.352.383a2.51 2.51 0 0 0-.851 1.008 3.037 3.037 0 0 0-.297 1.336v.765c0 .641.109 1.185.328 1.633.224.448.534.789.93 1.024.401.234.87.351 1.406.351.349 0 .664-.049.945-.148.282-.105.524-.258.727-.461.203-.203.357-.453.461-.75l1.359.336c-.13.448-.359.841-.687 1.179a3.376 3.376 0 0 1-1.203.797c-.474.193-1.011.289-1.61.289Z" fill="#fff"/><path d="m310.105 220.396-7.028 26.123h-2.313l7.028-26.123h2.313Zm8.098 23.136c-1.338 0-2.514-.337-3.529-1.011-1.015-.683-1.801-1.63-2.358-2.84-.556-1.211-.834-2.616-.834-4.217 0-1.611.278-3.022.834-4.232.557-1.211 1.343-2.153 2.358-2.826 1.015-.674 2.191-1.01 3.529-1.01.722 0 1.386.102 1.991.307a5.14 5.14 0 0 1 1.64.893c.478.391.879.859 1.201 1.406h.044v-8.581h2.504v21.818h-2.446v-2.358h-.058a5.924 5.924 0 0 1-1.26 1.435 5.172 5.172 0 0 1-1.639.908 6.047 6.047 0 0 1-1.977.308Zm.38-2.241c.967 0 1.797-.239 2.49-.717.703-.488 1.244-1.172 1.625-2.05.381-.879.571-1.899.571-3.06 0-1.182-.19-2.207-.571-3.075-.381-.879-.922-1.557-1.625-2.036-.693-.478-1.523-.717-2.49-.717-.898 0-1.693.224-2.386.673-.684.449-1.22 1.108-1.611 1.977-.381.859-.571 1.918-.571 3.178 0 1.239.19 2.294.571 3.162.391.869.927 1.533 1.611 1.992.693.449 1.488.673 2.386.673Zm13.325-19.87v21.818h-2.504v-21.818h2.504Zm8.493 22.067c-1.035 0-1.957-.176-2.768-.527a4.508 4.508 0 0 1-1.932-1.596c-.479-.703-.718-1.572-.718-2.607 0-.888.176-1.611.527-2.167a3.657 3.657 0 0 1 1.406-1.318 7.551 7.551 0 0 1 1.977-.732 24.25 24.25 0 0 1 2.269-.395c.986-.137 1.762-.239 2.328-.308.576-.068.986-.18 1.23-.336.244-.157.366-.43.366-.82v-.147c0-.576-.136-1.083-.41-1.523-.263-.439-.649-.781-1.156-1.025-.508-.253-1.128-.38-1.86-.38-.722 0-1.362.122-1.918.366-.547.234-.986.556-1.318.966-.322.4-.512.849-.571 1.347l-2.533-.088c.088-.956.41-1.791.966-2.504.566-.722 1.308-1.283 2.226-1.683.918-.41 1.967-.615 3.148-.615.859 0 1.65.117 2.372.351a5.258 5.258 0 0 1 1.874 1.01c.528.44.933.981 1.216 1.626.293.634.439 1.361.439 2.181v10.675h-2.475v-2.197h-.058c-.186.371-.464.747-.835 1.128-.371.381-.864.698-1.479.952-.615.244-1.386.366-2.313.366Zm.351-2.241c1.015 0 1.84-.18 2.475-.541.644-.371 1.113-.85 1.405-1.435a4.11 4.11 0 0 0 .454-1.889v-1.977c-.097.088-.283.176-.556.264-.264.078-.591.156-.981.234-.381.068-.791.137-1.23.205-.43.068-.854.127-1.274.176a7.942 7.942 0 0 0-1.713.41c-.527.185-.957.453-1.289.805-.332.351-.497.82-.497 1.406 0 .488.131.907.395 1.259.263.351.634.62 1.113.805.478.186 1.044.278 1.698.278Zm17.454-13.573v2.152h-8.507v-2.152h8.507Zm-5.71 15.565V224.98c0-.762.17-1.416.512-1.963a3.443 3.443 0 0 1 1.45-1.259c.624-.302 1.352-.454 2.181-.454.371 0 .713.01 1.025.03.313.009.523.019.63.029l-.088 2.138h-.6c-.293-.01-.537-.015-.732-.015-.674 0-1.157.151-1.45.454-.283.293-.425.776-.425 1.45v17.849h-2.503Zm8.273 0v-15.565h2.503v15.565h-2.503Zm1.244-18.538c-.468 0-.874-.166-1.215-.497a1.686 1.686 0 0 1-.498-1.216c0-.468.166-.869.498-1.2a1.667 1.667 0 0 1 1.2-.498c.479 0 .884.166 1.216.498.341.331.512.737.512 1.215 0 .459-.171.859-.512 1.201a1.64 1.64 0 0 1-1.201.497Zm5.052 18.538v-15.565h2.387v2.445h.073c.283-.81.742-1.459 1.376-1.947.635-.488 1.435-.732 2.401-.732.225 0 .435.009.63.029.195.019.347.039.454.058v2.504a4.668 4.668 0 0 0-.571-.102 5.61 5.61 0 0 0-.952-.073c-.595 0-1.147.136-1.654.41-.498.273-.898.688-1.201 1.244-.293.557-.439 1.264-.439 2.123v9.606h-2.504Zm9.898 0v-15.565h2.445v3.221h-.307c.303-.771.698-1.415 1.186-1.933a4.85 4.85 0 0 1 1.684-1.171 5.128 5.128 0 0 1 2.021-.41c1.2 0 2.215.346 3.045 1.04.84.693 1.362 1.518 1.567 2.474h-.498a5.08 5.08 0 0 1 1.054-1.772 5.28 5.28 0 0 1 1.787-1.273c.703-.313 1.488-.469 2.357-.469.937 0 1.796.205 2.577.615.781.41 1.401 1.03 1.86 1.86.468.829.703 1.879.703 3.148v10.235h-2.504v-10.221c0-1.2-.337-2.055-1.011-2.562-.673-.517-1.454-.776-2.342-.776-.752 0-1.401.156-1.948.468a3.22 3.22 0 0 0-1.244 1.289c-.293.537-.44 1.162-.44 1.874v9.928h-2.504v-10.484c0-.928-.312-1.67-.937-2.226-.615-.566-1.391-.849-2.328-.849-.644 0-1.254.151-1.83.454-.566.302-1.025.751-1.377 1.347-.341.595-.512 1.337-.512 2.226v9.532h-2.504Z" fill="#fff"/><path opacity=".8" d="M284.32 267.395c-1.005 0-1.898-.242-2.679-.727-.782-.484-1.396-1.171-1.844-2.062-.448-.896-.672-1.956-.672-3.18 0-1.229.224-2.289.672-3.179.448-.896 1.062-1.586 1.844-2.071.781-.489 1.674-.734 2.679-.734.589 0 1.144.086 1.664.258.526.172.998.424 1.414.758.422.333.771.736 1.047 1.21.282.469.474 1.003.578 1.602h-1.476a3.06 3.06 0 0 0-.438-1.055 2.804 2.804 0 0 0-.734-.773 3.004 3.004 0 0 0-.961-.477 3.807 3.807 0 0 0-1.094-.156c-.713 0-1.354.18-1.922.539-.562.36-1.007.883-1.336 1.57-.328.683-.492 1.519-.492 2.508 0 .985.164 1.821.492 2.508.334.682.782 1.203 1.344 1.563a3.544 3.544 0 0 0 1.914.531c.381 0 .745-.052 1.094-.156.354-.11.675-.269.961-.477.292-.208.536-.466.734-.773.203-.308.349-.659.438-1.055h1.476a4.585 4.585 0 0 1-.57 1.601c-.276.469-.625.87-1.047 1.204a4.58 4.58 0 0 1-1.414.765 5.3 5.3 0 0 1-1.672.258Zm10.297.031c-.786 0-1.476-.187-2.07-.562-.594-.375-1.057-.899-1.391-1.571-.333-.671-.5-1.453-.5-2.343 0-.907.167-1.696.5-2.367.334-.678.797-1.204 1.391-1.579s1.284-.562 2.07-.562c.797 0 1.492.187 2.086.562a3.731 3.731 0 0 1 1.391 1.579c.333.671.5 1.46.5 2.367 0 .89-.167 1.672-.5 2.343a3.745 3.745 0 0 1-1.391 1.571c-.594.375-1.289.562-2.086.562Zm0-1.25c.584 0 1.063-.148 1.438-.445.38-.297.661-.69.843-1.18a4.426 4.426 0 0 0 .282-1.601 4.51 4.51 0 0 0-.282-1.617 2.613 2.613 0 0 0-.843-1.188c-.375-.302-.854-.453-1.438-.453-.573 0-1.047.151-1.422.453a2.689 2.689 0 0 0-.843 1.188 4.58 4.58 0 0 0-.274 1.617c0 .578.091 1.112.274 1.601.187.49.468.883.843 1.18.375.297.849.445 1.422.445Zm5.961 1.063v-8.68h1.352v1.336h.086c.161-.437.442-.789.843-1.055a2.45 2.45 0 0 1 1.391-.406 10.106 10.106 0 0 1 .695.024v1.406a3.466 3.466 0 0 0-.312-.047 4.081 4.081 0 0 0-.524-.031c-.406 0-.77.086-1.093.257a1.909 1.909 0 0 0-.766.711 2.021 2.021 0 0 0-.273 1.063v5.422h-1.399Zm6.156 3.265v-11.945h1.36v1.375h.14c.105-.172.25-.372.438-.601.187-.235.448-.441.781-.618.333-.182.774-.273 1.32-.273.724 0 1.362.182 1.915.547.557.364.992.883 1.304 1.554.313.672.469 1.464.469 2.375 0 .917-.156 1.714-.469 2.391-.307.672-.739 1.193-1.297 1.563-.552.369-1.19.554-1.914.554-.531 0-.966-.091-1.304-.273a2.635 2.635 0 0 1-.789-.625 5.968 5.968 0 0 1-.454-.633h-.101v4.609h-1.399Zm3.836-4.336c.537 0 .987-.143 1.352-.429.37-.287.648-.675.836-1.164a4.702 4.702 0 0 0 .281-1.672c0-.61-.094-1.156-.281-1.641a2.518 2.518 0 0 0-.828-1.148c-.365-.281-.818-.422-1.36-.422-.536 0-.987.135-1.351.406-.365.271-.641.646-.828 1.125-.188.479-.282 1.039-.282 1.68 0 .646.094 1.213.282 1.703.192.49.471.872.836 1.148.369.276.817.414 1.343.414Zm9.422 1.258c-.786 0-1.476-.187-2.07-.562-.594-.375-1.057-.899-1.391-1.571-.333-.671-.5-1.453-.5-2.343 0-.907.167-1.696.5-2.367.334-.678.797-1.204 1.391-1.579s1.284-.562 2.07-.562c.797 0 1.492.187 2.086.562a3.731 3.731 0 0 1 1.391 1.579c.333.671.5 1.46.5 2.367 0 .89-.167 1.672-.5 2.343a3.745 3.745 0 0 1-1.391 1.571c-.594.375-1.289.562-2.086.562Zm0-1.25c.584 0 1.063-.148 1.438-.445.38-.297.661-.69.843-1.18a4.426 4.426 0 0 0 .282-1.601 4.51 4.51 0 0 0-.282-1.617 2.613 2.613 0 0 0-.843-1.188c-.375-.302-.854-.453-1.438-.453-.573 0-1.047.151-1.422.453a2.689 2.689 0 0 0-.843 1.188 4.58 4.58 0 0 0-.274 1.617c0 .578.091 1.112.274 1.601.187.49.468.883.843 1.18.375.297.849.445 1.422.445Zm5.961 1.063v-8.68h1.352v1.336h.086c.161-.437.442-.789.843-1.055a2.45 2.45 0 0 1 1.391-.406 10.106 10.106 0 0 1 .695.024v1.406a3.466 3.466 0 0 0-.312-.047 4.081 4.081 0 0 0-.524-.031c-.406 0-.77.086-1.093.257a1.902 1.902 0 0 0-.766.711 2.021 2.021 0 0 0-.273 1.063v5.422h-1.399Zm8.359.195a3.618 3.618 0 0 1-1.5-.305 2.565 2.565 0 0 1-1.07-.906c-.26-.401-.39-.885-.39-1.453 0-.5.096-.904.289-1.211a2.1 2.1 0 0 1 .789-.734 4.012 4.012 0 0 1 1.093-.407c.401-.088.805-.158 1.211-.21.521-.068.943-.12 1.266-.157.328-.036.57-.099.727-.187.156-.089.234-.24.234-.453v-.047c0-.36-.068-.664-.203-.914a1.36 1.36 0 0 0-.617-.578c-.271-.136-.607-.204-1.008-.204-.412 0-.766.066-1.063.196a2.19 2.19 0 0 0-.726.492 1.985 1.985 0 0 0-.399.617l-1.351-.398c.203-.526.489-.943.859-1.25.37-.313.784-.537 1.242-.672.464-.141.93-.211 1.399-.211.312 0 .656.039 1.031.117.375.078.732.224 1.07.438.339.208.617.513.836.914.219.401.328.927.328 1.578v5.75h-1.375v-1.188h-.093a2.393 2.393 0 0 1-.469.625 2.588 2.588 0 0 1-.844.539c-.344.146-.766.219-1.266.219Zm.243-1.234c.521 0 .958-.102 1.312-.305.36-.203.63-.466.813-.789.187-.323.281-.664.281-1.023v-1.188c-.057.068-.18.128-.367.18a6.433 6.433 0 0 1-.649.14c-.239.042-.476.078-.711.11a19.94 19.94 0 0 0-.562.07 4.574 4.574 0 0 0-.945.219 1.668 1.668 0 0 0-.704.437c-.177.193-.265.456-.265.789 0 .297.075.547.226.75.157.198.37.349.641.453.271.105.581.157.93.157Zm9.672-7.641v1.195h-4.516v-1.195h4.516Zm-3.18-2.101h1.398v8.546c0 .381.076.659.227.836.156.172.419.258.789.258.088 0 .2-.008.336-.023.141-.021.268-.042.383-.063l.258 1.188a2.42 2.42 0 0 1-.485.101 4.706 4.706 0 0 1-.539.032c-.75 0-1.333-.193-1.75-.579-.411-.39-.617-.937-.617-1.64v-8.656Zm8.414 10.968c-.844 0-1.57-.187-2.18-.562a3.736 3.736 0 0 1-1.398-1.563c-.328-.672-.492-1.45-.492-2.336 0-.89.161-1.674.484-2.351.323-.683.779-1.214 1.367-1.594.589-.385 1.276-.578 2.063-.578.474 0 .935.081 1.383.242a3.33 3.33 0 0 1 1.226.758c.365.344.654.794.867 1.351.214.553.321 1.222.321 2.008v.563h-6.782v-1.18h6.024l-.649.43c0-.573-.091-1.078-.273-1.516a2.312 2.312 0 0 0-.805-1.039c-.354-.25-.791-.375-1.312-.375-.526 0-.977.128-1.352.383-.37.255-.654.591-.851 1.008a3.037 3.037 0 0 0-.297 1.336v.765c0 .641.109 1.185.328 1.633.224.448.534.789.929 1.024.402.234.87.351 1.407.351.349 0 .664-.049.945-.148.281-.105.524-.258.727-.461a1.97 1.97 0 0 0 .461-.75l1.359.336c-.13.448-.359.841-.688 1.179a3.367 3.367 0 0 1-1.203.797c-.474.193-1.01.289-1.609.289Zm13.516-8.867v1.195h-4.516v-1.195h4.516Zm-3.18-2.101h1.398v8.546c0 .381.076.659.227.836.156.172.419.258.789.258.088 0 .2-.008.336-.023.141-.021.268-.042.383-.063l.258 1.188a2.42 2.42 0 0 1-.485.101 4.706 4.706 0 0 1-.539.032c-.75 0-1.333-.193-1.75-.579-.411-.39-.617-.937-.617-1.64v-8.656Zm4.922 10.781v-8.68h1.351v1.336h.086c.162-.437.443-.789.844-1.055.406-.271.87-.406 1.391-.406a10.154 10.154 0 0 1 .695.024v1.406a3.514 3.514 0 0 0-.313-.047 4.054 4.054 0 0 0-.523-.031c-.406 0-.771.086-1.094.257a1.9 1.9 0 0 0-.765.711 2.013 2.013 0 0 0-.274 1.063v5.422h-1.398Zm8.359.195a3.61 3.61 0 0 1-1.5-.305 2.552 2.552 0 0 1-1.07-.906c-.261-.401-.391-.885-.391-1.453 0-.5.097-.904.289-1.211a2.1 2.1 0 0 1 .789-.734 4.019 4.019 0 0 1 1.094-.407c.401-.088.805-.158 1.211-.21.521-.068.943-.12 1.266-.157.328-.036.57-.099.726-.187.156-.089.235-.24.235-.453v-.047c0-.36-.068-.664-.204-.914a1.355 1.355 0 0 0-.617-.578c-.271-.136-.607-.204-1.008-.204-.411 0-.765.066-1.062.196-.297.13-.539.294-.727.492a1.981 1.981 0 0 0-.398.617l-1.352-.398c.203-.526.49-.943.86-1.25.37-.313.784-.537 1.242-.672a4.78 4.78 0 0 1 1.398-.211c.313 0 .657.039 1.032.117a3.22 3.22 0 0 1 1.07.438c.338.208.617.513.836.914.219.401.328.927.328 1.578v5.75h-1.375v-1.188h-.094a2.387 2.387 0 0 1-.468.625 2.588 2.588 0 0 1-.844.539c-.344.146-.766.219-1.266.219Zm.242-1.234c.521 0 .959-.102 1.313-.305.359-.203.63-.466.812-.789.188-.323.282-.664.282-1.023v-1.188c-.058.068-.18.128-.368.18a6.35 6.35 0 0 1-.648.14c-.24.042-.477.078-.711.11a19.48 19.48 0 0 0-.562.07 4.583 4.583 0 0 0-.946.219 1.664 1.664 0 0 0-.703.437c-.177.193-.266.456-.266.789 0 .297.076.547.227.75.156.198.37.349.641.453.27.105.58.157.929.157Zm6.211 1.039v-8.68h1.399v8.68h-1.399Zm.711-10.133a.981.981 0 0 1-.687-.266.881.881 0 0 1-.282-.656c0-.26.094-.479.282-.656a.967.967 0 0 1 .687-.274c.271 0 .5.092.688.274a.858.858 0 0 1 .289.656.873.873 0 0 1-.289.656.966.966 0 0 1-.688.266Zm4.5 4.945v5.188h-1.398v-8.68h1.351l.008 2.102h-.219c.266-.797.644-1.365 1.133-1.703.495-.344 1.071-.516 1.727-.516.588 0 1.104.122 1.547.367.442.24.789.604 1.039 1.094.255.484.382 1.096.382 1.836v5.5h-1.398v-5.383c0-.677-.177-1.203-.531-1.578-.349-.38-.828-.57-1.438-.57-.416 0-.791.091-1.125.273-.333.177-.596.44-.789.789-.192.349-.289.776-.289 1.281Zm7.977 5.188v-8.68h1.398v8.68h-1.398Zm.711-10.133a.983.983 0 0 1-.688-.266.884.884 0 0 1-.281-.656c0-.26.094-.479.281-.656a.969.969 0 0 1 .688-.274c.271 0 .5.092.687.274a.855.855 0 0 1 .289.656.87.87 0 0 1-.289.656.962.962 0 0 1-.687.266Zm4.5 4.945v5.188h-1.399v-8.68h1.352l.008 2.102h-.219c.266-.797.643-1.365 1.133-1.703.494-.344 1.07-.516 1.726-.516.589 0 1.104.122 1.547.367.443.24.789.604 1.039 1.094.255.484.383 1.096.383 1.836v5.5h-1.398v-5.383c0-.677-.178-1.203-.532-1.578-.349-.38-.828-.57-1.437-.57-.417 0-.792.091-1.125.273a1.91 1.91 0 0 0-.789.789c-.193.349-.289.776-.289 1.281Zm11.508 8.633c-.641 0-1.198-.083-1.672-.25-.474-.167-.868-.393-1.18-.68a3.199 3.199 0 0 1-.727-.929l1.164-.657c.12.183.274.375.461.579.188.203.438.372.75.507.313.141.714.211 1.204.211.703 0 1.276-.169 1.718-.507.448-.339.672-.868.672-1.586v-1.696h-.117c-.109.183-.26.388-.453.617-.188.224-.448.42-.781.586-.334.167-.771.25-1.313.25a3.593 3.593 0 0 1-1.883-.5c-.557-.333-.997-.817-1.32-1.453-.318-.635-.477-1.406-.477-2.312 0-.896.159-1.675.477-2.336.318-.662.755-1.175 1.312-1.539.558-.365 1.196-.547 1.915-.547.541 0 .979.088 1.312.266.339.177.604.382.797.617.193.234.341.44.445.617h.125v-1.383h1.36v8.883c0 .755-.17 1.372-.508 1.851-.339.48-.795.831-1.367 1.055-.573.224-1.211.336-1.914.336Zm-.047-4.797c.531 0 .979-.122 1.343-.367.365-.245.641-.594.828-1.047.193-.458.29-1.005.29-1.64 0-.62-.094-1.165-.282-1.633-.187-.469-.463-.836-.828-1.102-.364-.271-.815-.406-1.351-.406-.542 0-.998.141-1.368.422a2.525 2.525 0 0 0-.835 1.125c-.188.469-.282 1-.282 1.594 0 .609.094 1.143.282 1.601.192.458.473.815.843 1.07.37.256.823.383 1.36.383Zm9.211 1.539c-.599 0-1.133-.088-1.602-.265a2.813 2.813 0 0 1-1.148-.789c-.303-.349-.503-.779-.602-1.289l1.336-.282c.115.479.344.834.687 1.063.349.224.787.336 1.313.336.604 0 1.086-.128 1.445-.383.36-.261.539-.57.539-.93a.977.977 0 0 0-.32-.75c-.214-.203-.534-.351-.961-.445l-1.437-.344c-.787-.187-1.375-.476-1.766-.867-.385-.396-.578-.898-.578-1.508 0-.5.138-.94.414-1.32a2.8 2.8 0 0 1 1.148-.891c.485-.213 1.034-.32 1.649-.32.593 0 1.101.091 1.523.273.427.183.771.438 1.031.766.266.323.459.698.579 1.125l-1.282.289a1.953 1.953 0 0 0-.586-.875c-.281-.26-.7-.391-1.257-.391-.521 0-.954.12-1.297.36-.339.239-.508.541-.508.906 0 .323.117.583.351.781.235.193.599.347 1.094.461l1.321.313c.791.187 1.377.476 1.757.867.381.391.571.885.571 1.484 0 .511-.144.964-.43 1.36-.287.395-.688.705-1.203.929-.516.224-1.11.336-1.781.336Z" fill="#fff"/><path d="M211.94 92.96v31.788c0 15.899-12.889 28.788-28.788 28.788H93.788C77.89 153.536 65 166.425 65 182.324v14.994" stroke="url(#a)" stroke-width="12"/><path d="M211.939 92.96v31.788c0 15.899 12.888 28.788 28.788 28.788h89.364c15.899 0 28.788 12.889 28.788 28.788v14.994" stroke="url(#b)" stroke-width="12"/><defs><linearGradient id="a" x1="208.642" y1="66.571" x2="208.642" y2="197.318" gradientUnits="userSpaceOnUse"><stop stop-color="#fff"/><stop offset="1" stop-color="#fff" stop-opacity="0"/></linearGradient><linearGradient id="b" x1="215.237" y1="66.571" x2="215.237" y2="197.318" gradientUnits="userSpaceOnUse"><stop stop-color="#fff"/><stop offset="1" stop-color="#fff" stop-opacity="0"/></linearGradient></defs></svg>